%TF.GenerationSoftware,KiCad,Pcbnew,8.0.4*%
%TF.CreationDate,2024-09-25T08:20:50+02:00*%
%TF.ProjectId,pong_pcb,706f6e67-5f70-4636-922e-6b696361645f,rev?*%
%TF.SameCoordinates,Original*%
%TF.FileFunction,Copper,L4,Bot*%
%TF.FilePolarity,Positive*%
%FSLAX46Y46*%
G04 Gerber Fmt 4.6, Leading zero omitted, Abs format (unit mm)*
G04 Created by KiCad (PCBNEW 8.0.4) date 2024-09-25 08:20:50*
%MOMM*%
%LPD*%
G01*
G04 APERTURE LIST*
G04 Aperture macros list*
%AMRoundRect*
0 Rectangle with rounded corners*
0 $1 Rounding radius*
0 $2 $3 $4 $5 $6 $7 $8 $9 X,Y pos of 4 corners*
0 Add a 4 corners polygon primitive as box body*
4,1,4,$2,$3,$4,$5,$6,$7,$8,$9,$2,$3,0*
0 Add four circle primitives for the rounded corners*
1,1,$1+$1,$2,$3*
1,1,$1+$1,$4,$5*
1,1,$1+$1,$6,$7*
1,1,$1+$1,$8,$9*
0 Add four rect primitives between the rounded corners*
20,1,$1+$1,$2,$3,$4,$5,0*
20,1,$1+$1,$4,$5,$6,$7,0*
20,1,$1+$1,$6,$7,$8,$9,0*
20,1,$1+$1,$8,$9,$2,$3,0*%
G04 Aperture macros list end*
%TA.AperFunction,ComponentPad*%
%ADD10C,0.800000*%
%TD*%
%TA.AperFunction,ComponentPad*%
%ADD11C,6.400000*%
%TD*%
%TA.AperFunction,ComponentPad*%
%ADD12O,1.500000X3.300000*%
%TD*%
%TA.AperFunction,ComponentPad*%
%ADD13O,1.500000X2.890000*%
%TD*%
%TA.AperFunction,ComponentPad*%
%ADD14R,1.700000X1.700000*%
%TD*%
%TA.AperFunction,ComponentPad*%
%ADD15O,1.700000X1.700000*%
%TD*%
%TA.AperFunction,ComponentPad*%
%ADD16RoundRect,0.249999X1.550001X-0.790001X1.550001X0.790001X-1.550001X0.790001X-1.550001X-0.790001X0*%
%TD*%
%TA.AperFunction,ComponentPad*%
%ADD17O,3.600000X2.080000*%
%TD*%
%TA.AperFunction,ComponentPad*%
%ADD18RoundRect,0.249999X-0.790001X-1.550001X0.790001X-1.550001X0.790001X1.550001X-0.790001X1.550001X0*%
%TD*%
%TA.AperFunction,ComponentPad*%
%ADD19O,2.080000X3.600000*%
%TD*%
%TA.AperFunction,ComponentPad*%
%ADD20C,1.524000*%
%TD*%
%TA.AperFunction,ComponentPad*%
%ADD21RoundRect,0.249999X-1.550001X0.790001X-1.550001X-0.790001X1.550001X-0.790001X1.550001X0.790001X0*%
%TD*%
%TA.AperFunction,ComponentPad*%
%ADD22RoundRect,0.249999X0.790001X1.550001X-0.790001X1.550001X-0.790001X-1.550001X0.790001X-1.550001X0*%
%TD*%
%TA.AperFunction,ViaPad*%
%ADD23C,0.600000*%
%TD*%
%TA.AperFunction,Conductor*%
%ADD24C,2.000000*%
%TD*%
%TA.AperFunction,Conductor*%
%ADD25C,1.000000*%
%TD*%
%TA.AperFunction,Conductor*%
%ADD26C,0.800000*%
%TD*%
%TA.AperFunction,Conductor*%
%ADD27C,0.400000*%
%TD*%
%TA.AperFunction,Conductor*%
%ADD28C,0.250000*%
%TD*%
%TA.AperFunction,Conductor*%
%ADD29C,0.200000*%
%TD*%
%TA.AperFunction,Conductor*%
%ADD30C,0.130000*%
%TD*%
G04 APERTURE END LIST*
D10*
%TO.P,H4,1,1*%
%TO.N,GND*%
X152600000Y-139000000D03*
X153302944Y-137302944D03*
X153302944Y-140697056D03*
X155000000Y-136600000D03*
D11*
X155000000Y-139000000D03*
D10*
X155000000Y-141400000D03*
X156697056Y-137302944D03*
X156697056Y-140697056D03*
X157400000Y-139000000D03*
%TD*%
D12*
%TO.P,J2,SH,SH*%
%TO.N,GND*%
X136250000Y-53000000D03*
D13*
X136250000Y-47000000D03*
D12*
X121750000Y-53000000D03*
D13*
X121750000Y-47000000D03*
%TD*%
D14*
%TO.P,J11,1,Pin_1*%
%TO.N,GND*%
X86380000Y-76500000D03*
D15*
%TO.P,J11,2,Pin_2*%
%TO.N,Net-(J11-Pin_2)*%
X86380000Y-79040000D03*
%TO.P,J11,3,Pin_3*%
%TO.N,Net-(J11-Pin_3)*%
X88920000Y-76500000D03*
%TO.P,J11,4,Pin_4*%
%TO.N,Net-(J11-Pin_4)*%
X88920000Y-79040000D03*
%TO.P,J11,5,Pin_5*%
%TO.N,Net-(J11-Pin_5)*%
X91460000Y-76500000D03*
%TO.P,J11,6,Pin_6*%
%TO.N,Net-(J11-Pin_6)*%
X91460000Y-79040000D03*
%TO.P,J11,7,Pin_7*%
%TO.N,Net-(J11-Pin_7)*%
X94000000Y-76500000D03*
%TO.P,J11,8,Pin_8*%
%TO.N,Net-(J11-Pin_8)*%
X94000000Y-79040000D03*
%TD*%
D16*
%TO.P,J4,1,Pin_1*%
%TO.N,/SignalBuffer/ButtonUp2*%
X149822500Y-121080000D03*
D17*
%TO.P,J4,2,Pin_2*%
%TO.N,GND*%
X149822500Y-116000000D03*
%TO.P,J4,3,Pin_3*%
%TO.N,/SignalBuffer/ButtonDown2*%
X149822500Y-110920000D03*
%TD*%
D18*
%TO.P,J7,1,Pin_1*%
%TO.N,/SignalBuffer/Echo2*%
X119640000Y-133822500D03*
D19*
%TO.P,J7,2,Pin_2*%
%TO.N,GND*%
X124720000Y-133822500D03*
%TO.P,J7,3,Pin_3*%
%TO.N,/SignalBuffer/Trigger2_buffered*%
X129800000Y-133822500D03*
%TO.P,J7,4,Pin_4*%
%TO.N,+3.3V*%
X134880000Y-133822500D03*
%TO.P,J7,5,Pin_5*%
%TO.N,+5V*%
X139960000Y-133822500D03*
%TD*%
D16*
%TO.P,J5,1,Pin_1*%
%TO.N,/SignalBuffer/ControllerSelect*%
X149972500Y-78000000D03*
D17*
%TO.P,J5,2,Pin_2*%
%TO.N,GND*%
X149972500Y-72920000D03*
%TD*%
D10*
%TO.P,H2,1,1*%
%TO.N,GND*%
X152600000Y-49000000D03*
X153302944Y-47302944D03*
X153302944Y-50697056D03*
X155000000Y-46600000D03*
D11*
X155000000Y-49000000D03*
D10*
X155000000Y-51400000D03*
X156697056Y-47302944D03*
X156697056Y-50697056D03*
X157400000Y-49000000D03*
%TD*%
D14*
%TO.P,J9,1,Pin_1*%
%TO.N,Net-(J9-Pin_1)*%
X155000000Y-86760000D03*
D15*
%TO.P,J9,2,Pin_2*%
%TO.N,Net-(J9-Pin_2)*%
X152460000Y-86760000D03*
%TO.P,J9,3,Pin_3*%
%TO.N,Net-(J9-Pin_3)*%
X155000000Y-89300000D03*
%TO.P,J9,4,Pin_4*%
%TO.N,Net-(J9-Pin_4)*%
X152460000Y-89300000D03*
%TO.P,J9,5,Pin_5*%
%TO.N,Net-(J9-Pin_5)*%
X155000000Y-91840000D03*
%TO.P,J9,6,Pin_6*%
%TO.N,Net-(J9-Pin_6)*%
X152460000Y-91840000D03*
%TO.P,J9,7,Pin_7*%
%TO.N,Net-(J9-Pin_7)*%
X155000000Y-94380000D03*
%TO.P,J9,8,Pin_8*%
%TO.N,Net-(J9-Pin_8)*%
X152460000Y-94380000D03*
%TO.P,J9,9,Pin_9*%
%TO.N,Net-(J9-Pin_9)*%
X155000000Y-96920000D03*
%TO.P,J9,10,Pin_10*%
%TO.N,Net-(J9-Pin_10)*%
X152460000Y-96920000D03*
%TO.P,J9,11,Pin_11*%
%TO.N,Net-(J9-Pin_11)*%
X155000000Y-99460000D03*
%TO.P,J9,12,Pin_12*%
%TO.N,Net-(J9-Pin_12)*%
X152460000Y-99460000D03*
%TO.P,J9,13,Pin_13*%
%TO.N,Net-(J9-Pin_13)*%
X155000000Y-102000000D03*
%TO.P,J9,14,Pin_14*%
%TO.N,GND*%
X152460000Y-102000000D03*
%TD*%
D20*
%TO.P,U2,1,pio1*%
%TO.N,/FPGA_HDMI/GameReset*%
X84600000Y-100000000D03*
%TO.P,U2,2,pio2*%
%TO.N,/FPGA_HDMI/Controller_switch*%
X87140000Y-100000000D03*
%TO.P,U2,3,pio3*%
%TO.N,/FPGA_HDMI/BTN_up_l*%
X89680000Y-100000000D03*
%TO.P,U2,4,pio4*%
%TO.N,/FPGA_HDMI/BTN_down_l*%
X92220000Y-100000000D03*
%TO.P,U2,5,pio5*%
%TO.N,/FPGA_HDMI/BTN_up_r*%
X94760000Y-100000000D03*
%TO.P,U2,6,pio6*%
%TO.N,/FPGA_HDMI/BTN_down_r*%
X97300000Y-100000000D03*
%TO.P,U2,7,pio7*%
%TO.N,/FPGA_HDMI/Trigger_l*%
X99840000Y-100000000D03*
%TO.P,U2,8,pio8*%
%TO.N,/FPGA_HDMI/Sensor_l*%
X102380000Y-100000000D03*
%TO.P,U2,9,pio9*%
%TO.N,/FPGA_HDMI/Trigger_r*%
X104920000Y-100000000D03*
%TO.P,U2,10,pio10*%
%TO.N,/FPGA_HDMI/Sensor_r*%
X107460000Y-100000000D03*
%TO.P,U2,11,pio11*%
%TO.N,Net-(J9-Pin_1)*%
X110000000Y-100000000D03*
%TO.P,U2,12,pio12*%
%TO.N,Net-(J9-Pin_2)*%
X112540000Y-100000000D03*
%TO.P,U2,13,pio13*%
%TO.N,Net-(J9-Pin_3)*%
X115080000Y-100000000D03*
%TO.P,U2,14,pio14*%
%TO.N,Net-(J9-Pin_4)*%
X117620000Y-100000000D03*
%TO.P,U2,15,pio15*%
%TO.N,Net-(J9-Pin_5)*%
X120160000Y-100000000D03*
%TO.P,U2,16,pio16*%
%TO.N,Net-(J9-Pin_6)*%
X122700000Y-100000000D03*
%TO.P,U2,17,pio17*%
%TO.N,Net-(J9-Pin_7)*%
X125240000Y-100000000D03*
%TO.P,U2,18,pio18*%
%TO.N,Net-(J9-Pin_8)*%
X127780000Y-100000000D03*
%TO.P,U2,19,pio19*%
%TO.N,Net-(J9-Pin_9)*%
X130320000Y-100000000D03*
%TO.P,U2,20,pio20*%
%TO.N,Net-(J9-Pin_10)*%
X132860000Y-100000000D03*
%TO.P,U2,21,pio21*%
%TO.N,Net-(J9-Pin_11)*%
X135400000Y-100000000D03*
%TO.P,U2,22,pio22*%
%TO.N,Net-(J9-Pin_12)*%
X137940000Y-100000000D03*
%TO.P,U2,23,pio23*%
%TO.N,Net-(J9-Pin_13)*%
X140480000Y-100000000D03*
%TO.P,U2,24,VU*%
%TO.N,VU*%
X143020000Y-100000000D03*
%TO.P,U2,25,GND*%
%TO.N,GND*%
X143020000Y-84760000D03*
%TO.P,U2,26,pio26*%
%TO.N,unconnected-(U2-pio26-Pad26)*%
X140480000Y-84760000D03*
%TO.P,U2,27,pio27*%
%TO.N,unconnected-(U2-pio27-Pad27)*%
X137940000Y-84760000D03*
%TO.P,U2,28,pio28*%
%TO.N,unconnected-(U2-pio28-Pad28)*%
X135400000Y-84760000D03*
%TO.P,U2,29,pio29*%
%TO.N,unconnected-(U2-pio29-Pad29)*%
X132860000Y-84760000D03*
%TO.P,U2,30,pio30*%
%TO.N,Hdmil_DDC_data*%
X130320000Y-84760000D03*
%TO.P,U2,31,pio31*%
%TO.N,Hdmi_DDC_dlk*%
X127780000Y-84760000D03*
%TO.P,U2,32,pio32*%
%TO.N,Hdmi_CEC*%
X125240000Y-84760000D03*
%TO.P,U2,33,pio33*%
%TO.N,Hdmi_out_hpd*%
X122700000Y-84760000D03*
%TO.P,U2,34,pio34*%
%TO.N,Hdmi_out_clk-*%
X120160000Y-84760000D03*
%TO.P,U2,35,pio35*%
%TO.N,Hdmi_out_clk+*%
X117620000Y-84760000D03*
%TO.P,U2,36,pio36*%
%TO.N,Hdmi_out_data_0+*%
X115080000Y-84760000D03*
%TO.P,U2,37,pio37*%
%TO.N,Hdmi_out_data_0-*%
X112540000Y-84760000D03*
%TO.P,U2,38,pio38*%
%TO.N,Hdmi_out_data_1+*%
X110000000Y-84760000D03*
%TO.P,U2,39,pio39*%
%TO.N,Hdmi_out_data_1-*%
X107460000Y-84760000D03*
%TO.P,U2,40,pio40*%
%TO.N,Hdmi_out_data_2-*%
X104920000Y-84760000D03*
%TO.P,U2,41,pio41*%
%TO.N,Hdmi_out_data_2+*%
X102380000Y-84760000D03*
%TO.P,U2,42,pio42*%
%TO.N,Net-(J11-Pin_8)*%
X99840000Y-84760000D03*
%TO.P,U2,43,pio43*%
%TO.N,Net-(J11-Pin_7)*%
X97300000Y-84760000D03*
%TO.P,U2,44,pio44*%
%TO.N,Net-(J11-Pin_6)*%
X94760000Y-84760000D03*
%TO.P,U2,45,pio45*%
%TO.N,Net-(J11-Pin_5)*%
X92220000Y-84760000D03*
%TO.P,U2,46,pio46*%
%TO.N,Net-(J11-Pin_4)*%
X89680000Y-84760000D03*
%TO.P,U2,47,pio47*%
%TO.N,Net-(J11-Pin_3)*%
X87140000Y-84760000D03*
%TO.P,U2,48,pio48*%
%TO.N,Net-(J11-Pin_2)*%
X84600000Y-84760000D03*
%TD*%
D16*
%TO.P,J8,1,Pin_1*%
%TO.N,/SignalBuffer/GameReset*%
X149972500Y-64540000D03*
D17*
%TO.P,J8,2,Pin_2*%
%TO.N,GND*%
X149972500Y-59460000D03*
%TD*%
D18*
%TO.P,J6,1,Pin_1*%
%TO.N,/SignalBuffer/Echo1*%
X79680000Y-133822500D03*
D19*
%TO.P,J6,2,Pin_2*%
%TO.N,GND*%
X84760000Y-133822500D03*
%TO.P,J6,3,Pin_3*%
%TO.N,/SignalBuffer/Trigger1_buffered*%
X89840000Y-133822500D03*
%TO.P,J6,4,Pin_4*%
%TO.N,+3.3V*%
X94920000Y-133822500D03*
%TO.P,J6,5,Pin_5*%
%TO.N,+5V*%
X100000000Y-133822500D03*
%TD*%
D21*
%TO.P,J3,1,Pin_1*%
%TO.N,/SignalBuffer/ButtonUp1*%
X70177500Y-111000000D03*
D17*
%TO.P,J3,2,Pin_2*%
%TO.N,GND*%
X70177500Y-116080000D03*
%TO.P,J3,3,Pin_3*%
%TO.N,/SignalBuffer/ButtonDown1*%
X70177500Y-121160000D03*
%TD*%
D10*
%TO.P,H3,1,1*%
%TO.N,GND*%
X62600000Y-139000000D03*
X63302944Y-137302944D03*
X63302944Y-140697056D03*
X65000000Y-136600000D03*
D11*
X65000000Y-139000000D03*
D10*
X65000000Y-141400000D03*
X66697056Y-137302944D03*
X66697056Y-140697056D03*
X67400000Y-139000000D03*
%TD*%
%TO.P,H1,1,1*%
%TO.N,GND*%
X62600000Y-49000000D03*
X63302944Y-47302944D03*
X63302944Y-50697056D03*
X65000000Y-46600000D03*
D11*
X65000000Y-49000000D03*
D10*
X65000000Y-51400000D03*
X66697056Y-47302944D03*
X66697056Y-50697056D03*
X67400000Y-49000000D03*
%TD*%
D22*
%TO.P,J1,1,Pin_1*%
%TO.N,/power_in*%
X97000000Y-54027500D03*
D19*
%TO.P,J1,2,Pin_2*%
%TO.N,GND*%
X91920000Y-54027500D03*
%TD*%
D23*
%TO.N,GND*%
X85500000Y-128830000D03*
X137500000Y-141500000D03*
X90000000Y-47500000D03*
X107500000Y-141500000D03*
X79225000Y-62900000D03*
X82500000Y-141500000D03*
X107500000Y-67500000D03*
X145750000Y-115500000D03*
X62500000Y-127500000D03*
X73125000Y-53300000D03*
X130700000Y-75900000D03*
X157500000Y-55000000D03*
X137000000Y-110750000D03*
X62500000Y-100000000D03*
X140000000Y-124800000D03*
X110000000Y-57500000D03*
X142500000Y-47500000D03*
X128700000Y-63400000D03*
X76125000Y-56400000D03*
X69025000Y-54900000D03*
X100000000Y-75000000D03*
X62500000Y-117500000D03*
X157500000Y-102500000D03*
X157500000Y-80000000D03*
X84000000Y-128830000D03*
X62500000Y-82500000D03*
X157500000Y-92500000D03*
X127500000Y-141500000D03*
X145750000Y-117000000D03*
X62500000Y-107500000D03*
X110000000Y-141500000D03*
X125500000Y-128750000D03*
X135000000Y-121000000D03*
X157500000Y-130000000D03*
X94000000Y-60000000D03*
X70620000Y-74765000D03*
X79000000Y-116000000D03*
X132100000Y-63500000D03*
X127500000Y-47500000D03*
X85000000Y-47500000D03*
X157500000Y-112500000D03*
X157500000Y-97500000D03*
X69670000Y-77315000D03*
X157500000Y-100000000D03*
X157500000Y-60000000D03*
X78425000Y-49400000D03*
X80770000Y-78515000D03*
X121800000Y-63200000D03*
X62500000Y-87500000D03*
X80625000Y-49400000D03*
X71690000Y-73765000D03*
X95000000Y-121080000D03*
X70000000Y-47500000D03*
X157500000Y-72500000D03*
X70000000Y-67500000D03*
X140000000Y-141500000D03*
X62500000Y-132500000D03*
X62500000Y-112500000D03*
X62500000Y-102500000D03*
X70625000Y-56200000D03*
X85000000Y-141500000D03*
X110000000Y-136850000D03*
X62500000Y-65000000D03*
X85000000Y-124080000D03*
X78425000Y-56500000D03*
X112500000Y-141500000D03*
X157500000Y-120000000D03*
X62500000Y-75000000D03*
X84425000Y-50700000D03*
X79825000Y-56100000D03*
X62500000Y-92500000D03*
X75000000Y-141500000D03*
X157500000Y-67500000D03*
X62500000Y-67500000D03*
X129500000Y-51700000D03*
X140000000Y-121000000D03*
X144350000Y-126250000D03*
X110000000Y-62500000D03*
X157500000Y-77500000D03*
X133400000Y-59900000D03*
X128675000Y-66700000D03*
X146000000Y-72400000D03*
X101500000Y-123080000D03*
X74250000Y-115000000D03*
X93500000Y-123080000D03*
X128725000Y-72100000D03*
X124375000Y-114625000D03*
X62500000Y-77500000D03*
X110000000Y-50000000D03*
X91250000Y-57500000D03*
X75000000Y-67500000D03*
X157500000Y-107500000D03*
X145000000Y-68500000D03*
X79020000Y-79765000D03*
X132000000Y-77100000D03*
X95000000Y-47500000D03*
X62500000Y-97500000D03*
X145825000Y-104550000D03*
X80000000Y-141500000D03*
X138000000Y-110750000D03*
X75820000Y-78515000D03*
X157500000Y-117500000D03*
X74250000Y-116500000D03*
X138850000Y-71600000D03*
X145000000Y-47500000D03*
X117500000Y-141500000D03*
X157500000Y-87500000D03*
X97500000Y-92500000D03*
X100000000Y-121080000D03*
X107500000Y-47500000D03*
X157500000Y-80000000D03*
X95000000Y-141500000D03*
X62500000Y-90000000D03*
X105000000Y-70000000D03*
X145825000Y-102550000D03*
X157500000Y-122500000D03*
X131600000Y-116000000D03*
X141000000Y-116000000D03*
X157500000Y-65000000D03*
X90000000Y-59950000D03*
X157500000Y-95000000D03*
X82925000Y-49400000D03*
X111800000Y-135500000D03*
X62500000Y-130000000D03*
X72500000Y-141500000D03*
X157500000Y-70000000D03*
X110000000Y-60000000D03*
X136200000Y-109250000D03*
X133400000Y-75900000D03*
X75000000Y-47500000D03*
X105000000Y-141500000D03*
X102500000Y-92500000D03*
X62500000Y-72500000D03*
X62500000Y-62500000D03*
X100000000Y-92500000D03*
X70620000Y-75715000D03*
X110000000Y-65000000D03*
X82500000Y-47500000D03*
X82500000Y-67500000D03*
X157500000Y-110000000D03*
X140000000Y-47500000D03*
X146000000Y-58500000D03*
X62500000Y-125000000D03*
X112500000Y-47500000D03*
X137500000Y-123000000D03*
X62500000Y-80000000D03*
X92500000Y-57500000D03*
X81020000Y-81415000D03*
X136200000Y-110200000D03*
X123100000Y-64300000D03*
X62500000Y-122500000D03*
X92000000Y-124800000D03*
X135000000Y-124800000D03*
X92500000Y-47500000D03*
X132500000Y-51700000D03*
X108100000Y-135500000D03*
X141500000Y-123000000D03*
X90000000Y-58750000D03*
X157500000Y-57500000D03*
X145000000Y-141500000D03*
X77125000Y-56500000D03*
X157500000Y-115000000D03*
X77500000Y-47500000D03*
X92500000Y-141500000D03*
X133500000Y-123000000D03*
X102500000Y-141500000D03*
X110000000Y-52500000D03*
X88200000Y-117750000D03*
X72500000Y-47500000D03*
X115000000Y-47500000D03*
X157500000Y-90000000D03*
X74925000Y-54900000D03*
X157500000Y-105000000D03*
X102500000Y-47500000D03*
X85000000Y-67500000D03*
X77220000Y-79765000D03*
X62500000Y-55000000D03*
X62500000Y-105000000D03*
X62500000Y-70000000D03*
X130000000Y-47500000D03*
X110000000Y-55000000D03*
X126500000Y-51700000D03*
X110000000Y-134050000D03*
X142500000Y-141500000D03*
X76125000Y-49400000D03*
X97500000Y-141500000D03*
X157500000Y-82500000D03*
X105000000Y-47500000D03*
X94000000Y-58750000D03*
X125000000Y-51700000D03*
X157500000Y-127500000D03*
X110000000Y-47500000D03*
X62500000Y-85000000D03*
X90000000Y-61250000D03*
X69220000Y-74636250D03*
X102500000Y-72500000D03*
X62500000Y-95000000D03*
X62500000Y-115000000D03*
X62500000Y-120000000D03*
X87500000Y-47500000D03*
X100000000Y-141500000D03*
X94000000Y-61250000D03*
X117500000Y-47500000D03*
X135000000Y-141500000D03*
X80000000Y-47500000D03*
X132000000Y-124800000D03*
X157500000Y-62500000D03*
X124500000Y-124000000D03*
X97500000Y-47500000D03*
X95000000Y-124880000D03*
X87500000Y-141500000D03*
X62500000Y-57500000D03*
X100000000Y-124880000D03*
X115000000Y-141500000D03*
X62500000Y-110000000D03*
X97500000Y-123080000D03*
X120000000Y-141500000D03*
X77500000Y-141500000D03*
X100000000Y-47500000D03*
X122500000Y-141500000D03*
X90000000Y-141500000D03*
X157500000Y-75000000D03*
X110000000Y-92500000D03*
X145825000Y-106600000D03*
X132500000Y-47500000D03*
X71670000Y-70665000D03*
X88200000Y-116000000D03*
X157500000Y-125000000D03*
X128000000Y-51700000D03*
X147500000Y-141500000D03*
X79825000Y-57200000D03*
X124000000Y-128750000D03*
X147500000Y-47500000D03*
X72500000Y-67500000D03*
X125000000Y-47500000D03*
X62500000Y-60000000D03*
X131925000Y-66600000D03*
X102550000Y-124750000D03*
X123200000Y-62000000D03*
X70625000Y-53300000D03*
X77500000Y-67500000D03*
X132500000Y-141500000D03*
X97500000Y-77500000D03*
X125000000Y-141500000D03*
X130000000Y-141500000D03*
X105000000Y-92500000D03*
X112500000Y-92500000D03*
X157500000Y-132500000D03*
X97500000Y-80000000D03*
X157500000Y-85000000D03*
X107500000Y-92500000D03*
X74625000Y-50700000D03*
X132500000Y-55800000D03*
X80000000Y-67500000D03*
%TO.N,+5V*%
X73425000Y-56500000D03*
X143150000Y-107750000D03*
X66300000Y-60900000D03*
X66300000Y-61800000D03*
X143150000Y-108700000D03*
X80875000Y-62950000D03*
X133400000Y-74300000D03*
X66300000Y-62700000D03*
%TO.N,+3.3V*%
X83600000Y-77000000D03*
X142200000Y-72500000D03*
X120800000Y-123500000D03*
X128000000Y-72700000D03*
X139760001Y-118939999D03*
X132700000Y-72500000D03*
X82600000Y-77000000D03*
X124600000Y-62000000D03*
%TO.N,/FPGA_HDMI/HDMI_5v*%
X132700000Y-59100000D03*
X133675735Y-56024265D03*
%TO.N,Hdmi_out_data_1+*%
X108218141Y-83214141D03*
%TO.N,Hdmi_out_data_0+*%
X113304000Y-83200000D03*
%TO.N,/FPGA_HDMI/Sensor_l*%
X82900000Y-119700000D03*
X88900000Y-119700000D03*
%TO.N,Hdmi_out_hpd*%
X127375000Y-80000000D03*
%TO.N,/FPGA_HDMI/Trigger_l*%
X90900000Y-118800000D03*
X87300000Y-122400000D03*
%TO.N,/FPGA_HDMI/BTN_down_l*%
X110300000Y-103100000D03*
%TO.N,/FPGA_HDMI/Trigger_r*%
X121200000Y-119600000D03*
X125500000Y-123900000D03*
%TO.N,/FPGA_HDMI/BTN_down_r*%
X83400000Y-118100000D03*
X87050000Y-114450000D03*
%TO.N,/FPGA_HDMI/BTN_up_l*%
X112200000Y-104700000D03*
%TO.N,/3v3-PSU/P_GOOD_3v3*%
X72845000Y-73915000D03*
%TD*%
D24*
%TO.N,+5V*%
X140000000Y-128200000D02*
X140000000Y-134000000D01*
X104200000Y-126200000D02*
X104200000Y-109950000D01*
D25*
X145500000Y-100800000D02*
X143150000Y-103150000D01*
D26*
X143150000Y-106100000D02*
X141500000Y-107750000D01*
D24*
X82250000Y-107750000D02*
X102000000Y-107750000D01*
X66300000Y-62700000D02*
X66300000Y-91800000D01*
X143150000Y-110000000D02*
X143150000Y-109400000D01*
X66300000Y-60900000D02*
X66300000Y-61800000D01*
X143150000Y-110000000D02*
X143150000Y-125050000D01*
X106400000Y-107750000D02*
X106500000Y-107750000D01*
X100000000Y-134080000D02*
X100000000Y-130400000D01*
D27*
X80875000Y-62950000D02*
X74425000Y-56500000D01*
D24*
X106500000Y-107750000D02*
X141500000Y-107750000D01*
X104200000Y-109950000D02*
X106400000Y-107750000D01*
X104200000Y-109950000D02*
X102000000Y-107750000D01*
X100000000Y-130400000D02*
X104200000Y-126200000D01*
X66300000Y-61800000D02*
X66300000Y-62700000D01*
X102000000Y-107750000D02*
X106500000Y-107750000D01*
X66300000Y-91800000D02*
X82250000Y-107750000D01*
D27*
X74425000Y-56500000D02*
X73425000Y-56500000D01*
D25*
X133400000Y-74300000D02*
X136600000Y-74300000D01*
X143150000Y-106000000D02*
X143150000Y-107750000D01*
X136600000Y-74300000D02*
X145500000Y-83200000D01*
X143150000Y-103150000D02*
X143150000Y-106000000D01*
D26*
X143150000Y-106000000D02*
X143150000Y-106100000D01*
D24*
X141500000Y-107750000D02*
X143150000Y-107750000D01*
X143150000Y-109400000D02*
X141500000Y-107750000D01*
D25*
X145500000Y-83200000D02*
X145500000Y-100800000D01*
D24*
X143150000Y-107750000D02*
X143150000Y-110000000D01*
X143150000Y-125050000D02*
X140000000Y-128200000D01*
D27*
%TO.N,+3.3V*%
X125750000Y-72700000D02*
X125500000Y-72700000D01*
X134060001Y-118939999D02*
X127600000Y-125400000D01*
X125050000Y-72700000D02*
X124600000Y-72250000D01*
D25*
X85600000Y-74000000D02*
X82600000Y-77000000D01*
D27*
X125200000Y-72700000D02*
X124500000Y-73400000D01*
X132600000Y-72400000D02*
X132700000Y-72500000D01*
X122700000Y-125400000D02*
X120800000Y-123500000D01*
X125500000Y-72700000D02*
X125200000Y-72700000D01*
X128100000Y-72800000D02*
X131200000Y-72800000D01*
X125200000Y-72700000D02*
X124600000Y-72100000D01*
X124600000Y-72100000D02*
X124600000Y-71750000D01*
X131600000Y-72400000D02*
X132600000Y-72400000D01*
D25*
X124600000Y-71750000D02*
X124600000Y-72900000D01*
D27*
X125050000Y-72700000D02*
X124500000Y-73250000D01*
D25*
X124600000Y-62000000D02*
X124600000Y-71750000D01*
X123500000Y-74000000D02*
X85600000Y-74000000D01*
D27*
X127600000Y-125400000D02*
X122700000Y-125400000D01*
X125500000Y-72700000D02*
X125050000Y-72700000D01*
X124600000Y-72250000D02*
X124600000Y-62000000D01*
X125750000Y-72700000D02*
X125200000Y-72700000D01*
X128000000Y-72700000D02*
X128100000Y-72800000D01*
X131200000Y-72800000D02*
X131600000Y-72400000D01*
D25*
X124600000Y-72900000D02*
X123500000Y-74000000D01*
D27*
X139760001Y-118939999D02*
X134060001Y-118939999D01*
X142200000Y-72500000D02*
X132700000Y-72500000D01*
X128000000Y-72700000D02*
X125750000Y-72700000D01*
D28*
X124600000Y-64400000D02*
X124600000Y-62000000D01*
D29*
%TO.N,/FPGA_HDMI/HDMI_5v*%
X132700000Y-57700000D02*
X132700000Y-59100000D01*
X133675735Y-56024265D02*
X133675735Y-56724265D01*
X133675735Y-56724265D02*
X132700000Y-57700000D01*
D30*
%TO.N,Hdmi_out_data_1+*%
X109460000Y-84760000D02*
X110000000Y-84760000D01*
X108218141Y-83214141D02*
X108218141Y-83518141D01*
X108218141Y-83518141D02*
X109460000Y-84760000D01*
%TO.N,Hdmi_out_data_0+*%
X114660000Y-84760000D02*
X115080000Y-84760000D01*
X113304000Y-83404000D02*
X114660000Y-84760000D01*
X113304000Y-83200000D02*
X113304000Y-83404000D01*
D27*
%TO.N,/FPGA_HDMI/Sensor_l*%
X83400000Y-119700000D02*
X88900000Y-119700000D01*
X82900000Y-119700000D02*
X83400000Y-119700000D01*
D29*
%TO.N,Hdmi_out_hpd*%
X127375000Y-80000000D02*
X127375000Y-80085000D01*
X127375000Y-80085000D02*
X122700000Y-84760000D01*
D27*
%TO.N,/FPGA_HDMI/Trigger_l*%
X87600000Y-122100000D02*
X87300000Y-122400000D01*
X90900000Y-118800000D02*
X87600000Y-122100000D01*
%TO.N,/FPGA_HDMI/BTN_down_l*%
X92220000Y-100000000D02*
X92220000Y-102220000D01*
X92220000Y-102220000D02*
X93100000Y-103100000D01*
X93100000Y-103100000D02*
X110300000Y-103100000D01*
%TO.N,/FPGA_HDMI/Trigger_r*%
X125500000Y-123900000D02*
X121200000Y-119600000D01*
%TO.N,/FPGA_HDMI/BTN_down_r*%
X83400000Y-118100000D02*
X87050000Y-114450000D01*
%TO.N,/FPGA_HDMI/BTN_up_l*%
X89680000Y-102480000D02*
X91900000Y-104700000D01*
X89680000Y-100000000D02*
X89680000Y-102480000D01*
X91900000Y-104700000D02*
X112200000Y-104700000D01*
%TD*%
M02*
