%TF.GenerationSoftware,KiCad,Pcbnew,8.0.4*%
%TF.CreationDate,2024-09-25T08:20:50+02:00*%
%TF.ProjectId,pong_pcb,706f6e67-5f70-4636-922e-6b696361645f,rev?*%
%TF.SameCoordinates,Original*%
%TF.FileFunction,Copper,L1,Top*%
%TF.FilePolarity,Positive*%
%FSLAX46Y46*%
G04 Gerber Fmt 4.6, Leading zero omitted, Abs format (unit mm)*
G04 Created by KiCad (PCBNEW 8.0.4) date 2024-09-25 08:20:50*
%MOMM*%
%LPD*%
G01*
G04 APERTURE LIST*
G04 Aperture macros list*
%AMRoundRect*
0 Rectangle with rounded corners*
0 $1 Rounding radius*
0 $2 $3 $4 $5 $6 $7 $8 $9 X,Y pos of 4 corners*
0 Add a 4 corners polygon primitive as box body*
4,1,4,$2,$3,$4,$5,$6,$7,$8,$9,$2,$3,0*
0 Add four circle primitives for the rounded corners*
1,1,$1+$1,$2,$3*
1,1,$1+$1,$4,$5*
1,1,$1+$1,$6,$7*
1,1,$1+$1,$8,$9*
0 Add four rect primitives between the rounded corners*
20,1,$1+$1,$2,$3,$4,$5,0*
20,1,$1+$1,$4,$5,$6,$7,0*
20,1,$1+$1,$6,$7,$8,$9,0*
20,1,$1+$1,$8,$9,$2,$3,0*%
G04 Aperture macros list end*
%TA.AperFunction,SMDPad,CuDef*%
%ADD10RoundRect,0.200000X-0.200000X-0.275000X0.200000X-0.275000X0.200000X0.275000X-0.200000X0.275000X0*%
%TD*%
%TA.AperFunction,SMDPad,CuDef*%
%ADD11RoundRect,0.225000X0.250000X-0.225000X0.250000X0.225000X-0.250000X0.225000X-0.250000X-0.225000X0*%
%TD*%
%TA.AperFunction,SMDPad,CuDef*%
%ADD12RoundRect,0.250000X0.650000X-1.000000X0.650000X1.000000X-0.650000X1.000000X-0.650000X-1.000000X0*%
%TD*%
%TA.AperFunction,SMDPad,CuDef*%
%ADD13RoundRect,0.225000X0.225000X0.250000X-0.225000X0.250000X-0.225000X-0.250000X0.225000X-0.250000X0*%
%TD*%
%TA.AperFunction,SMDPad,CuDef*%
%ADD14RoundRect,0.200000X0.200000X0.275000X-0.200000X0.275000X-0.200000X-0.275000X0.200000X-0.275000X0*%
%TD*%
%TA.AperFunction,SMDPad,CuDef*%
%ADD15RoundRect,0.225000X-0.250000X0.225000X-0.250000X-0.225000X0.250000X-0.225000X0.250000X0.225000X0*%
%TD*%
%TA.AperFunction,SMDPad,CuDef*%
%ADD16RoundRect,0.200000X-0.275000X0.200000X-0.275000X-0.200000X0.275000X-0.200000X0.275000X0.200000X0*%
%TD*%
%TA.AperFunction,ComponentPad*%
%ADD17C,0.800000*%
%TD*%
%TA.AperFunction,ComponentPad*%
%ADD18C,6.400000*%
%TD*%
%TA.AperFunction,SMDPad,CuDef*%
%ADD19R,0.280000X2.600000*%
%TD*%
%TA.AperFunction,ComponentPad*%
%ADD20O,1.500000X3.300000*%
%TD*%
%TA.AperFunction,ComponentPad*%
%ADD21O,1.500000X2.890000*%
%TD*%
%TA.AperFunction,SMDPad,CuDef*%
%ADD22RoundRect,0.250000X0.475000X-0.337500X0.475000X0.337500X-0.475000X0.337500X-0.475000X-0.337500X0*%
%TD*%
%TA.AperFunction,SMDPad,CuDef*%
%ADD23R,1.850000X3.400000*%
%TD*%
%TA.AperFunction,SMDPad,CuDef*%
%ADD24R,2.950000X1.680000*%
%TD*%
%TA.AperFunction,SMDPad,CuDef*%
%ADD25RoundRect,0.200000X0.275000X-0.200000X0.275000X0.200000X-0.275000X0.200000X-0.275000X-0.200000X0*%
%TD*%
%TA.AperFunction,ComponentPad*%
%ADD26R,1.700000X1.700000*%
%TD*%
%TA.AperFunction,ComponentPad*%
%ADD27O,1.700000X1.700000*%
%TD*%
%TA.AperFunction,SMDPad,CuDef*%
%ADD28RoundRect,0.225000X-0.225000X-0.250000X0.225000X-0.250000X0.225000X0.250000X-0.225000X0.250000X0*%
%TD*%
%TA.AperFunction,SMDPad,CuDef*%
%ADD29RoundRect,0.250000X0.412500X0.650000X-0.412500X0.650000X-0.412500X-0.650000X0.412500X-0.650000X0*%
%TD*%
%TA.AperFunction,SMDPad,CuDef*%
%ADD30RoundRect,0.250000X0.325000X0.450000X-0.325000X0.450000X-0.325000X-0.450000X0.325000X-0.450000X0*%
%TD*%
%TA.AperFunction,SMDPad,CuDef*%
%ADD31RoundRect,0.162500X-0.617500X-0.162500X0.617500X-0.162500X0.617500X0.162500X-0.617500X0.162500X0*%
%TD*%
%TA.AperFunction,SMDPad,CuDef*%
%ADD32RoundRect,0.237500X0.237500X-0.300000X0.237500X0.300000X-0.237500X0.300000X-0.237500X-0.300000X0*%
%TD*%
%TA.AperFunction,SMDPad,CuDef*%
%ADD33RoundRect,0.250000X0.650000X-0.412500X0.650000X0.412500X-0.650000X0.412500X-0.650000X-0.412500X0*%
%TD*%
%TA.AperFunction,SMDPad,CuDef*%
%ADD34RoundRect,0.162500X0.617500X0.162500X-0.617500X0.162500X-0.617500X-0.162500X0.617500X-0.162500X0*%
%TD*%
%TA.AperFunction,ComponentPad*%
%ADD35RoundRect,0.249999X1.550001X-0.790001X1.550001X0.790001X-1.550001X0.790001X-1.550001X-0.790001X0*%
%TD*%
%TA.AperFunction,ComponentPad*%
%ADD36O,3.600000X2.080000*%
%TD*%
%TA.AperFunction,ComponentPad*%
%ADD37RoundRect,0.249999X-0.790001X-1.550001X0.790001X-1.550001X0.790001X1.550001X-0.790001X1.550001X0*%
%TD*%
%TA.AperFunction,ComponentPad*%
%ADD38O,2.080000X3.600000*%
%TD*%
%TA.AperFunction,SMDPad,CuDef*%
%ADD39RoundRect,0.162500X0.162500X-0.617500X0.162500X0.617500X-0.162500X0.617500X-0.162500X-0.617500X0*%
%TD*%
%TA.AperFunction,SMDPad,CuDef*%
%ADD40R,0.250000X0.530000*%
%TD*%
%TA.AperFunction,SMDPad,CuDef*%
%ADD41R,2.500000X1.700000*%
%TD*%
%TA.AperFunction,ComponentPad*%
%ADD42C,1.524000*%
%TD*%
%TA.AperFunction,SMDPad,CuDef*%
%ADD43RoundRect,0.250000X-0.325000X-0.450000X0.325000X-0.450000X0.325000X0.450000X-0.325000X0.450000X0*%
%TD*%
%TA.AperFunction,SMDPad,CuDef*%
%ADD44RoundRect,0.250000X-1.500000X-0.900000X1.500000X-0.900000X1.500000X0.900000X-1.500000X0.900000X0*%
%TD*%
%TA.AperFunction,SMDPad,CuDef*%
%ADD45RoundRect,0.237500X-0.237500X0.300000X-0.237500X-0.300000X0.237500X-0.300000X0.237500X0.300000X0*%
%TD*%
%TA.AperFunction,ComponentPad*%
%ADD46RoundRect,0.249999X-1.550001X0.790001X-1.550001X-0.790001X1.550001X-0.790001X1.550001X0.790001X0*%
%TD*%
%TA.AperFunction,SMDPad,CuDef*%
%ADD47RoundRect,0.250000X-0.650000X0.412500X-0.650000X-0.412500X0.650000X-0.412500X0.650000X0.412500X0*%
%TD*%
%TA.AperFunction,SMDPad,CuDef*%
%ADD48R,0.750000X0.300000*%
%TD*%
%TA.AperFunction,SMDPad,CuDef*%
%ADD49R,0.900000X1.300000*%
%TD*%
%TA.AperFunction,SMDPad,CuDef*%
%ADD50RoundRect,0.250000X-0.850000X0.375000X-0.850000X-0.375000X0.850000X-0.375000X0.850000X0.375000X0*%
%TD*%
%TA.AperFunction,SMDPad,CuDef*%
%ADD51RoundRect,0.250000X0.450000X-0.325000X0.450000X0.325000X-0.450000X0.325000X-0.450000X-0.325000X0*%
%TD*%
%TA.AperFunction,SMDPad,CuDef*%
%ADD52RoundRect,0.250000X0.900000X-1.500000X0.900000X1.500000X-0.900000X1.500000X-0.900000X-1.500000X0*%
%TD*%
%TA.AperFunction,ComponentPad*%
%ADD53RoundRect,0.249999X0.790001X1.550001X-0.790001X1.550001X-0.790001X-1.550001X0.790001X-1.550001X0*%
%TD*%
%TA.AperFunction,SMDPad,CuDef*%
%ADD54RoundRect,0.100000X0.100000X-0.637500X0.100000X0.637500X-0.100000X0.637500X-0.100000X-0.637500X0*%
%TD*%
%TA.AperFunction,ViaPad*%
%ADD55C,0.600000*%
%TD*%
%TA.AperFunction,Conductor*%
%ADD56C,0.400000*%
%TD*%
%TA.AperFunction,Conductor*%
%ADD57C,0.600000*%
%TD*%
%TA.AperFunction,Conductor*%
%ADD58C,0.800000*%
%TD*%
%TA.AperFunction,Conductor*%
%ADD59C,0.250000*%
%TD*%
%TA.AperFunction,Conductor*%
%ADD60C,1.000000*%
%TD*%
%TA.AperFunction,Conductor*%
%ADD61C,0.200000*%
%TD*%
%TA.AperFunction,Conductor*%
%ADD62C,2.000000*%
%TD*%
%TA.AperFunction,Conductor*%
%ADD63C,0.130000*%
%TD*%
G04 APERTURE END LIST*
D10*
%TO.P,R17,1*%
%TO.N,+3.3V*%
X119350000Y-126000000D03*
%TO.P,R17,2*%
%TO.N,/SignalBuffer/Echo2*%
X121000000Y-126000000D03*
%TD*%
D11*
%TO.P,C23,1*%
%TO.N,+5V*%
X103000000Y-127775000D03*
%TO.P,C23,2*%
%TO.N,GND*%
X103000000Y-126225000D03*
%TD*%
D12*
%TO.P,D5,1,A1*%
%TO.N,+3.3V*%
X135000000Y-127000000D03*
%TO.P,D5,2,A2*%
%TO.N,GND*%
X135000000Y-123000000D03*
%TD*%
D13*
%TO.P,C11,1*%
%TO.N,+3.3V*%
X124700000Y-63200000D03*
%TO.P,C11,2*%
%TO.N,GND*%
X123150000Y-63200000D03*
%TD*%
D14*
%TO.P,R5,1*%
%TO.N,/3v3-PSU/FB_3.3v*%
X72495000Y-77315000D03*
%TO.P,R5,2*%
%TO.N,GND*%
X70845000Y-77315000D03*
%TD*%
D15*
%TO.P,C20,1*%
%TO.N,+3.3V*%
X79000000Y-76950000D03*
%TO.P,C20,2*%
%TO.N,GND*%
X79000000Y-78500000D03*
%TD*%
D16*
%TO.P,RV2,1*%
%TO.N,Net-(R12-Pad2)*%
X75500000Y-113350000D03*
%TO.P,RV2,2*%
%TO.N,GND*%
X75500000Y-115000000D03*
%TD*%
D12*
%TO.P,D4,1,A1*%
%TO.N,+5V*%
X100000000Y-127080000D03*
%TO.P,D4,2,A2*%
%TO.N,GND*%
X100000000Y-123080000D03*
%TD*%
D17*
%TO.P,H4,1,1*%
%TO.N,GND*%
X152600000Y-139000000D03*
X153302944Y-137302944D03*
X153302944Y-140697056D03*
X155000000Y-136600000D03*
D18*
X155000000Y-139000000D03*
D17*
X155000000Y-141400000D03*
X156697056Y-137302944D03*
X156697056Y-140697056D03*
X157400000Y-139000000D03*
%TD*%
D12*
%TO.P,D3,1,A1*%
%TO.N,+3.3V*%
X95000000Y-127080000D03*
%TO.P,D3,2,A2*%
%TO.N,GND*%
X95000000Y-123080000D03*
%TD*%
D19*
%TO.P,J2,1,D2+*%
%TO.N,Hdmi_out_data_2+*%
X124502956Y-53800000D03*
%TO.P,J2,2,D2S*%
%TO.N,GND*%
X125000000Y-53800000D03*
%TO.P,J2,3,D2-*%
%TO.N,Hdmi_out_data_2-*%
X125500000Y-53800000D03*
%TO.P,J2,4,D1+*%
%TO.N,Hdmi_out_data_1+*%
X126000000Y-53800000D03*
%TO.P,J2,5,D1S*%
%TO.N,GND*%
X126500000Y-53800000D03*
%TO.P,J2,6,D1-*%
%TO.N,Hdmi_out_data_1-*%
X127002956Y-53800000D03*
%TO.P,J2,7,D0+*%
%TO.N,Hdmi_out_data_0+*%
X127500000Y-53800000D03*
%TO.P,J2,8,D0S*%
%TO.N,GND*%
X128000000Y-53800000D03*
%TO.P,J2,9,D0-*%
%TO.N,Hdmi_out_data_0-*%
X128500000Y-53800000D03*
%TO.P,J2,10,CK+*%
%TO.N,Hdmi_out_clk+*%
X129000000Y-53800000D03*
%TO.P,J2,11,CKS*%
%TO.N,GND*%
X129502956Y-53800000D03*
%TO.P,J2,12,CK-*%
%TO.N,Hdmi_out_clk-*%
X130000000Y-53800000D03*
%TO.P,J2,13,CEC*%
%TO.N,/FPGA_HDMI/CEC*%
X130500000Y-53800000D03*
%TO.P,J2,14,UTILITY*%
%TO.N,unconnected-(J2-UTILITY-Pad14)*%
X131000000Y-53800000D03*
%TO.P,J2,15,SCL*%
%TO.N,/FPGA_HDMI/DDC_CLK*%
X131500000Y-53800000D03*
%TO.P,J2,16,SDA*%
%TO.N,/FPGA_HDMI/DDC_SDA*%
X132002956Y-53800000D03*
%TO.P,J2,17,GND*%
%TO.N,GND*%
X132500000Y-53800000D03*
%TO.P,J2,18,+5V*%
%TO.N,/FPGA_HDMI/HDMI_5v*%
X133000000Y-53800000D03*
%TO.P,J2,19,HPD*%
%TO.N,/FPGA_HDMI/HPD*%
X133500000Y-53800000D03*
D20*
%TO.P,J2,SH,SH*%
%TO.N,GND*%
X136250000Y-53000000D03*
D21*
X136250000Y-47000000D03*
D20*
X121750000Y-53000000D03*
D21*
X121750000Y-47000000D03*
%TD*%
D22*
%TO.P,C2,1*%
%TO.N,/5v-PSU/v-in*%
X82875000Y-52750000D03*
%TO.P,C2,2*%
%TO.N,GND*%
X82875000Y-50675000D03*
%TD*%
D16*
%TO.P,R2,1*%
%TO.N,Net-(U1-BOOT)*%
X77625000Y-59600000D03*
%TO.P,R2,2*%
%TO.N,Net-(C1-Pad2)*%
X77625000Y-61250000D03*
%TD*%
D10*
%TO.P,RV7,1*%
%TO.N,Net-(R20-Pad2)*%
X82350000Y-127580000D03*
%TO.P,RV7,2*%
%TO.N,GND*%
X84000000Y-127580000D03*
%TD*%
D11*
%TO.P,C22,1*%
%TO.N,+3.3V*%
X92000000Y-127775000D03*
%TO.P,C22,2*%
%TO.N,GND*%
X92000000Y-126225000D03*
%TD*%
%TO.P,C24,1*%
%TO.N,+3.3V*%
X132000000Y-127775000D03*
%TO.P,C24,2*%
%TO.N,GND*%
X132000000Y-126225000D03*
%TD*%
D23*
%TO.P,L1,1*%
%TO.N,/5v-PSU/SW_5V*%
X75625000Y-62250000D03*
%TO.P,L1,2*%
%TO.N,+5V*%
X70075000Y-62250000D03*
%TD*%
D24*
%TO.P,F1,1*%
%TO.N,/power_in*%
X97000000Y-60170000D03*
%TO.P,F1,2*%
%TO.N,/power_fused*%
X97000000Y-64950000D03*
%TD*%
D25*
%TO.P,R15,1*%
%TO.N,/SignalBuffer/ControllerSelect*%
X146000000Y-78000000D03*
%TO.P,R15,2*%
%TO.N,Net-(R15-Pad2)*%
X146000000Y-76350000D03*
%TD*%
D26*
%TO.P,J11,1,Pin_1*%
%TO.N,GND*%
X86380000Y-76500000D03*
D27*
%TO.P,J11,2,Pin_2*%
%TO.N,Net-(J11-Pin_2)*%
X86380000Y-79040000D03*
%TO.P,J11,3,Pin_3*%
%TO.N,Net-(J11-Pin_3)*%
X88920000Y-76500000D03*
%TO.P,J11,4,Pin_4*%
%TO.N,Net-(J11-Pin_4)*%
X88920000Y-79040000D03*
%TO.P,J11,5,Pin_5*%
%TO.N,Net-(J11-Pin_5)*%
X91460000Y-76500000D03*
%TO.P,J11,6,Pin_6*%
%TO.N,Net-(J11-Pin_6)*%
X91460000Y-79040000D03*
%TO.P,J11,7,Pin_7*%
%TO.N,Net-(J11-Pin_7)*%
X94000000Y-76500000D03*
%TO.P,J11,8,Pin_8*%
%TO.N,Net-(J11-Pin_8)*%
X94000000Y-79040000D03*
%TD*%
D11*
%TO.P,C30,1*%
%TO.N,+3.3V*%
X124450000Y-117400000D03*
%TO.P,C30,2*%
%TO.N,GND*%
X124450000Y-115850000D03*
%TD*%
D28*
%TO.P,C27,1*%
%TO.N,+3.3V*%
X85225000Y-116000000D03*
%TO.P,C27,2*%
%TO.N,GND*%
X86775000Y-116000000D03*
%TD*%
D29*
%TO.P,C13,1*%
%TO.N,+5V*%
X141000000Y-109000000D03*
%TO.P,C13,2*%
%TO.N,GND*%
X137875000Y-109000000D03*
%TD*%
D30*
%TO.P,L2,1,1*%
%TO.N,/5v-PSU/v-in*%
X82957500Y-54605000D03*
%TO.P,L2,2,2*%
%TO.N,/5v-PSU/V-in_filtered*%
X80907500Y-54605000D03*
%TD*%
D25*
%TO.P,RV5,1*%
%TO.N,Net-(R15-Pad2)*%
X146000000Y-75000000D03*
%TO.P,RV5,2*%
%TO.N,GND*%
X146000000Y-73350000D03*
%TD*%
D31*
%TO.P,U5,1*%
%TO.N,/SignalBuffer/ButtonUp1*%
X80650000Y-115050000D03*
%TO.P,U5,2,GND*%
%TO.N,GND*%
X80650000Y-116000000D03*
%TO.P,U5,3*%
%TO.N,/SignalBuffer/ButtonDown1*%
X80650000Y-116950000D03*
%TO.P,U5,4*%
%TO.N,/FPGA_HDMI/BTN_down_r*%
X83350000Y-116950000D03*
%TO.P,U5,5,VCC*%
%TO.N,+3.3V*%
X83350000Y-116000000D03*
%TO.P,U5,6*%
%TO.N,/FPGA_HDMI/BTN_up_r*%
X83350000Y-115050000D03*
%TD*%
D16*
%TO.P,R7,1*%
%TO.N,+3.3V*%
X77000000Y-110350000D03*
%TO.P,R7,2*%
%TO.N,/SignalBuffer/ButtonUp1*%
X77000000Y-112000000D03*
%TD*%
D32*
%TO.P,C1,1*%
%TO.N,/5v-PSU/SW_5V*%
X77625000Y-64500000D03*
%TO.P,C1,2*%
%TO.N,Net-(C1-Pad2)*%
X77625000Y-62775000D03*
%TD*%
D28*
%TO.P,C15,1*%
%TO.N,VU*%
X143150000Y-102570000D03*
%TO.P,C15,2*%
%TO.N,GND*%
X144700000Y-102570000D03*
%TD*%
D33*
%TO.P,C8,1*%
%TO.N,+5V*%
X73125000Y-58000000D03*
%TO.P,C8,2*%
%TO.N,GND*%
X73125000Y-54875000D03*
%TD*%
D14*
%TO.P,R21,1*%
%TO.N,/SignalBuffer/Trigger2_buffered*%
X130150000Y-127500000D03*
%TO.P,R21,2*%
%TO.N,Net-(R21-Pad2)*%
X128500000Y-127500000D03*
%TD*%
D34*
%TO.P,U9,1*%
%TO.N,/SignalBuffer/ControllerSelect*%
X143500000Y-69450000D03*
%TO.P,U9,2,GND*%
%TO.N,GND*%
X143500000Y-68500000D03*
%TO.P,U9,3*%
%TO.N,/SignalBuffer/GameReset*%
X143500000Y-67550000D03*
%TO.P,U9,4*%
%TO.N,/FPGA_HDMI/GameReset*%
X140800000Y-67550000D03*
%TO.P,U9,5,VCC*%
%TO.N,+3.3V*%
X140800000Y-68500000D03*
%TO.P,U9,6*%
%TO.N,/FPGA_HDMI/Controller_switch*%
X140800000Y-69450000D03*
%TD*%
D28*
%TO.P,C29,1*%
%TO.N,+3.3V*%
X85250000Y-117750000D03*
%TO.P,C29,2*%
%TO.N,GND*%
X86800000Y-117750000D03*
%TD*%
D35*
%TO.P,J4,1,Pin_1*%
%TO.N,/SignalBuffer/ButtonUp2*%
X149822500Y-121080000D03*
D36*
%TO.P,J4,2,Pin_2*%
%TO.N,GND*%
X149822500Y-116000000D03*
%TO.P,J4,3,Pin_3*%
%TO.N,/SignalBuffer/ButtonDown2*%
X149822500Y-110920000D03*
%TD*%
D10*
%TO.P,R22,1*%
%TO.N,/SignalBuffer/Echo2*%
X119350000Y-127500000D03*
%TO.P,R22,2*%
%TO.N,Net-(R22-Pad2)*%
X121000000Y-127500000D03*
%TD*%
D37*
%TO.P,J7,1,Pin_1*%
%TO.N,/SignalBuffer/Echo2*%
X119640000Y-133822500D03*
D38*
%TO.P,J7,2,Pin_2*%
%TO.N,GND*%
X124720000Y-133822500D03*
%TO.P,J7,3,Pin_3*%
%TO.N,/SignalBuffer/Trigger2_buffered*%
X129800000Y-133822500D03*
%TO.P,J7,4,Pin_4*%
%TO.N,+3.3V*%
X134880000Y-133822500D03*
%TO.P,J7,5,Pin_5*%
%TO.N,+5V*%
X139960000Y-133822500D03*
%TD*%
D22*
%TO.P,C5,1*%
%TO.N,/5v-PSU/V-in_filtered*%
X78375000Y-52750000D03*
%TO.P,C5,2*%
%TO.N,GND*%
X78375000Y-50675000D03*
%TD*%
D25*
%TO.P,R6,1*%
%TO.N,+3.3V*%
X77000000Y-121150000D03*
%TO.P,R6,2*%
%TO.N,/SignalBuffer/ButtonDown1*%
X77000000Y-119500000D03*
%TD*%
D28*
%TO.P,C14,1*%
%TO.N,+5V*%
X143150000Y-106600000D03*
%TO.P,C14,2*%
%TO.N,GND*%
X144700000Y-106600000D03*
%TD*%
D15*
%TO.P,C31,1*%
%TO.N,+3.3V*%
X138800000Y-68850000D03*
%TO.P,C31,2*%
%TO.N,GND*%
X138800000Y-70400000D03*
%TD*%
D35*
%TO.P,J5,1,Pin_1*%
%TO.N,/SignalBuffer/ControllerSelect*%
X149972500Y-78000000D03*
D36*
%TO.P,J5,2,Pin_2*%
%TO.N,GND*%
X149972500Y-72920000D03*
%TD*%
D16*
%TO.P,R3,1*%
%TO.N,GND*%
X80855000Y-57100000D03*
%TO.P,R3,2*%
%TO.N,/5v-PSU/FB_5V*%
X80855000Y-58750000D03*
%TD*%
D33*
%TO.P,C26,1*%
%TO.N,+3.3V*%
X110000000Y-138625000D03*
%TO.P,C26,2*%
%TO.N,GND*%
X110000000Y-135500000D03*
%TD*%
D10*
%TO.P,R20,1*%
%TO.N,/SignalBuffer/Echo1*%
X79350000Y-127580000D03*
%TO.P,R20,2*%
%TO.N,Net-(R20-Pad2)*%
X81000000Y-127580000D03*
%TD*%
D28*
%TO.P,C16,1*%
%TO.N,VU*%
X143150000Y-104570000D03*
%TO.P,C16,2*%
%TO.N,GND*%
X144700000Y-104570000D03*
%TD*%
D14*
%TO.P,R4,1*%
%TO.N,/3v3-PSU/3.3v_unfilterd*%
X75570000Y-77315000D03*
%TO.P,R4,2*%
%TO.N,/3v3-PSU/FB_3.3v*%
X73920000Y-77315000D03*
%TD*%
D15*
%TO.P,C19,1*%
%TO.N,/3v3-PSU/3.3v_unfilterd*%
X77220000Y-76950000D03*
%TO.P,C19,2*%
%TO.N,GND*%
X77220000Y-78500000D03*
%TD*%
D16*
%TO.P,R13,1*%
%TO.N,/SignalBuffer/ButtonDown2*%
X144500000Y-110850000D03*
%TO.P,R13,2*%
%TO.N,Net-(R13-Pad2)*%
X144500000Y-112500000D03*
%TD*%
D14*
%TO.P,RV8,1*%
%TO.N,Net-(R21-Pad2)*%
X127150000Y-127500000D03*
%TO.P,RV8,2*%
%TO.N,GND*%
X125500000Y-127500000D03*
%TD*%
D16*
%TO.P,R12,1*%
%TO.N,/SignalBuffer/ButtonUp1*%
X75500000Y-110350000D03*
%TO.P,R12,2*%
%TO.N,Net-(R12-Pad2)*%
X75500000Y-112000000D03*
%TD*%
D14*
%TO.P,R19,1*%
%TO.N,/SignalBuffer/Trigger1_buffered*%
X90150000Y-127580000D03*
%TO.P,R19,2*%
%TO.N,Net-(R19-Pad2)*%
X88500000Y-127580000D03*
%TD*%
D13*
%TO.P,C28,1*%
%TO.N,+3.3V*%
X134400000Y-116050000D03*
%TO.P,C28,2*%
%TO.N,GND*%
X132850000Y-116050000D03*
%TD*%
D39*
%TO.P,U8,1*%
%TO.N,/SignalBuffer/Echo2*%
X123550000Y-122350000D03*
%TO.P,U8,2,GND*%
%TO.N,GND*%
X124500000Y-122350000D03*
%TO.P,U8,3*%
%TO.N,/FPGA_HDMI/Trigger_r*%
X125450000Y-122350000D03*
%TO.P,U8,4*%
%TO.N,/SignalBuffer/Trigger2_buffered*%
X125450000Y-119650000D03*
%TO.P,U8,5,VCC*%
%TO.N,+3.3V*%
X124500000Y-119650000D03*
%TO.P,U8,6*%
%TO.N,/FPGA_HDMI/Sensor_r*%
X123550000Y-119650000D03*
%TD*%
D25*
%TO.P,RV10,1*%
%TO.N,Net-(R23-Pad2)*%
X146000000Y-61150000D03*
%TO.P,RV10,2*%
%TO.N,GND*%
X146000000Y-59500000D03*
%TD*%
D22*
%TO.P,C4,1*%
%TO.N,/5v-PSU/V-in_filtered*%
X76125000Y-52750000D03*
%TO.P,C4,2*%
%TO.N,GND*%
X76125000Y-50675000D03*
%TD*%
D11*
%TO.P,C12,1*%
%TO.N,/FPGA_HDMI/HDMI_5v*%
X133400000Y-62900000D03*
%TO.P,C12,2*%
%TO.N,GND*%
X133400000Y-61350000D03*
%TD*%
D33*
%TO.P,C7,1*%
%TO.N,+5V*%
X70625000Y-58000000D03*
%TO.P,C7,2*%
%TO.N,GND*%
X70625000Y-54875000D03*
%TD*%
D25*
%TO.P,RV4,1*%
%TO.N,Net-(R14-Pad2)*%
X144500000Y-118650000D03*
%TO.P,RV4,2*%
%TO.N,GND*%
X144500000Y-117000000D03*
%TD*%
D17*
%TO.P,H2,1,1*%
%TO.N,GND*%
X152600000Y-49000000D03*
X153302944Y-47302944D03*
X153302944Y-50697056D03*
X155000000Y-46600000D03*
D18*
X155000000Y-49000000D03*
D17*
X155000000Y-51400000D03*
X156697056Y-47302944D03*
X156697056Y-50697056D03*
X157400000Y-49000000D03*
%TD*%
D25*
%TO.P,RV1,1*%
%TO.N,Net-(R11-Pad2)*%
X75500000Y-118150000D03*
%TO.P,RV1,2*%
%TO.N,GND*%
X75500000Y-116500000D03*
%TD*%
D29*
%TO.P,C18,1*%
%TO.N,/3v3-PSU/3.3v_unfilterd*%
X75065000Y-75217500D03*
%TO.P,C18,2*%
%TO.N,GND*%
X71940000Y-75217500D03*
%TD*%
D26*
%TO.P,J9,1,Pin_1*%
%TO.N,Net-(J9-Pin_1)*%
X155000000Y-86760000D03*
D27*
%TO.P,J9,2,Pin_2*%
%TO.N,Net-(J9-Pin_2)*%
X152460000Y-86760000D03*
%TO.P,J9,3,Pin_3*%
%TO.N,Net-(J9-Pin_3)*%
X155000000Y-89300000D03*
%TO.P,J9,4,Pin_4*%
%TO.N,Net-(J9-Pin_4)*%
X152460000Y-89300000D03*
%TO.P,J9,5,Pin_5*%
%TO.N,Net-(J9-Pin_5)*%
X155000000Y-91840000D03*
%TO.P,J9,6,Pin_6*%
%TO.N,Net-(J9-Pin_6)*%
X152460000Y-91840000D03*
%TO.P,J9,7,Pin_7*%
%TO.N,Net-(J9-Pin_7)*%
X155000000Y-94380000D03*
%TO.P,J9,8,Pin_8*%
%TO.N,Net-(J9-Pin_8)*%
X152460000Y-94380000D03*
%TO.P,J9,9,Pin_9*%
%TO.N,Net-(J9-Pin_9)*%
X155000000Y-96920000D03*
%TO.P,J9,10,Pin_10*%
%TO.N,Net-(J9-Pin_10)*%
X152460000Y-96920000D03*
%TO.P,J9,11,Pin_11*%
%TO.N,Net-(J9-Pin_11)*%
X155000000Y-99460000D03*
%TO.P,J9,12,Pin_12*%
%TO.N,Net-(J9-Pin_12)*%
X152460000Y-99460000D03*
%TO.P,J9,13,Pin_13*%
%TO.N,Net-(J9-Pin_13)*%
X155000000Y-102000000D03*
%TO.P,J9,14,Pin_14*%
%TO.N,GND*%
X152460000Y-102000000D03*
%TD*%
D40*
%TO.P,U1,1,SW*%
%TO.N,/5v-PSU/SW_5V*%
X76625000Y-57935000D03*
%TO.P,U1,2,SW*%
X77125000Y-57935000D03*
%TO.P,U1,3,BOOT*%
%TO.N,Net-(U1-BOOT)*%
X77625000Y-57935000D03*
%TO.P,U1,4,VCC*%
%TO.N,Net-(U1-VCC)*%
X78125000Y-57935000D03*
%TO.P,U1,5,FB*%
%TO.N,/5v-PSU/FB_5V*%
X78625000Y-57935000D03*
%TO.P,U1,6,PGOOD*%
%TO.N,/5v-PSU/P_GOOD_5V*%
X79125000Y-57935000D03*
%TO.P,U1,7,AGND*%
%TO.N,GND*%
X79125000Y-55065000D03*
%TO.P,U1,8,EN/SYNC*%
%TO.N,/5v-PSU/V-in_filtered*%
X78625000Y-55065000D03*
%TO.P,U1,9,VIN*%
X78125000Y-55065000D03*
%TO.P,U1,10,VIN*%
X77625000Y-55065000D03*
%TO.P,U1,11,NC*%
%TO.N,unconnected-(U1-NC-Pad11)*%
X77125000Y-55065000D03*
%TO.P,U1,12,GND*%
%TO.N,GND*%
X76625000Y-55065000D03*
D41*
%TO.P,U1,13,GND*%
X77875000Y-56500000D03*
%TD*%
D42*
%TO.P,U2,1,pio1*%
%TO.N,/FPGA_HDMI/GameReset*%
X84600000Y-100000000D03*
%TO.P,U2,2,pio2*%
%TO.N,/FPGA_HDMI/Controller_switch*%
X87140000Y-100000000D03*
%TO.P,U2,3,pio3*%
%TO.N,/FPGA_HDMI/BTN_up_l*%
X89680000Y-100000000D03*
%TO.P,U2,4,pio4*%
%TO.N,/FPGA_HDMI/BTN_down_l*%
X92220000Y-100000000D03*
%TO.P,U2,5,pio5*%
%TO.N,/FPGA_HDMI/BTN_up_r*%
X94760000Y-100000000D03*
%TO.P,U2,6,pio6*%
%TO.N,/FPGA_HDMI/BTN_down_r*%
X97300000Y-100000000D03*
%TO.P,U2,7,pio7*%
%TO.N,/FPGA_HDMI/Trigger_l*%
X99840000Y-100000000D03*
%TO.P,U2,8,pio8*%
%TO.N,/FPGA_HDMI/Sensor_l*%
X102380000Y-100000000D03*
%TO.P,U2,9,pio9*%
%TO.N,/FPGA_HDMI/Trigger_r*%
X104920000Y-100000000D03*
%TO.P,U2,10,pio10*%
%TO.N,/FPGA_HDMI/Sensor_r*%
X107460000Y-100000000D03*
%TO.P,U2,11,pio11*%
%TO.N,Net-(J9-Pin_1)*%
X110000000Y-100000000D03*
%TO.P,U2,12,pio12*%
%TO.N,Net-(J9-Pin_2)*%
X112540000Y-100000000D03*
%TO.P,U2,13,pio13*%
%TO.N,Net-(J9-Pin_3)*%
X115080000Y-100000000D03*
%TO.P,U2,14,pio14*%
%TO.N,Net-(J9-Pin_4)*%
X117620000Y-100000000D03*
%TO.P,U2,15,pio15*%
%TO.N,Net-(J9-Pin_5)*%
X120160000Y-100000000D03*
%TO.P,U2,16,pio16*%
%TO.N,Net-(J9-Pin_6)*%
X122700000Y-100000000D03*
%TO.P,U2,17,pio17*%
%TO.N,Net-(J9-Pin_7)*%
X125240000Y-100000000D03*
%TO.P,U2,18,pio18*%
%TO.N,Net-(J9-Pin_8)*%
X127780000Y-100000000D03*
%TO.P,U2,19,pio19*%
%TO.N,Net-(J9-Pin_9)*%
X130320000Y-100000000D03*
%TO.P,U2,20,pio20*%
%TO.N,Net-(J9-Pin_10)*%
X132860000Y-100000000D03*
%TO.P,U2,21,pio21*%
%TO.N,Net-(J9-Pin_11)*%
X135400000Y-100000000D03*
%TO.P,U2,22,pio22*%
%TO.N,Net-(J9-Pin_12)*%
X137940000Y-100000000D03*
%TO.P,U2,23,pio23*%
%TO.N,Net-(J9-Pin_13)*%
X140480000Y-100000000D03*
%TO.P,U2,24,VU*%
%TO.N,VU*%
X143020000Y-100000000D03*
%TO.P,U2,25,GND*%
%TO.N,GND*%
X143020000Y-84760000D03*
%TO.P,U2,26,pio26*%
%TO.N,unconnected-(U2-pio26-Pad26)*%
X140480000Y-84760000D03*
%TO.P,U2,27,pio27*%
%TO.N,unconnected-(U2-pio27-Pad27)*%
X137940000Y-84760000D03*
%TO.P,U2,28,pio28*%
%TO.N,unconnected-(U2-pio28-Pad28)*%
X135400000Y-84760000D03*
%TO.P,U2,29,pio29*%
%TO.N,unconnected-(U2-pio29-Pad29)*%
X132860000Y-84760000D03*
%TO.P,U2,30,pio30*%
%TO.N,Hdmil_DDC_data*%
X130320000Y-84760000D03*
%TO.P,U2,31,pio31*%
%TO.N,Hdmi_DDC_dlk*%
X127780000Y-84760000D03*
%TO.P,U2,32,pio32*%
%TO.N,Hdmi_CEC*%
X125240000Y-84760000D03*
%TO.P,U2,33,pio33*%
%TO.N,Hdmi_out_hpd*%
X122700000Y-84760000D03*
%TO.P,U2,34,pio34*%
%TO.N,Hdmi_out_clk-*%
X120160000Y-84760000D03*
%TO.P,U2,35,pio35*%
%TO.N,Hdmi_out_clk+*%
X117620000Y-84760000D03*
%TO.P,U2,36,pio36*%
%TO.N,Hdmi_out_data_0+*%
X115080000Y-84760000D03*
%TO.P,U2,37,pio37*%
%TO.N,Hdmi_out_data_0-*%
X112540000Y-84760000D03*
%TO.P,U2,38,pio38*%
%TO.N,Hdmi_out_data_1+*%
X110000000Y-84760000D03*
%TO.P,U2,39,pio39*%
%TO.N,Hdmi_out_data_1-*%
X107460000Y-84760000D03*
%TO.P,U2,40,pio40*%
%TO.N,Hdmi_out_data_2-*%
X104920000Y-84760000D03*
%TO.P,U2,41,pio41*%
%TO.N,Hdmi_out_data_2+*%
X102380000Y-84760000D03*
%TO.P,U2,42,pio42*%
%TO.N,Net-(J11-Pin_8)*%
X99840000Y-84760000D03*
%TO.P,U2,43,pio43*%
%TO.N,Net-(J11-Pin_7)*%
X97300000Y-84760000D03*
%TO.P,U2,44,pio44*%
%TO.N,Net-(J11-Pin_6)*%
X94760000Y-84760000D03*
%TO.P,U2,45,pio45*%
%TO.N,Net-(J11-Pin_5)*%
X92220000Y-84760000D03*
%TO.P,U2,46,pio46*%
%TO.N,Net-(J11-Pin_4)*%
X89680000Y-84760000D03*
%TO.P,U2,47,pio47*%
%TO.N,Net-(J11-Pin_3)*%
X87140000Y-84760000D03*
%TO.P,U2,48,pio48*%
%TO.N,Net-(J11-Pin_2)*%
X84600000Y-84760000D03*
%TD*%
D14*
%TO.P,RV6,1*%
%TO.N,Net-(R19-Pad2)*%
X87150000Y-127580000D03*
%TO.P,RV6,2*%
%TO.N,GND*%
X85500000Y-127580000D03*
%TD*%
D43*
%TO.P,L5,1,1*%
%TO.N,/3v3-PSU/3.3v_unfilterd*%
X76970000Y-75115000D03*
%TO.P,L5,2,2*%
%TO.N,+3.3V*%
X79020000Y-75115000D03*
%TD*%
D16*
%TO.P,R18,1*%
%TO.N,+3.3V*%
X144500000Y-62500000D03*
%TO.P,R18,2*%
%TO.N,/SignalBuffer/GameReset*%
X144500000Y-64150000D03*
%TD*%
D44*
%TO.P,D1,1,K*%
%TO.N,/5v-PSU/v-in*%
X91600000Y-69950000D03*
%TO.P,D1,2,A*%
%TO.N,/power_fused*%
X97000000Y-69950000D03*
%TD*%
D12*
%TO.P,D6,1,A1*%
%TO.N,+5V*%
X140000000Y-127000000D03*
%TO.P,D6,2,A2*%
%TO.N,GND*%
X140000000Y-123000000D03*
%TD*%
D11*
%TO.P,C9,1*%
%TO.N,+5V*%
X75125000Y-58000000D03*
%TO.P,C9,2*%
%TO.N,GND*%
X75125000Y-56450000D03*
%TD*%
D35*
%TO.P,J8,1,Pin_1*%
%TO.N,/SignalBuffer/GameReset*%
X149972500Y-64540000D03*
D36*
%TO.P,J8,2,Pin_2*%
%TO.N,GND*%
X149972500Y-59460000D03*
%TD*%
D25*
%TO.P,R11,1*%
%TO.N,/SignalBuffer/ButtonDown1*%
X75500000Y-121150000D03*
%TO.P,R11,2*%
%TO.N,Net-(R11-Pad2)*%
X75500000Y-119500000D03*
%TD*%
D45*
%TO.P,C6,1*%
%TO.N,Net-(U1-VCC)*%
X79225000Y-60000000D03*
%TO.P,C6,2*%
%TO.N,GND*%
X79225000Y-61725000D03*
%TD*%
D22*
%TO.P,C3,1*%
%TO.N,/5v-PSU/V-in_filtered*%
X80625000Y-52750000D03*
%TO.P,C3,2*%
%TO.N,GND*%
X80625000Y-50675000D03*
%TD*%
D34*
%TO.P,U6,1*%
%TO.N,/SignalBuffer/ButtonUp2*%
X139350000Y-116950000D03*
%TO.P,U6,2,GND*%
%TO.N,GND*%
X139350000Y-116000000D03*
%TO.P,U6,3*%
%TO.N,/SignalBuffer/ButtonDown2*%
X139350000Y-115050000D03*
%TO.P,U6,4*%
%TO.N,/FPGA_HDMI/BTN_down_l*%
X136650000Y-115050000D03*
%TO.P,U6,5,VCC*%
%TO.N,+3.3V*%
X136650000Y-116000000D03*
%TO.P,U6,6*%
%TO.N,/FPGA_HDMI/BTN_up_l*%
X136650000Y-116950000D03*
%TD*%
D10*
%TO.P,RV9,1*%
%TO.N,Net-(R22-Pad2)*%
X122350000Y-127500000D03*
%TO.P,RV9,2*%
%TO.N,GND*%
X124000000Y-127500000D03*
%TD*%
D16*
%TO.P,R1,1*%
%TO.N,/5v-PSU/FB_5V*%
X80875000Y-60100000D03*
%TO.P,R1,2*%
%TO.N,+5V*%
X80875000Y-61750000D03*
%TD*%
D15*
%TO.P,C17,1*%
%TO.N,+5V*%
X69200000Y-71833750D03*
%TO.P,C17,2*%
%TO.N,GND*%
X69200000Y-73383750D03*
%TD*%
D25*
%TO.P,R23,1*%
%TO.N,/SignalBuffer/GameReset*%
X146000000Y-64150000D03*
%TO.P,R23,2*%
%TO.N,Net-(R23-Pad2)*%
X146000000Y-62500000D03*
%TD*%
D37*
%TO.P,J6,1,Pin_1*%
%TO.N,/SignalBuffer/Echo1*%
X79680000Y-133822500D03*
D38*
%TO.P,J6,2,Pin_2*%
%TO.N,GND*%
X84760000Y-133822500D03*
%TO.P,J6,3,Pin_3*%
%TO.N,/SignalBuffer/Trigger1_buffered*%
X89840000Y-133822500D03*
%TO.P,J6,4,Pin_4*%
%TO.N,+3.3V*%
X94920000Y-133822500D03*
%TO.P,J6,5,Pin_5*%
%TO.N,+5V*%
X100000000Y-133822500D03*
%TD*%
D46*
%TO.P,J3,1,Pin_1*%
%TO.N,/SignalBuffer/ButtonUp1*%
X70177500Y-111000000D03*
D36*
%TO.P,J3,2,Pin_2*%
%TO.N,GND*%
X70177500Y-116080000D03*
%TO.P,J3,3,Pin_3*%
%TO.N,/SignalBuffer/ButtonDown1*%
X70177500Y-121160000D03*
%TD*%
D17*
%TO.P,H3,1,1*%
%TO.N,GND*%
X62600000Y-139000000D03*
X63302944Y-137302944D03*
X63302944Y-140697056D03*
X65000000Y-136600000D03*
D18*
X65000000Y-139000000D03*
D17*
X65000000Y-141400000D03*
X66697056Y-137302944D03*
X66697056Y-140697056D03*
X67400000Y-139000000D03*
%TD*%
D11*
%TO.P,C25,1*%
%TO.N,+5V*%
X143000000Y-127775000D03*
%TO.P,C25,2*%
%TO.N,GND*%
X143000000Y-126225000D03*
%TD*%
D25*
%TO.P,R9,1*%
%TO.N,+3.3V*%
X143000000Y-121650000D03*
%TO.P,R9,2*%
%TO.N,/SignalBuffer/ButtonUp2*%
X143000000Y-120000000D03*
%TD*%
D15*
%TO.P,C10,1*%
%TO.N,+5V*%
X131995000Y-74312500D03*
%TO.P,C10,2*%
%TO.N,GND*%
X131995000Y-75862500D03*
%TD*%
D47*
%TO.P,C21,1*%
%TO.N,+3.3V*%
X81000000Y-77000000D03*
%TO.P,C21,2*%
%TO.N,GND*%
X81000000Y-80125000D03*
%TD*%
D48*
%TO.P,U4,1,IN*%
%TO.N,+5V*%
X70690000Y-71717500D03*
%TO.P,U4,2,GND*%
%TO.N,GND*%
X70690000Y-72217500D03*
%TO.P,U4,3,EN*%
%TO.N,+5V*%
X70690000Y-72717500D03*
%TO.P,U4,4,MODE*%
%TO.N,unconnected-(U4-MODE-Pad4)*%
X70690000Y-73217500D03*
%TO.P,U4,5,PGOOD*%
%TO.N,/3v3-PSU/P_GOOD_3v3*%
X72690000Y-73217500D03*
%TO.P,U4,6,FB*%
%TO.N,/3v3-PSU/FB_3.3v*%
X72690000Y-72717500D03*
%TO.P,U4,7,OUTSNS*%
%TO.N,/3v3-PSU/3.3v_unfilterd*%
X72690000Y-72217500D03*
%TO.P,U4,8,LX*%
%TO.N,/3v3-PSU/LX_3.3v*%
X72690000Y-71717500D03*
D49*
%TO.P,U4,9,EP*%
%TO.N,GND*%
X71690000Y-72467500D03*
%TD*%
D16*
%TO.P,R8,1*%
%TO.N,+3.3V*%
X143000000Y-110850000D03*
%TO.P,R8,2*%
%TO.N,/SignalBuffer/ButtonDown2*%
X143000000Y-112500000D03*
%TD*%
D25*
%TO.P,R14,1*%
%TO.N,/SignalBuffer/ButtonUp2*%
X144500000Y-121650000D03*
%TO.P,R14,2*%
%TO.N,Net-(R14-Pad2)*%
X144500000Y-120000000D03*
%TD*%
D50*
%TO.P,L4,1,1*%
%TO.N,/3v3-PSU/LX_3.3v*%
X75440000Y-70967500D03*
%TO.P,L4,2,2*%
%TO.N,/3v3-PSU/3.3v_unfilterd*%
X75440000Y-73117500D03*
%TD*%
D39*
%TO.P,U7,1*%
%TO.N,/SignalBuffer/Echo1*%
X84050000Y-122430000D03*
%TO.P,U7,2,GND*%
%TO.N,GND*%
X85000000Y-122430000D03*
%TO.P,U7,3*%
%TO.N,/FPGA_HDMI/Trigger_l*%
X85950000Y-122430000D03*
%TO.P,U7,4*%
%TO.N,/SignalBuffer/Trigger1_buffered*%
X85950000Y-119730000D03*
%TO.P,U7,5,VCC*%
%TO.N,+3.3V*%
X85000000Y-119730000D03*
%TO.P,U7,6*%
%TO.N,/FPGA_HDMI/Sensor_l*%
X84050000Y-119730000D03*
%TD*%
D25*
%TO.P,R10,1*%
%TO.N,+3.3V*%
X144500000Y-78000000D03*
%TO.P,R10,2*%
%TO.N,/SignalBuffer/ControllerSelect*%
X144500000Y-76350000D03*
%TD*%
D10*
%TO.P,R16,1*%
%TO.N,+3.3V*%
X79350000Y-126080000D03*
%TO.P,R16,2*%
%TO.N,/SignalBuffer/Echo1*%
X81000000Y-126080000D03*
%TD*%
D17*
%TO.P,H1,1,1*%
%TO.N,GND*%
X62600000Y-49000000D03*
X63302944Y-47302944D03*
X63302944Y-50697056D03*
X65000000Y-46600000D03*
D18*
X65000000Y-49000000D03*
D17*
X65000000Y-51400000D03*
X66697056Y-47302944D03*
X66697056Y-50697056D03*
X67400000Y-49000000D03*
%TD*%
D51*
%TO.P,L3,1,1*%
%TO.N,+5V*%
X141150000Y-106650000D03*
%TO.P,L3,2,2*%
%TO.N,VU*%
X141150000Y-104600000D03*
%TD*%
D16*
%TO.P,RV3,1*%
%TO.N,Net-(R13-Pad2)*%
X144500000Y-113850000D03*
%TO.P,RV3,2*%
%TO.N,GND*%
X144500000Y-115500000D03*
%TD*%
D52*
%TO.P,D2,1,A1*%
%TO.N,/5v-PSU/v-in*%
X92000000Y-65350000D03*
%TO.P,D2,2,A2*%
%TO.N,GND*%
X92000000Y-59950000D03*
%TD*%
D53*
%TO.P,J1,1,Pin_1*%
%TO.N,/power_in*%
X97000000Y-54027500D03*
D38*
%TO.P,J1,2,Pin_2*%
%TO.N,GND*%
X91920000Y-54027500D03*
%TD*%
D54*
%TO.P,U3,1,CE_REMOTE_IN*%
%TO.N,Hdmi_CEC*%
X125425000Y-70862500D03*
%TO.P,U3,2,DDC_CLK_IN*%
%TO.N,Hdmi_DDC_dlk*%
X126075000Y-70862500D03*
%TO.P,U3,3,DDC_DAT_IN*%
%TO.N,Hdmil_DDC_data*%
X126725000Y-70862500D03*
%TO.P,U3,4,HOTPLUG_DET_IN*%
%TO.N,Hdmi_out_hpd*%
X127375000Y-70862500D03*
%TO.P,U3,5,LS_OE*%
%TO.N,+3.3V*%
X128025000Y-70862500D03*
%TO.P,U3,6,GND*%
%TO.N,GND*%
X128675000Y-70862500D03*
%TO.P,U3,7,CE_REMOTE_OUT*%
%TO.N,/FPGA_HDMI/CEC*%
X129325000Y-70862500D03*
%TO.P,U3,8,DDC_CLK_OUT*%
%TO.N,/FPGA_HDMI/DDC_CLK*%
X129975000Y-70862500D03*
%TO.P,U3,9,DDC_DAT_OUT*%
%TO.N,/FPGA_HDMI/DDC_SDA*%
X130625000Y-70862500D03*
%TO.P,U3,10,HOTPLUG_DET_OUT*%
%TO.N,/FPGA_HDMI/HPD*%
X131275000Y-70862500D03*
%TO.P,U3,11,5V_SUPPLY*%
%TO.N,+5V*%
X131925000Y-70862500D03*
%TO.P,U3,12,CT_HPD*%
%TO.N,+3.3V*%
X132575000Y-70862500D03*
%TO.P,U3,13,5V_OUT*%
%TO.N,/FPGA_HDMI/HDMI_5v*%
X132575000Y-65137500D03*
%TO.P,U3,14,GND*%
%TO.N,GND*%
X131925000Y-65137500D03*
%TO.P,U3,15,TMDS_CK-*%
%TO.N,Hdmi_out_clk-*%
X131275000Y-65137500D03*
%TO.P,U3,16,TMDS_CK+*%
%TO.N,Hdmi_out_clk+*%
X130625000Y-65137500D03*
%TO.P,U3,17,TMDS_D0-*%
%TO.N,Hdmi_out_data_0-*%
X129975000Y-65137500D03*
%TO.P,U3,18,TMDS_D0+*%
%TO.N,Hdmi_out_data_0+*%
X129325000Y-65137500D03*
%TO.P,U3,19,GND*%
%TO.N,GND*%
X128675000Y-65137500D03*
%TO.P,U3,20,TMDS_D1-*%
%TO.N,Hdmi_out_data_1-*%
X128025000Y-65137500D03*
%TO.P,U3,21,TMDS_D1+*%
%TO.N,Hdmi_out_data_1+*%
X127375000Y-65137500D03*
%TO.P,U3,22,TMDS_D2-*%
%TO.N,Hdmi_out_data_2-*%
X126725000Y-65137500D03*
%TO.P,U3,23,TMDS_D2+*%
%TO.N,Hdmi_out_data_2+*%
X126075000Y-65137500D03*
%TO.P,U3,24,LV_SUPPLY*%
%TO.N,+3.3V*%
X125425000Y-65137500D03*
%TD*%
D55*
%TO.N,GND*%
X85500000Y-128830000D03*
X137500000Y-141500000D03*
X90000000Y-47500000D03*
X107500000Y-141500000D03*
X79225000Y-62900000D03*
X82500000Y-141500000D03*
X107500000Y-67500000D03*
X145750000Y-115500000D03*
X62500000Y-127500000D03*
X73125000Y-53300000D03*
X130700000Y-75900000D03*
X157500000Y-55000000D03*
X137000000Y-110750000D03*
X62500000Y-100000000D03*
X140000000Y-124800000D03*
X110000000Y-57500000D03*
X142500000Y-47500000D03*
X128700000Y-63400000D03*
X76125000Y-56400000D03*
X69025000Y-54900000D03*
X100000000Y-75000000D03*
X62500000Y-117500000D03*
X157500000Y-102500000D03*
X157500000Y-80000000D03*
X84000000Y-128830000D03*
X62500000Y-82500000D03*
X157500000Y-92500000D03*
X127500000Y-141500000D03*
X145750000Y-117000000D03*
X62500000Y-107500000D03*
X110000000Y-141500000D03*
X125500000Y-128750000D03*
X135000000Y-121000000D03*
X157500000Y-130000000D03*
X94000000Y-60000000D03*
X70620000Y-74765000D03*
X79000000Y-116000000D03*
X132100000Y-63500000D03*
X127500000Y-47500000D03*
X85000000Y-47500000D03*
X157500000Y-112500000D03*
X157500000Y-97500000D03*
X69670000Y-77315000D03*
X157500000Y-100000000D03*
X157500000Y-60000000D03*
X78425000Y-49400000D03*
X80770000Y-78515000D03*
X121800000Y-63200000D03*
X62500000Y-87500000D03*
X80625000Y-49400000D03*
X71690000Y-73765000D03*
X95000000Y-121080000D03*
X70000000Y-47500000D03*
X157500000Y-72500000D03*
X70000000Y-67500000D03*
X140000000Y-141500000D03*
X62500000Y-132500000D03*
X62500000Y-112500000D03*
X62500000Y-102500000D03*
X70625000Y-56200000D03*
X85000000Y-141500000D03*
X110000000Y-136850000D03*
X62500000Y-65000000D03*
X85000000Y-124080000D03*
X78425000Y-56500000D03*
X112500000Y-141500000D03*
X157500000Y-120000000D03*
X62500000Y-75000000D03*
X84425000Y-50700000D03*
X79825000Y-56100000D03*
X62500000Y-92500000D03*
X75000000Y-141500000D03*
X157500000Y-67500000D03*
X62500000Y-67500000D03*
X129500000Y-51700000D03*
X140000000Y-121000000D03*
X144350000Y-126250000D03*
X110000000Y-62500000D03*
X157500000Y-77500000D03*
X133400000Y-59900000D03*
X128675000Y-66700000D03*
X146000000Y-72400000D03*
X101500000Y-123080000D03*
X74250000Y-115000000D03*
X93500000Y-123080000D03*
X128725000Y-72100000D03*
X124375000Y-114625000D03*
X62500000Y-77500000D03*
X110000000Y-50000000D03*
X91250000Y-57500000D03*
X75000000Y-67500000D03*
X157500000Y-107500000D03*
X145000000Y-68500000D03*
X79020000Y-79765000D03*
X132000000Y-77100000D03*
X95000000Y-47500000D03*
X62500000Y-97500000D03*
X145825000Y-104550000D03*
X80000000Y-141500000D03*
X138000000Y-110750000D03*
X75820000Y-78515000D03*
X157500000Y-117500000D03*
X74250000Y-116500000D03*
X138850000Y-71600000D03*
X145000000Y-47500000D03*
X117500000Y-141500000D03*
X157500000Y-87500000D03*
X97500000Y-92500000D03*
X100000000Y-121080000D03*
X107500000Y-47500000D03*
X157500000Y-80000000D03*
X95000000Y-141500000D03*
X62500000Y-90000000D03*
X105000000Y-70000000D03*
X145825000Y-102550000D03*
X157500000Y-122500000D03*
X131600000Y-116000000D03*
X141000000Y-116000000D03*
X157500000Y-65000000D03*
X90000000Y-59950000D03*
X157500000Y-95000000D03*
X82925000Y-49400000D03*
X111800000Y-135500000D03*
X62500000Y-130000000D03*
X72500000Y-141500000D03*
X157500000Y-70000000D03*
X110000000Y-60000000D03*
X136200000Y-109250000D03*
X133400000Y-75900000D03*
X75000000Y-47500000D03*
X105000000Y-141500000D03*
X102500000Y-92500000D03*
X62500000Y-72500000D03*
X62500000Y-62500000D03*
X100000000Y-92500000D03*
X70620000Y-75715000D03*
X110000000Y-65000000D03*
X82500000Y-47500000D03*
X82500000Y-67500000D03*
X157500000Y-110000000D03*
X140000000Y-47500000D03*
X146000000Y-58500000D03*
X62500000Y-125000000D03*
X112500000Y-47500000D03*
X137500000Y-123000000D03*
X62500000Y-80000000D03*
X92500000Y-57500000D03*
X81020000Y-81415000D03*
X136200000Y-110200000D03*
X123100000Y-64300000D03*
X62500000Y-122500000D03*
X92000000Y-124800000D03*
X135000000Y-124800000D03*
X92500000Y-47500000D03*
X132500000Y-51700000D03*
X108100000Y-135500000D03*
X141500000Y-123000000D03*
X90000000Y-58750000D03*
X157500000Y-57500000D03*
X145000000Y-141500000D03*
X77125000Y-56500000D03*
X157500000Y-115000000D03*
X77500000Y-47500000D03*
X92500000Y-141500000D03*
X133500000Y-123000000D03*
X102500000Y-141500000D03*
X110000000Y-52500000D03*
X88200000Y-117750000D03*
X72500000Y-47500000D03*
X115000000Y-47500000D03*
X157500000Y-90000000D03*
X74925000Y-54900000D03*
X157500000Y-105000000D03*
X102500000Y-47500000D03*
X85000000Y-67500000D03*
X77220000Y-79765000D03*
X62500000Y-55000000D03*
X62500000Y-105000000D03*
X62500000Y-70000000D03*
X130000000Y-47500000D03*
X110000000Y-55000000D03*
X126500000Y-51700000D03*
X110000000Y-134050000D03*
X142500000Y-141500000D03*
X76125000Y-49400000D03*
X97500000Y-141500000D03*
X157500000Y-82500000D03*
X105000000Y-47500000D03*
X94000000Y-58750000D03*
X125000000Y-51700000D03*
X157500000Y-127500000D03*
X110000000Y-47500000D03*
X62500000Y-85000000D03*
X90000000Y-61250000D03*
X69220000Y-74636250D03*
X102500000Y-72500000D03*
X62500000Y-95000000D03*
X62500000Y-115000000D03*
X62500000Y-120000000D03*
X87500000Y-47500000D03*
X100000000Y-141500000D03*
X94000000Y-61250000D03*
X117500000Y-47500000D03*
X135000000Y-141500000D03*
X80000000Y-47500000D03*
X132000000Y-124800000D03*
X157500000Y-62500000D03*
X124500000Y-124000000D03*
X97500000Y-47500000D03*
X95000000Y-124880000D03*
X87500000Y-141500000D03*
X62500000Y-57500000D03*
X100000000Y-124880000D03*
X115000000Y-141500000D03*
X62500000Y-110000000D03*
X97500000Y-123080000D03*
X120000000Y-141500000D03*
X77500000Y-141500000D03*
X100000000Y-47500000D03*
X122500000Y-141500000D03*
X90000000Y-141500000D03*
X157500000Y-75000000D03*
X110000000Y-92500000D03*
X145825000Y-106600000D03*
X132500000Y-47500000D03*
X71670000Y-70665000D03*
X88200000Y-116000000D03*
X157500000Y-125000000D03*
X128000000Y-51700000D03*
X147500000Y-141500000D03*
X79825000Y-57200000D03*
X124000000Y-128750000D03*
X147500000Y-47500000D03*
X72500000Y-67500000D03*
X125000000Y-47500000D03*
X62500000Y-60000000D03*
X131925000Y-66600000D03*
X102550000Y-124750000D03*
X123200000Y-62000000D03*
X70625000Y-53300000D03*
X77500000Y-67500000D03*
X132500000Y-141500000D03*
X97500000Y-77500000D03*
X125000000Y-141500000D03*
X130000000Y-141500000D03*
X105000000Y-92500000D03*
X112500000Y-92500000D03*
X157500000Y-132500000D03*
X97500000Y-80000000D03*
X157500000Y-85000000D03*
X107500000Y-92500000D03*
X74625000Y-50700000D03*
X132500000Y-55800000D03*
X80000000Y-67500000D03*
%TO.N,+5V*%
X73425000Y-56500000D03*
X143150000Y-107750000D03*
X66300000Y-60900000D03*
X66300000Y-61800000D03*
X143150000Y-108700000D03*
X80875000Y-62950000D03*
X133400000Y-74300000D03*
X66300000Y-62700000D03*
%TO.N,+3.3V*%
X83600000Y-77000000D03*
X142200000Y-72500000D03*
X120800000Y-123500000D03*
X128000000Y-72700000D03*
X139760001Y-118939999D03*
X132700000Y-72500000D03*
X82600000Y-77000000D03*
X124600000Y-62000000D03*
%TO.N,/FPGA_HDMI/HDMI_5v*%
X132700000Y-59100000D03*
X133675735Y-56024265D03*
%TO.N,Hdmi_out_data_1+*%
X108218141Y-83214141D03*
%TO.N,Hdmi_out_data_0+*%
X113304000Y-83200000D03*
%TO.N,/FPGA_HDMI/Sensor_l*%
X82900000Y-119700000D03*
X88900000Y-119700000D03*
%TO.N,Hdmi_out_hpd*%
X127375000Y-80000000D03*
%TO.N,/FPGA_HDMI/Trigger_l*%
X90900000Y-118800000D03*
X87300000Y-122400000D03*
%TO.N,/FPGA_HDMI/BTN_down_l*%
X110300000Y-103100000D03*
%TO.N,/FPGA_HDMI/Trigger_r*%
X121200000Y-119600000D03*
X125500000Y-123900000D03*
%TO.N,/FPGA_HDMI/BTN_down_r*%
X83400000Y-118100000D03*
X87050000Y-114450000D03*
%TO.N,/FPGA_HDMI/BTN_up_l*%
X112200000Y-104700000D03*
%TO.N,/3v3-PSU/P_GOOD_3v3*%
X72845000Y-73915000D03*
%TD*%
D56*
%TO.N,/5v-PSU/SW_5V*%
X77625000Y-64500000D02*
X77225000Y-64500000D01*
X75625000Y-62900000D02*
X75625000Y-62250000D01*
%TO.N,Net-(C1-Pad2)*%
X77625000Y-62775000D02*
X77625000Y-61250000D01*
D57*
%TO.N,GND*%
X82875000Y-50675000D02*
X84400000Y-50675000D01*
D58*
X100000000Y-123080000D02*
X100000000Y-124880000D01*
D56*
X128675000Y-72050000D02*
X128725000Y-72100000D01*
D59*
X132500000Y-51700000D02*
X132500000Y-55800000D01*
D56*
X131650000Y-116050000D02*
X131600000Y-116000000D01*
D57*
X92050000Y-60000000D02*
X92000000Y-59950000D01*
D59*
X71440000Y-72217500D02*
X71690000Y-72467500D01*
X77875000Y-56500000D02*
X77125000Y-56500000D01*
D60*
X110000000Y-135500000D02*
X111800000Y-135500000D01*
D57*
X80855000Y-57100000D02*
X80855000Y-57030000D01*
X80625000Y-50675000D02*
X80625000Y-49400000D01*
D58*
X145805000Y-104570000D02*
X145825000Y-104550000D01*
X100000000Y-123080000D02*
X100000000Y-121080000D01*
D56*
X124450000Y-114700000D02*
X124450000Y-115850000D01*
X80650000Y-116000000D02*
X79000000Y-116000000D01*
D60*
X137875000Y-109000000D02*
X137875000Y-109875000D01*
D59*
X131925000Y-66600000D02*
X131925000Y-65137500D01*
D56*
X132850000Y-116050000D02*
X131650000Y-116050000D01*
D57*
X78375000Y-50675000D02*
X78375000Y-49450000D01*
D58*
X140000000Y-123000000D02*
X141500000Y-123000000D01*
X135000000Y-123000000D02*
X135000000Y-124800000D01*
D57*
X76425000Y-56900000D02*
X77325000Y-56900000D01*
D58*
X95000000Y-123080000D02*
X95000000Y-124880000D01*
D59*
X129502956Y-53800000D02*
X129502956Y-51702956D01*
D57*
X76125000Y-50675000D02*
X74650000Y-50675000D01*
X79825000Y-56100000D02*
X78275000Y-56100000D01*
X92500000Y-57500000D02*
X92500000Y-58500000D01*
D60*
X138000000Y-110750000D02*
X137000000Y-110750000D01*
D58*
X75835000Y-78500000D02*
X75820000Y-78515000D01*
D57*
X80725000Y-57100000D02*
X80125000Y-56500000D01*
D60*
X138000000Y-109150000D02*
X137800000Y-108950000D01*
D61*
X132500000Y-53800000D02*
X132500000Y-51700000D01*
D56*
X124375000Y-114625000D02*
X124450000Y-114700000D01*
D58*
X135000000Y-123000000D02*
X137500000Y-123000000D01*
X79000000Y-78500000D02*
X80755000Y-78500000D01*
D57*
X74650000Y-50675000D02*
X74625000Y-50700000D01*
D58*
X145805000Y-102570000D02*
X145825000Y-102550000D01*
X140000000Y-123000000D02*
X140000000Y-121000000D01*
D57*
X75725000Y-56500000D02*
X76025000Y-56500000D01*
D56*
X128675000Y-70862500D02*
X128675000Y-72050000D01*
X143500000Y-68500000D02*
X145000000Y-68500000D01*
D57*
X91250000Y-57500000D02*
X91250000Y-58500000D01*
D58*
X81000000Y-81395000D02*
X81020000Y-81415000D01*
X140000000Y-123000000D02*
X137500000Y-123000000D01*
D57*
X86775000Y-116000000D02*
X88200000Y-116000000D01*
X76225000Y-56500000D02*
X76125000Y-56400000D01*
X94000000Y-61250000D02*
X92250000Y-61250000D01*
X70625000Y-54875000D02*
X70625000Y-53300000D01*
X75125000Y-55375000D02*
X74625000Y-54875000D01*
D56*
X125500000Y-127500000D02*
X124000000Y-127500000D01*
D59*
X125000000Y-53800000D02*
X125000000Y-51700000D01*
D57*
X75175000Y-56500000D02*
X75125000Y-56450000D01*
X91500000Y-58750000D02*
X90000000Y-58750000D01*
X82875000Y-49450000D02*
X82925000Y-49400000D01*
D58*
X79000000Y-79745000D02*
X79020000Y-79765000D01*
D60*
X136450000Y-109000000D02*
X136200000Y-109250000D01*
D58*
X80770000Y-79895000D02*
X81000000Y-80125000D01*
D57*
X78375000Y-57000000D02*
X77875000Y-56500000D01*
D60*
X143000000Y-126225000D02*
X144325000Y-126225000D01*
D57*
X82875000Y-50675000D02*
X82875000Y-49450000D01*
D56*
X75500000Y-115000000D02*
X75500000Y-116500000D01*
D59*
X76625000Y-55065000D02*
X75860000Y-55065000D01*
D57*
X80125000Y-56500000D02*
X78425000Y-56500000D01*
D60*
X137875000Y-109000000D02*
X137400000Y-109000000D01*
X137400000Y-109000000D02*
X136200000Y-110200000D01*
D57*
X79225000Y-61725000D02*
X79225000Y-62900000D01*
D56*
X144500000Y-117000000D02*
X145750000Y-117000000D01*
D57*
X74625000Y-54875000D02*
X74900000Y-54875000D01*
D59*
X79125000Y-55605000D02*
X78230000Y-56500000D01*
D57*
X73125000Y-54875000D02*
X74625000Y-54875000D01*
X92000000Y-60500000D02*
X91500000Y-61000000D01*
D56*
X84000000Y-127580000D02*
X85500000Y-127580000D01*
D58*
X71690000Y-70685000D02*
X71670000Y-70665000D01*
D60*
X137875000Y-110625000D02*
X138000000Y-110750000D01*
D58*
X71690000Y-72467500D02*
X71690000Y-70685000D01*
D57*
X76325000Y-55700000D02*
X76575000Y-55950000D01*
D60*
X136750000Y-110750000D02*
X136200000Y-110200000D01*
D58*
X70620000Y-75715000D02*
X71442500Y-75715000D01*
X71720000Y-74765000D02*
X70620000Y-74765000D01*
D59*
X77875000Y-56500000D02*
X78425000Y-56500000D01*
D58*
X135000000Y-123000000D02*
X135000000Y-121000000D01*
D57*
X90050000Y-59950000D02*
X92000000Y-59950000D01*
D58*
X81000000Y-80125000D02*
X81000000Y-81395000D01*
D57*
X94000000Y-58750000D02*
X92250000Y-58750000D01*
D60*
X103000000Y-125200000D02*
X102550000Y-124750000D01*
D58*
X71690000Y-73765000D02*
X71690000Y-74967500D01*
D61*
X132500000Y-53800000D02*
X132500000Y-55800000D01*
D57*
X75125000Y-55400000D02*
X75125000Y-55375000D01*
X79625000Y-57000000D02*
X78375000Y-57000000D01*
D58*
X144700000Y-102570000D02*
X145805000Y-102570000D01*
D56*
X123150000Y-63200000D02*
X123150000Y-64250000D01*
D59*
X70690000Y-72217500D02*
X71440000Y-72217500D01*
D56*
X123150000Y-62050000D02*
X123200000Y-62000000D01*
D59*
X129502956Y-51702956D02*
X129500000Y-51700000D01*
X78230000Y-56500000D02*
X77875000Y-56500000D01*
D60*
X137000000Y-110750000D02*
X136750000Y-110750000D01*
D56*
X130737500Y-75862500D02*
X130700000Y-75900000D01*
D58*
X80770000Y-78515000D02*
X80770000Y-79895000D01*
D61*
X128675000Y-65137500D02*
X128675000Y-63425000D01*
D57*
X74900000Y-54875000D02*
X74925000Y-54900000D01*
D58*
X69200000Y-73383750D02*
X69200000Y-74616250D01*
D57*
X79825000Y-57200000D02*
X80125000Y-56900000D01*
X70625000Y-54875000D02*
X73125000Y-54875000D01*
D56*
X123150000Y-63200000D02*
X121800000Y-63200000D01*
D58*
X77220000Y-78500000D02*
X75835000Y-78500000D01*
D57*
X76325000Y-55700000D02*
X75775000Y-55150000D01*
D56*
X146000000Y-73350000D02*
X146000000Y-72400000D01*
D60*
X110000000Y-135500000D02*
X110000000Y-134050000D01*
D57*
X69050000Y-54875000D02*
X69025000Y-54900000D01*
X76525000Y-56000000D02*
X75125000Y-56000000D01*
X80855000Y-57100000D02*
X80725000Y-57100000D01*
X75775000Y-55150000D02*
X75525000Y-54900000D01*
D60*
X137875000Y-109000000D02*
X136450000Y-109000000D01*
D56*
X124000000Y-127500000D02*
X124000000Y-128750000D01*
X131995000Y-77095000D02*
X132000000Y-77100000D01*
D57*
X86800000Y-117750000D02*
X88200000Y-117750000D01*
D56*
X133362500Y-75862500D02*
X133400000Y-75900000D01*
X131995000Y-75862500D02*
X133362500Y-75862500D01*
D57*
X80855000Y-57030000D02*
X79925000Y-56100000D01*
X79825000Y-57200000D02*
X79625000Y-57000000D01*
D61*
X128675000Y-66700000D02*
X128675000Y-65137500D01*
D57*
X75125000Y-55700000D02*
X75125000Y-55400000D01*
D58*
X80640000Y-79765000D02*
X81000000Y-80125000D01*
X69200000Y-74616250D02*
X69220000Y-74636250D01*
D60*
X137875000Y-109875000D02*
X137000000Y-110750000D01*
D56*
X123150000Y-64250000D02*
X123100000Y-64300000D01*
D57*
X77875000Y-56500000D02*
X76225000Y-56500000D01*
D60*
X110000000Y-135500000D02*
X110000000Y-136850000D01*
D58*
X95000000Y-123080000D02*
X93500000Y-123080000D01*
D59*
X75860000Y-55065000D02*
X75775000Y-55150000D01*
D60*
X137875000Y-109125000D02*
X137950000Y-109200000D01*
D56*
X144500000Y-115500000D02*
X144500000Y-117000000D01*
D58*
X100000000Y-123080000D02*
X97500000Y-123080000D01*
X77220000Y-78500000D02*
X79000000Y-78500000D01*
D59*
X79125000Y-55065000D02*
X79125000Y-55605000D01*
D57*
X75125000Y-55100000D02*
X74925000Y-54900000D01*
X78375000Y-49450000D02*
X78425000Y-49400000D01*
D56*
X138800000Y-71550000D02*
X138850000Y-71600000D01*
D58*
X144700000Y-106600000D02*
X145825000Y-106600000D01*
D57*
X76025000Y-56500000D02*
X75725000Y-56500000D01*
D56*
X85500000Y-127580000D02*
X85500000Y-128830000D01*
D57*
X75125000Y-55700000D02*
X76325000Y-55700000D01*
D58*
X79000000Y-78500000D02*
X79000000Y-79745000D01*
D59*
X131925000Y-65137500D02*
X131925000Y-63675000D01*
D57*
X76125000Y-56400000D02*
X76025000Y-56500000D01*
D58*
X79020000Y-79765000D02*
X80640000Y-79765000D01*
D60*
X136800000Y-108650000D02*
X137800000Y-108650000D01*
D59*
X76625000Y-55065000D02*
X76625000Y-55605000D01*
D60*
X137875000Y-109000000D02*
X137875000Y-109125000D01*
D58*
X95000000Y-123080000D02*
X95000000Y-121080000D01*
D56*
X85000000Y-122430000D02*
X85000000Y-124080000D01*
D57*
X92000000Y-59950000D02*
X92000000Y-59250000D01*
D58*
X144700000Y-106600000D02*
X144700000Y-102570000D01*
D57*
X94000000Y-60000000D02*
X92050000Y-60000000D01*
D56*
X84000000Y-127580000D02*
X84000000Y-128830000D01*
D57*
X75725000Y-55100000D02*
X75775000Y-55150000D01*
X75125000Y-56000000D02*
X75125000Y-55700000D01*
X84400000Y-50675000D02*
X84425000Y-50700000D01*
D58*
X95000000Y-123080000D02*
X97500000Y-123080000D01*
D60*
X103000000Y-126225000D02*
X103000000Y-125200000D01*
D57*
X80125000Y-56900000D02*
X80125000Y-56500000D01*
D60*
X136200000Y-110200000D02*
X136200000Y-109250000D01*
D57*
X90000000Y-61250000D02*
X91750000Y-61250000D01*
D58*
X71940000Y-75217500D02*
X71940000Y-74985000D01*
D60*
X132000000Y-126225000D02*
X132000000Y-124800000D01*
X138000000Y-110750000D02*
X138000000Y-109150000D01*
D57*
X75525000Y-54900000D02*
X74925000Y-54900000D01*
D56*
X138800000Y-70400000D02*
X138800000Y-71550000D01*
D58*
X71690000Y-72467500D02*
X71690000Y-73765000D01*
D56*
X124500000Y-122350000D02*
X124500000Y-124000000D01*
X131995000Y-75862500D02*
X131995000Y-77095000D01*
D57*
X70625000Y-54875000D02*
X69050000Y-54875000D01*
X78275000Y-56100000D02*
X77875000Y-56500000D01*
D56*
X131995000Y-75862500D02*
X130737500Y-75862500D01*
D57*
X80855000Y-57100000D02*
X79925000Y-57100000D01*
D58*
X100000000Y-123080000D02*
X101500000Y-123080000D01*
D59*
X128000000Y-53800000D02*
X128000000Y-51700000D01*
D56*
X125500000Y-127500000D02*
X125500000Y-128750000D01*
D60*
X136200000Y-109250000D02*
X136800000Y-108650000D01*
D57*
X76025000Y-56500000D02*
X76425000Y-56900000D01*
D59*
X131925000Y-63675000D02*
X132100000Y-63500000D01*
D60*
X137875000Y-109000000D02*
X137875000Y-110625000D01*
D58*
X135000000Y-123000000D02*
X133500000Y-123000000D01*
D57*
X75125000Y-55400000D02*
X75125000Y-55100000D01*
D60*
X92000000Y-126225000D02*
X92000000Y-124800000D01*
D57*
X76125000Y-50675000D02*
X82875000Y-50675000D01*
X73125000Y-54875000D02*
X73125000Y-53300000D01*
D56*
X70845000Y-77315000D02*
X69670000Y-77315000D01*
X75500000Y-116500000D02*
X74250000Y-116500000D01*
D57*
X75125000Y-56450000D02*
X75125000Y-56000000D01*
X92000000Y-59950000D02*
X92000000Y-60500000D01*
D58*
X71690000Y-74967500D02*
X71940000Y-75217500D01*
D57*
X76125000Y-50675000D02*
X76125000Y-49400000D01*
X70625000Y-54875000D02*
X70625000Y-56200000D01*
D59*
X76625000Y-55605000D02*
X77520000Y-56500000D01*
D57*
X76575000Y-55950000D02*
X76525000Y-56000000D01*
D58*
X144700000Y-104570000D02*
X145805000Y-104570000D01*
X71442500Y-75715000D02*
X71940000Y-75217500D01*
D57*
X76575000Y-55950000D02*
X77125000Y-56500000D01*
D56*
X146000000Y-59500000D02*
X146000000Y-58500000D01*
D61*
X128675000Y-63425000D02*
X128700000Y-63400000D01*
D56*
X75500000Y-115000000D02*
X74250000Y-115000000D01*
D57*
X79925000Y-57100000D02*
X79825000Y-57200000D01*
X92000000Y-59250000D02*
X91500000Y-58750000D01*
D58*
X80755000Y-78500000D02*
X80770000Y-78515000D01*
X77220000Y-78500000D02*
X77220000Y-79765000D01*
D59*
X126500000Y-53800000D02*
X126500000Y-51700000D01*
X77520000Y-56500000D02*
X77875000Y-56500000D01*
D56*
X123150000Y-63200000D02*
X123150000Y-62050000D01*
D58*
X71940000Y-74985000D02*
X71720000Y-74765000D01*
D57*
X75725000Y-56500000D02*
X75175000Y-56500000D01*
X75125000Y-55100000D02*
X75725000Y-55100000D01*
D58*
X140000000Y-123000000D02*
X140000000Y-124800000D01*
D56*
X133400000Y-61350000D02*
X133400000Y-59900000D01*
D57*
X90000000Y-61250000D02*
X90700000Y-61250000D01*
D60*
X144325000Y-126225000D02*
X144350000Y-126250000D01*
D56*
X144500000Y-115500000D02*
X145750000Y-115500000D01*
D60*
X110000000Y-135500000D02*
X108100000Y-135500000D01*
D56*
X139350000Y-116000000D02*
X141000000Y-116000000D01*
D60*
%TO.N,/5v-PSU/v-in*%
X82957500Y-52832500D02*
X82875000Y-52750000D01*
X84250000Y-52750000D02*
X86000000Y-54500000D01*
X86000000Y-54500000D02*
X86000000Y-59500000D01*
D62*
X92000000Y-65350000D02*
X92000000Y-69550000D01*
X92000000Y-69550000D02*
X91600000Y-69950000D01*
D60*
X82875000Y-52750000D02*
X84250000Y-52750000D01*
X86000000Y-59500000D02*
X91350000Y-64850000D01*
X82957500Y-54605000D02*
X82957500Y-52832500D01*
X91350000Y-64850000D02*
X92000000Y-64850000D01*
%TO.N,/5v-PSU/V-in_filtered*%
X80625000Y-52750000D02*
X78375000Y-52750000D01*
X80907500Y-54605000D02*
X80907500Y-53032500D01*
X80907500Y-53032500D02*
X80625000Y-52750000D01*
D59*
%TO.N,Net-(U1-VCC)*%
X79225000Y-60000000D02*
X79225000Y-59711396D01*
X78125000Y-58611396D02*
X78125000Y-57935000D01*
X79225000Y-59711396D02*
X78125000Y-58611396D01*
D60*
%TO.N,+5V*%
X73225000Y-58100000D02*
X73125000Y-58000000D01*
D56*
X73425000Y-57700000D02*
X73125000Y-58000000D01*
D59*
X70690000Y-72717500D02*
X70083750Y-72717500D01*
D62*
X140000000Y-131000000D02*
X140000000Y-134000000D01*
D60*
X143000000Y-127775000D02*
X143000000Y-128000000D01*
X142000000Y-127775000D02*
X142000000Y-128000000D01*
D58*
X143150000Y-107750000D02*
X143150000Y-108700000D01*
D56*
X80875000Y-62950000D02*
X80875000Y-61750000D01*
D62*
X100000000Y-128500000D02*
X100000000Y-130500000D01*
D60*
X141775000Y-127775000D02*
X140500000Y-126500000D01*
X67750000Y-58000000D02*
X70625000Y-58000000D01*
X102000000Y-128500000D02*
X100000000Y-130500000D01*
D56*
X131925000Y-73100000D02*
X131925000Y-74242500D01*
D62*
X140000000Y-128500000D02*
X140000000Y-131000000D01*
D60*
X102725000Y-127775000D02*
X102000000Y-128500000D01*
D62*
X100000000Y-130500000D02*
X100000000Y-134080000D01*
D60*
X143150000Y-108700000D02*
X143150000Y-106600000D01*
D56*
X131925000Y-74242500D02*
X131995000Y-74312500D01*
D60*
X75125000Y-58000000D02*
X74525000Y-58000000D01*
X70075000Y-62250000D02*
X73225000Y-59100000D01*
X142000000Y-127775000D02*
X141775000Y-127775000D01*
X101775000Y-127775000D02*
X100500000Y-126500000D01*
D56*
X133387500Y-74312500D02*
X133400000Y-74300000D01*
D60*
X69200000Y-71700000D02*
X66300000Y-68800000D01*
D62*
X100000000Y-127080000D02*
X100000000Y-128500000D01*
D60*
X141900000Y-109000000D02*
X143150000Y-107750000D01*
X73225000Y-59100000D02*
X73225000Y-58100000D01*
D56*
X73425000Y-56500000D02*
X73425000Y-57700000D01*
D60*
X74525000Y-58000000D02*
X73125000Y-58000000D01*
D56*
X131995000Y-74312500D02*
X133387500Y-74312500D01*
D59*
X70083750Y-72717500D02*
X69200000Y-71833750D01*
D60*
X103000000Y-127775000D02*
X101775000Y-127775000D01*
X69200000Y-71833750D02*
X69200000Y-71700000D01*
X140750000Y-129250000D02*
X141250000Y-129750000D01*
X141250000Y-129750000D02*
X140000000Y-131000000D01*
X100000000Y-128500000D02*
X102000000Y-128500000D01*
X100580000Y-127080000D02*
X100000000Y-127080000D01*
X73225000Y-59100000D02*
X74325000Y-58000000D01*
X74325000Y-58000000D02*
X74525000Y-58000000D01*
D58*
X143150000Y-107750000D02*
X143150000Y-106600000D01*
D60*
X141000000Y-109000000D02*
X142850000Y-109000000D01*
X66300000Y-68800000D02*
X66300000Y-59450000D01*
X142850000Y-109000000D02*
X143150000Y-108700000D01*
X140000000Y-128500000D02*
X140750000Y-129250000D01*
D58*
X141200000Y-106600000D02*
X141150000Y-106650000D01*
D60*
X140000000Y-128500000D02*
X141500000Y-128500000D01*
X143000000Y-127775000D02*
X142000000Y-127775000D01*
X102000000Y-128500000D02*
X100580000Y-127080000D01*
X141500000Y-128500000D02*
X140000000Y-127000000D01*
D56*
X131925000Y-70862500D02*
X131925000Y-73100000D01*
D60*
X141000000Y-109000000D02*
X141900000Y-109000000D01*
X143000000Y-128000000D02*
X141250000Y-129750000D01*
X142000000Y-128000000D02*
X140750000Y-129250000D01*
X66300000Y-59450000D02*
X67750000Y-58000000D01*
X70625000Y-58000000D02*
X73125000Y-58000000D01*
D58*
X143150000Y-106600000D02*
X141200000Y-106600000D01*
D60*
X103000000Y-127775000D02*
X102725000Y-127775000D01*
D56*
%TO.N,+3.3V*%
X119350000Y-126000000D02*
X115750000Y-129600000D01*
X68150000Y-130000000D02*
X68150000Y-130850000D01*
D60*
X134920000Y-129920000D02*
X134920000Y-134000000D01*
X92000000Y-127775000D02*
X94305000Y-127775000D01*
D56*
X138800000Y-68850000D02*
X139150000Y-68500000D01*
X143000000Y-110850000D02*
X141970002Y-110850000D01*
X143000000Y-121650000D02*
X142470002Y-121650000D01*
X124500000Y-117450000D02*
X124450000Y-117400000D01*
D62*
X96150000Y-138800000D02*
X93600000Y-138800000D01*
D60*
X83800000Y-78500000D02*
X83800000Y-77400000D01*
X133225000Y-127775000D02*
X134775000Y-127775000D01*
X92000000Y-127775000D02*
X93225000Y-127775000D01*
D56*
X85000000Y-120650000D02*
X84570000Y-121080000D01*
X136650000Y-116000000D02*
X134450000Y-116000000D01*
D58*
X80950000Y-76950000D02*
X81000000Y-77000000D01*
D62*
X64600000Y-128200000D02*
X64600000Y-101200000D01*
D56*
X82000000Y-114820002D02*
X82000000Y-115750000D01*
X142200000Y-67900000D02*
X142200000Y-68000000D01*
X125425000Y-65137500D02*
X125425000Y-63925000D01*
X128025000Y-70862500D02*
X128025000Y-72675000D01*
D62*
X134920000Y-136780000D02*
X132900000Y-138800000D01*
D60*
X81000000Y-77000000D02*
X82300000Y-77000000D01*
X83400000Y-77000000D02*
X83900000Y-77500000D01*
D56*
X142200000Y-64800000D02*
X144500000Y-62500000D01*
X115750000Y-137500000D02*
X115300000Y-137950000D01*
X79350000Y-121480000D02*
X79750000Y-121080000D01*
X68100000Y-130050000D02*
X67500000Y-130050000D01*
D60*
X132000000Y-127775000D02*
X132000000Y-128000000D01*
D56*
X137750000Y-116000000D02*
X137429999Y-116000000D01*
X68175000Y-129975000D02*
X68150000Y-130000000D01*
X77070000Y-121080000D02*
X77000000Y-121150000D01*
D60*
X92000000Y-127775000D02*
X93112500Y-128887500D01*
D56*
X119350000Y-124970002D02*
X120360001Y-123960001D01*
D60*
X95000000Y-127080000D02*
X93192500Y-128887500D01*
D62*
X94920000Y-137570000D02*
X94830000Y-137570000D01*
D56*
X115750000Y-129600000D02*
X115750000Y-137150000D01*
X124700000Y-62100000D02*
X124600000Y-62000000D01*
D60*
X81000000Y-77000000D02*
X82900000Y-78900000D01*
D56*
X77529998Y-110350000D02*
X82000000Y-114820002D01*
D60*
X133225000Y-127775000D02*
X134500000Y-126500000D01*
D62*
X75200000Y-138800000D02*
X67175000Y-130775000D01*
D60*
X82300000Y-77000000D02*
X83800000Y-78500000D01*
D56*
X138000000Y-116250000D02*
X137750000Y-116000000D01*
X123320002Y-121000000D02*
X123929999Y-121000000D01*
X79350000Y-126080000D02*
X79350000Y-121480000D01*
D62*
X94920000Y-134080000D02*
X94920000Y-137570000D01*
X135000000Y-133920000D02*
X134920000Y-134000000D01*
D56*
X67500000Y-130050000D02*
X67250000Y-129800000D01*
X82000000Y-120730000D02*
X82000000Y-120780000D01*
X120800000Y-123520002D02*
X119350000Y-124970002D01*
D62*
X95000000Y-127080000D02*
X95000000Y-129000000D01*
D56*
X138000000Y-114820002D02*
X138000000Y-115500000D01*
X82250000Y-116000000D02*
X82570001Y-116000000D01*
X77000000Y-110350000D02*
X77529998Y-110350000D01*
D62*
X83400000Y-82400000D02*
X83400000Y-78800000D01*
D56*
X141714999Y-68500000D02*
X140800000Y-68500000D01*
D62*
X115750000Y-138800000D02*
X96150000Y-138800000D01*
D60*
X83800000Y-77400000D02*
X83400000Y-77000000D01*
D56*
X84570000Y-121080000D02*
X82300000Y-121080000D01*
D62*
X132900000Y-138800000D02*
X115750000Y-138800000D01*
D56*
X125425000Y-63925000D02*
X124700000Y-63200000D01*
D62*
X94920000Y-137570000D02*
X96150000Y-138800000D01*
D60*
X82900000Y-78900000D02*
X82900000Y-80000000D01*
D56*
X138000000Y-117179998D02*
X138000000Y-116750000D01*
D62*
X135000000Y-131000000D02*
X135000000Y-133920000D01*
D56*
X78950000Y-121080000D02*
X77070000Y-121080000D01*
X123929999Y-121000000D02*
X124500000Y-120429999D01*
X141714999Y-68500000D02*
X141714999Y-68485001D01*
X82000000Y-120780000D02*
X82300000Y-121080000D01*
X79350000Y-121480000D02*
X78950000Y-121080000D01*
X124500000Y-119650000D02*
X124500000Y-117450000D01*
X134450000Y-116000000D02*
X134400000Y-116050000D01*
X138000000Y-115750000D02*
X138000000Y-116750000D01*
D60*
X93225000Y-127775000D02*
X94500000Y-126500000D01*
D56*
X68150000Y-130000000D02*
X67500000Y-130000000D01*
X142200000Y-67900000D02*
X142200000Y-64800000D01*
X119350000Y-126000000D02*
X119350000Y-124970002D01*
D59*
X132575000Y-72375000D02*
X132700000Y-72500000D01*
D58*
X79000000Y-76950000D02*
X79000000Y-75135000D01*
D56*
X139150000Y-68500000D02*
X140800000Y-68500000D01*
D60*
X132775000Y-127775000D02*
X134920000Y-129920000D01*
D62*
X64600000Y-101200000D02*
X83400000Y-82400000D01*
X67175000Y-130775000D02*
X64600000Y-128200000D01*
D56*
X79750000Y-121080000D02*
X78950000Y-121080000D01*
X85000000Y-119730000D02*
X85000000Y-120650000D01*
X82570001Y-116000000D02*
X83350000Y-116000000D01*
X82000000Y-116500000D02*
X82000000Y-120350000D01*
X142200000Y-75700000D02*
X144500000Y-78000000D01*
D62*
X135000000Y-128000000D02*
X135000000Y-131000000D01*
D60*
X82300000Y-77000000D02*
X82600000Y-77000000D01*
D56*
X115750000Y-137150000D02*
X115750000Y-137500000D01*
X82000000Y-116500000D02*
X82000000Y-115750000D01*
X138000000Y-115750000D02*
X137750000Y-116000000D01*
D59*
X132575000Y-70862500D02*
X132575000Y-72375000D01*
D62*
X95000000Y-134000000D02*
X94920000Y-134080000D01*
D57*
X85000000Y-118000000D02*
X85000000Y-119730000D01*
D56*
X67375000Y-130775000D02*
X67175000Y-130775000D01*
X82000000Y-115750000D02*
X82250000Y-116000000D01*
X82000000Y-120350000D02*
X82000000Y-120730000D01*
X142200000Y-68985001D02*
X142200000Y-75700000D01*
X142200000Y-67900000D02*
X142200000Y-68200000D01*
D60*
X83900000Y-77500000D02*
X83900000Y-79000000D01*
D56*
X120360001Y-123960001D02*
X123320002Y-121000000D01*
D60*
X93192500Y-128887500D02*
X93112500Y-128887500D01*
X134775000Y-127775000D02*
X135000000Y-128000000D01*
X94305000Y-127775000D02*
X95000000Y-127080000D01*
D56*
X124700000Y-63200000D02*
X124700000Y-62100000D01*
X68175000Y-129975000D02*
X68100000Y-130050000D01*
X142200000Y-68200000D02*
X141900000Y-68500000D01*
X128025000Y-72675000D02*
X128000000Y-72700000D01*
D60*
X93112500Y-128887500D02*
X95000000Y-130775000D01*
X93305000Y-129000000D02*
X95000000Y-129000000D01*
D56*
X141900000Y-68500000D02*
X140800000Y-68500000D01*
X115750000Y-137150000D02*
X115750000Y-138800000D01*
D60*
X93192500Y-128887500D02*
X93305000Y-129000000D01*
D56*
X67500000Y-130000000D02*
X67400000Y-129900000D01*
X120800000Y-123500000D02*
X120800000Y-123520002D01*
X81650000Y-121080000D02*
X79750000Y-121080000D01*
D58*
X79000000Y-76950000D02*
X80950000Y-76950000D01*
D56*
X141714999Y-68485001D02*
X142200000Y-68000000D01*
X141970002Y-110850000D02*
X138000000Y-114820002D01*
D62*
X94830000Y-137570000D02*
X93600000Y-138800000D01*
D56*
X68175000Y-129975000D02*
X67375000Y-130775000D01*
X82000000Y-120350000D02*
X82000000Y-120650000D01*
D62*
X134920000Y-134000000D02*
X134920000Y-136780000D01*
D57*
X85250000Y-117750000D02*
X85000000Y-118000000D01*
D62*
X93600000Y-138800000D02*
X75200000Y-138800000D01*
D56*
X137429999Y-116000000D02*
X136650000Y-116000000D01*
X142200000Y-68000000D02*
X142200000Y-68985001D01*
D60*
X81000000Y-77000000D02*
X83400000Y-77000000D01*
D56*
X77000000Y-121150000D02*
X68175000Y-129975000D01*
X82300000Y-121080000D02*
X81650000Y-121080000D01*
D62*
X95000000Y-129000000D02*
X95000000Y-134000000D01*
D60*
X132000000Y-127775000D02*
X132775000Y-127775000D01*
X132000000Y-128000000D02*
X135000000Y-131000000D01*
D56*
X142470002Y-121650000D02*
X138000000Y-117179998D01*
X82000000Y-116500000D02*
X82000000Y-116250000D01*
X82000000Y-116250000D02*
X82250000Y-116000000D01*
X138000000Y-116750000D02*
X138000000Y-116250000D01*
X115750000Y-137500000D02*
X116300000Y-138050000D01*
D60*
X95000000Y-130775000D02*
X95000000Y-134000000D01*
D56*
X142200000Y-68985001D02*
X141714999Y-68500000D01*
X124500000Y-120429999D02*
X124500000Y-119650000D01*
D60*
X132000000Y-127775000D02*
X133225000Y-127775000D01*
D58*
X79000000Y-75135000D02*
X79020000Y-75115000D01*
D62*
X135000000Y-127000000D02*
X135000000Y-128000000D01*
D57*
X85225000Y-116000000D02*
X83350000Y-116000000D01*
D56*
X82000000Y-120730000D02*
X81650000Y-121080000D01*
X138000000Y-115500000D02*
X138000000Y-115750000D01*
D61*
%TO.N,/FPGA_HDMI/HDMI_5v*%
X132625000Y-59175000D02*
X132625000Y-62125000D01*
D59*
X132575000Y-64025000D02*
X133400000Y-63200000D01*
X132575000Y-65137500D02*
X132575000Y-64025000D01*
D61*
X133000000Y-53800000D02*
X133000000Y-55348530D01*
X132700000Y-59100000D02*
X132625000Y-59175000D01*
D59*
X133400000Y-63200000D02*
X133400000Y-62900000D01*
D61*
X132625000Y-62125000D02*
X133400000Y-62900000D01*
X133000000Y-55348530D02*
X133675735Y-56024265D01*
D58*
%TO.N,VU*%
X143150000Y-102570000D02*
X143150000Y-100130000D01*
X141150000Y-104600000D02*
X143120000Y-104600000D01*
X143150000Y-100130000D02*
X143020000Y-100000000D01*
X143150000Y-104570000D02*
X143150000Y-102570000D01*
X143120000Y-104600000D02*
X143150000Y-104570000D01*
%TO.N,/3v3-PSU/3.3v_unfilterd*%
X77220000Y-76950000D02*
X77220000Y-75365000D01*
D59*
X75570000Y-75722500D02*
X75065000Y-75217500D01*
D58*
X77220000Y-75365000D02*
X76970000Y-75115000D01*
D59*
X75570000Y-77315000D02*
X75570000Y-75722500D01*
D63*
%TO.N,Hdmi_out_data_1-*%
X110108421Y-77630991D02*
X110282554Y-77805124D01*
X108861000Y-79320000D02*
X108861000Y-79250000D01*
X109259892Y-78140109D02*
X108861000Y-78539000D01*
X127861000Y-60283312D02*
X126662478Y-59084790D01*
X128025000Y-65137500D02*
X128025000Y-64031249D01*
X108861000Y-79250000D02*
X108861000Y-79000000D01*
X110108422Y-77291579D02*
X110108421Y-77291579D01*
X110706817Y-77380858D02*
X110532687Y-77206728D01*
X107460000Y-84760000D02*
X108861000Y-83359000D01*
X107980000Y-81619000D02*
X107980000Y-81440000D01*
X108861000Y-78539000D02*
X108861000Y-79000000D01*
X128025000Y-64031249D02*
X127861000Y-63867249D01*
X109742000Y-80559000D02*
X109742000Y-80380000D01*
X127127690Y-67600000D02*
X119800000Y-67600000D01*
X108259500Y-81160500D02*
X108539000Y-81160500D01*
X128025000Y-65137500D02*
X128025000Y-66243751D01*
X126662478Y-56090479D02*
X127002956Y-55750001D01*
X110956951Y-76782461D02*
X111131082Y-76956592D01*
X109858289Y-78229390D02*
X109684157Y-78055258D01*
X111131081Y-77296004D02*
X111046229Y-77380857D01*
X127861000Y-66407751D02*
X127861000Y-66866690D01*
X119800000Y-67600000D02*
X110956951Y-76443049D01*
X110193277Y-77206727D02*
X110108422Y-77291579D01*
X126662478Y-59084790D02*
X126662478Y-56090479D01*
X128025000Y-66243751D02*
X127861000Y-66407751D01*
X108861000Y-83359000D02*
X108861000Y-82500000D01*
X108539000Y-81160500D02*
X109140500Y-81160500D01*
X110282553Y-78144536D02*
X110197701Y-78229389D01*
X127861000Y-63867249D02*
X127861000Y-60283312D01*
X108861000Y-79499000D02*
X108861000Y-79320000D01*
X127002956Y-55750001D02*
X127002956Y-53800000D01*
X109344747Y-78055257D02*
X109259892Y-78140109D01*
X127861000Y-66866690D02*
X127127690Y-67600000D01*
X110282554Y-77805124D02*
G75*
G02*
X110282524Y-78144506I-169654J-169676D01*
G01*
X108861000Y-82500000D02*
G75*
G03*
X108259500Y-81898500I-601500J0D01*
G01*
X111046229Y-77380857D02*
G75*
G02*
X110706794Y-77380881I-169729J169657D01*
G01*
X110956951Y-76443049D02*
G75*
G03*
X110956906Y-76782506I169749J-169751D01*
G01*
X111131082Y-76956592D02*
G75*
G02*
X111131083Y-77296007I-169682J-169708D01*
G01*
X109140500Y-79778500D02*
G75*
G02*
X108861000Y-79499000I0J279500D01*
G01*
X110532687Y-77206728D02*
G75*
G03*
X110193296Y-77206745I-169687J-169672D01*
G01*
X109140500Y-81160500D02*
G75*
G03*
X109742000Y-80559000I0J601500D01*
G01*
X110108421Y-77291579D02*
G75*
G03*
X110108406Y-77631006I169679J-169721D01*
G01*
X107980000Y-81440000D02*
G75*
G02*
X108259500Y-81160500I279500J0D01*
G01*
X109742000Y-80380000D02*
G75*
G03*
X109140500Y-79778500I-601500J0D01*
G01*
X110197701Y-78229389D02*
G75*
G02*
X109858295Y-78229385I-169701J169689D01*
G01*
X109684157Y-78055258D02*
G75*
G03*
X109344795Y-78055305I-169657J-169742D01*
G01*
X108259500Y-81898500D02*
G75*
G02*
X107980000Y-81619000I0J279500D01*
G01*
%TO.N,Hdmi_out_data_1+*%
X127375000Y-65137500D02*
X127375000Y-64031249D01*
X108218141Y-83214141D02*
X108539000Y-82893282D01*
X107658000Y-81619000D02*
X107658000Y-81440000D01*
X127539000Y-63867249D02*
X127539000Y-60416688D01*
X126340478Y-56090479D02*
X126000000Y-55750001D01*
X108539000Y-79499000D02*
X108539000Y-79320000D01*
X127539000Y-66407751D02*
X127375000Y-66243751D01*
X108539000Y-79250000D02*
X108539000Y-78405624D01*
X109420000Y-80559000D02*
X109420000Y-80380000D01*
X119666623Y-67278000D02*
X126994310Y-67278000D01*
X127539000Y-66733310D02*
X127539000Y-66407751D01*
X126000000Y-55750001D02*
X126000000Y-53800000D01*
X108259500Y-80838500D02*
X108539000Y-80838500D01*
X108539000Y-78405624D02*
X119666623Y-67278000D01*
X127375000Y-66243751D02*
X127375000Y-65137500D01*
X127375000Y-64031249D02*
X127539000Y-63867249D01*
X108539000Y-79320000D02*
X108539000Y-79250000D01*
X126340478Y-59218166D02*
X126340478Y-56090479D01*
X126994310Y-67278000D02*
X127539000Y-66733310D01*
X127539000Y-60416688D02*
X126340478Y-59218166D01*
X108539000Y-82893282D02*
X108539000Y-82500000D01*
X108539000Y-80838500D02*
X109140500Y-80838500D01*
X108259500Y-82220500D02*
G75*
G02*
X107658000Y-81619000I0J601500D01*
G01*
X109140500Y-80838500D02*
G75*
G03*
X109420000Y-80559000I0J279500D01*
G01*
X109140500Y-80100500D02*
G75*
G02*
X108539000Y-79499000I0J601500D01*
G01*
X109420000Y-80380000D02*
G75*
G03*
X109140500Y-80100500I-279500J0D01*
G01*
X108539000Y-82500000D02*
G75*
G03*
X108259500Y-82220500I-279500J0D01*
G01*
X107658000Y-81440000D02*
G75*
G02*
X108259500Y-80838500I601500J0D01*
G01*
%TO.N,Hdmi_out_clk-*%
X118729000Y-78989000D02*
X119641000Y-78989000D01*
X119051000Y-75504376D02*
X119051000Y-77000000D01*
X119051000Y-83651000D02*
X120160000Y-84760000D01*
X129661000Y-56505624D02*
X129661000Y-56089001D01*
X118729000Y-80709000D02*
X119641000Y-80709000D01*
X131275000Y-66243751D02*
X131111000Y-66407751D01*
X118139000Y-78989000D02*
X118729000Y-78989000D01*
X119051000Y-82750000D02*
X119051000Y-83651000D01*
X131275000Y-65137500D02*
X131275000Y-63836625D01*
X129661000Y-56089001D02*
X130000000Y-55750001D01*
X130000000Y-55750001D02*
X130000000Y-53800000D01*
X128694376Y-69561000D02*
X124994376Y-69561000D01*
X131275000Y-65137500D02*
X131275000Y-66243751D01*
X131500000Y-63611625D02*
X131500000Y-58344624D01*
X118139000Y-80709000D02*
X118729000Y-80709000D01*
X119641000Y-81891000D02*
X119320000Y-81891000D01*
X131275000Y-63836625D02*
X131500000Y-63611625D01*
X119320000Y-78451000D02*
X118139000Y-78451000D01*
X131500000Y-58344624D02*
X129661000Y-56505624D01*
X131111000Y-66407751D02*
X131111000Y-67144376D01*
X119320000Y-77269000D02*
X119641000Y-77269000D01*
X119641000Y-80171000D02*
X119051000Y-80171000D01*
X119051000Y-82160000D02*
X119051000Y-82750000D01*
X119051000Y-80171000D02*
X118139000Y-80171000D01*
X131111000Y-67144376D02*
X128694376Y-69561000D01*
X124994376Y-69561000D02*
X119051000Y-75504376D01*
X119641000Y-78451000D02*
X119320000Y-78451000D01*
X119641000Y-77269000D02*
G75*
G02*
X120232000Y-77860000I0J-591000D01*
G01*
X117870000Y-80440000D02*
G75*
G03*
X118139000Y-80709000I269000J0D01*
G01*
X120232000Y-79580000D02*
G75*
G02*
X119641000Y-80171000I-591000J0D01*
G01*
X117870000Y-78720000D02*
G75*
G03*
X118139000Y-78989000I269000J0D01*
G01*
X119051000Y-77000000D02*
G75*
G03*
X119320000Y-77269000I269000J0D01*
G01*
X120232000Y-77860000D02*
G75*
G02*
X119641000Y-78451000I-591000J0D01*
G01*
X118139000Y-78451000D02*
G75*
G03*
X117870000Y-78720000I0J-269000D01*
G01*
X119641000Y-80709000D02*
G75*
G02*
X120232000Y-81300000I0J-591000D01*
G01*
X119320000Y-81891000D02*
G75*
G03*
X119051000Y-82160000I0J-269000D01*
G01*
X120232000Y-81300000D02*
G75*
G02*
X119641000Y-81891000I-591000J0D01*
G01*
X118139000Y-80171000D02*
G75*
G03*
X117870000Y-80440000I0J-269000D01*
G01*
X119641000Y-78989000D02*
G75*
G02*
X120232000Y-79580000I0J-591000D01*
G01*
D61*
%TO.N,/FPGA_HDMI/DDC_CLK*%
X129975000Y-70862500D02*
X129975000Y-70040687D01*
X129975000Y-70040687D02*
X135400000Y-64615686D01*
X131500000Y-56214214D02*
X131500000Y-53800000D01*
X132518628Y-57232843D02*
X131500000Y-56214214D01*
X135400000Y-59034314D02*
X133598528Y-57232843D01*
X133598528Y-57232843D02*
X132518628Y-57232843D01*
X135400000Y-64615686D02*
X135400000Y-59034314D01*
D63*
%TO.N,Hdmi_out_data_2+*%
X125861000Y-66239000D02*
X126075000Y-66025000D01*
X125039000Y-66239000D02*
X125861000Y-66239000D01*
X102380000Y-84760000D02*
X103278000Y-83862000D01*
X124840478Y-60395854D02*
X125900000Y-61455376D01*
X124039000Y-65239000D02*
X125039000Y-66239000D01*
X105900702Y-77343924D02*
X106034842Y-77209783D01*
X103278000Y-80512313D02*
X103278000Y-80373313D01*
X105186312Y-77478064D02*
X105320454Y-77343923D01*
X103372499Y-79872125D02*
X105186312Y-78058312D01*
X118005624Y-65239000D02*
X124039000Y-65239000D01*
X102417000Y-81512313D02*
X102417000Y-81373313D01*
X103278000Y-83862000D02*
X103278000Y-82373313D01*
X125900000Y-61455376D02*
X125900000Y-63661625D01*
X106034842Y-77209783D02*
X107024816Y-76219808D01*
X125900000Y-63661625D02*
X126075000Y-63836625D01*
X124502956Y-53800000D02*
X124502956Y-55750001D01*
X107024816Y-76219808D02*
X118005624Y-65239000D01*
X103278000Y-80373313D02*
X103278000Y-79966624D01*
X124840478Y-56087523D02*
X124840478Y-60395854D01*
X126075000Y-66025000D02*
X126075000Y-65137500D01*
X103278000Y-79966624D02*
X103372499Y-79872125D01*
X126075000Y-63836625D02*
X126075000Y-65137500D01*
X124502956Y-55750001D02*
X124840478Y-56087523D01*
X103008500Y-82103813D02*
G75*
G02*
X102416987Y-81512313I0J591513D01*
G01*
X105610578Y-77343923D02*
G75*
G03*
X105900661Y-77343884I145022J145023D01*
G01*
X103008500Y-80781813D02*
G75*
G03*
X103278013Y-80512313I0J269513D01*
G01*
X103278000Y-82373313D02*
G75*
G03*
X103008500Y-82103800I-269500J13D01*
G01*
X105186312Y-77768188D02*
G75*
G02*
X105186286Y-77478038I145088J145088D01*
G01*
X105186312Y-78058312D02*
G75*
G03*
X105186262Y-77768238I-145012J145012D01*
G01*
X102417000Y-81373313D02*
G75*
G02*
X103008500Y-80781800I591500J13D01*
G01*
X105320454Y-77343923D02*
G75*
G02*
X105610578Y-77343923I145062J-145064D01*
G01*
%TO.N,Hdmi_out_data_0+*%
X129489000Y-59616690D02*
X127839000Y-57966690D01*
X113539000Y-78000000D02*
X113539000Y-77061000D01*
X113195000Y-81945478D02*
X112684000Y-81945478D01*
X113304000Y-83200000D02*
X113539000Y-82965000D01*
X112684000Y-80613478D02*
X113195000Y-80613478D01*
X114716000Y-79925478D02*
X114205000Y-79925478D01*
X127839000Y-56089001D02*
X127500000Y-55750001D01*
X129489000Y-66711000D02*
X129489000Y-66407751D01*
X129325000Y-64031249D02*
X129489000Y-63867249D01*
X127839000Y-57966690D02*
X127839000Y-56089001D01*
X113539000Y-77061000D02*
X122300000Y-68300000D01*
X113195000Y-80613478D02*
X114716000Y-80613478D01*
X129489000Y-63867249D02*
X129489000Y-59616690D01*
X122300000Y-68300000D02*
X127900000Y-68300000D01*
X129489000Y-66407751D02*
X129325000Y-66243751D01*
X113539000Y-79259478D02*
X113539000Y-78000000D01*
X113539000Y-82965000D02*
X113539000Y-82289478D01*
X129325000Y-65137500D02*
X129325000Y-64031249D01*
X129325000Y-66243751D02*
X129325000Y-65137500D01*
X127500000Y-55750001D02*
X127500000Y-53800000D01*
X127900000Y-68300000D02*
X129489000Y-66711000D01*
X112684000Y-81945478D02*
G75*
G02*
X112018022Y-81279478I0J665978D01*
G01*
X113539000Y-82289478D02*
G75*
G03*
X113195000Y-81945500I-344000J-22D01*
G01*
X115060000Y-80269478D02*
G75*
G03*
X114716000Y-79925500I-344000J-22D01*
G01*
X114716000Y-80613478D02*
G75*
G03*
X115059978Y-80269478I0J343978D01*
G01*
X112018000Y-81279478D02*
G75*
G02*
X112684000Y-80613500I666000J-22D01*
G01*
X114205000Y-79925478D02*
G75*
G02*
X113539022Y-79259478I0J665978D01*
G01*
D61*
%TO.N,/FPGA_HDMI/HPD*%
X133500000Y-55000000D02*
X133500000Y-53800000D01*
X131275000Y-69872059D02*
X136200000Y-64947058D01*
X131275000Y-70862500D02*
X131275000Y-69872059D01*
X136200000Y-64947058D02*
X136200000Y-58702943D01*
X136200000Y-58702943D02*
X134275735Y-56778678D01*
X134275735Y-56778678D02*
X134275735Y-55775735D01*
X134275735Y-55775735D02*
X133500000Y-55000000D01*
%TO.N,/FPGA_HDMI/CEC*%
X130500000Y-55300000D02*
X130500000Y-53800000D01*
X135000000Y-59200000D02*
X133432843Y-57632843D01*
X132352943Y-57632843D02*
X131100000Y-56379900D01*
X133432843Y-57632843D02*
X132352943Y-57632843D01*
X129325000Y-70125001D02*
X135000000Y-64450001D01*
X131100000Y-55900000D02*
X130500000Y-55300000D01*
X135000000Y-64450001D02*
X135000000Y-59200000D01*
X131100000Y-56379900D02*
X131100000Y-55900000D01*
X129325000Y-70862500D02*
X129325000Y-70125001D01*
D63*
%TO.N,Hdmi_out_data_2-*%
X103600000Y-83900000D02*
X103600000Y-82373313D01*
X103600000Y-80100000D02*
X103600187Y-80099813D01*
X118139000Y-65561000D02*
X123905624Y-65561000D01*
X104460000Y-84760000D02*
X103600000Y-83900000D01*
X125500000Y-53800000D02*
X125500000Y-55750001D01*
X126725000Y-64031249D02*
X126725000Y-65137500D01*
X125162478Y-60262478D02*
X126222000Y-61322000D01*
X103600187Y-80099813D02*
X118139000Y-65561000D01*
X126222000Y-61322000D02*
X126222000Y-63528249D01*
X126532000Y-66023376D02*
X126532000Y-65868000D01*
X125162478Y-56087523D02*
X125162478Y-60262478D01*
X125500000Y-55750001D02*
X125162478Y-56087523D01*
X126725000Y-65675000D02*
X126725000Y-65137500D01*
X126532000Y-65868000D02*
X126725000Y-65675000D01*
X103600000Y-80512313D02*
X103600000Y-80373313D01*
X126222000Y-63528249D02*
X126725000Y-64031249D01*
X103600000Y-80373313D02*
X103600000Y-80100000D01*
X124905624Y-66561000D02*
X125994376Y-66561000D01*
X104920000Y-84760000D02*
X104460000Y-84760000D01*
X125994376Y-66561000D02*
X126532000Y-66023376D01*
X123905624Y-65561000D02*
X124905624Y-66561000D01*
X102739000Y-81512313D02*
X102739000Y-81373313D01*
X102739000Y-81373313D02*
G75*
G02*
X103008500Y-81103800I269500J13D01*
G01*
X103600000Y-82373313D02*
G75*
G03*
X103008500Y-81781800I-591500J13D01*
G01*
X103008500Y-81781813D02*
G75*
G02*
X102738987Y-81512313I0J269513D01*
G01*
X103008500Y-81103813D02*
G75*
G03*
X103600013Y-80512313I0J591513D01*
G01*
D61*
%TO.N,/FPGA_HDMI/DDC_SDA*%
X131900000Y-56048529D02*
X132684314Y-56832843D01*
X131900000Y-55551471D02*
X131900000Y-56048529D01*
X133764214Y-56832843D02*
X135800000Y-58868629D01*
X135800000Y-64781372D02*
X130625000Y-69956373D01*
X135800000Y-58868629D02*
X135800000Y-64781372D01*
X132684314Y-56832843D02*
X133764214Y-56832843D01*
X132002956Y-55448515D02*
X131900000Y-55551471D01*
X130625000Y-69956373D02*
X130625000Y-70862500D01*
X132002956Y-53800000D02*
X132002956Y-55448515D01*
D63*
%TO.N,Hdmi_out_data_0-*%
X129975000Y-66243751D02*
X129975000Y-65137500D01*
X128033376Y-68622000D02*
X129811000Y-66844376D01*
X113861000Y-83439000D02*
X113861000Y-82289478D01*
X116224745Y-74830630D02*
X116902688Y-74152688D01*
X129811000Y-66407751D02*
X129975000Y-66243751D01*
X129811000Y-66844376D02*
X129811000Y-66407751D01*
X129975000Y-64031249D02*
X129811000Y-63867249D01*
X116902688Y-74152688D02*
X122433376Y-68622000D01*
X113861000Y-78000000D02*
X113861000Y-77194376D01*
X114716000Y-79603478D02*
X114205000Y-79603478D01*
X113861000Y-79259478D02*
X113861000Y-78000000D01*
X122433376Y-68622000D02*
X128033376Y-68622000D01*
X114867099Y-76527688D02*
X115026683Y-76687272D01*
X112540000Y-84760000D02*
X113861000Y-83439000D01*
X129811000Y-59483310D02*
X128161000Y-57833310D01*
X116139890Y-74915482D02*
X116224745Y-74830630D01*
X116299467Y-75414470D02*
X116139890Y-75254893D01*
X115366095Y-76687272D02*
X115450947Y-76602419D01*
X115450947Y-76263007D02*
X115291362Y-76103422D01*
X128161000Y-57833310D02*
X128161000Y-56089001D01*
X115715628Y-75679159D02*
X115875204Y-75838735D01*
X116214615Y-75838735D02*
X116299467Y-75753882D01*
X115291362Y-75764010D02*
X115376216Y-75679159D01*
X128161000Y-56089001D02*
X128500000Y-55750001D01*
X113195000Y-81623478D02*
X112684000Y-81623478D01*
X129811000Y-63867249D02*
X129811000Y-59483310D01*
X112684000Y-80935478D02*
X113195000Y-80935478D01*
X113861000Y-77194376D02*
X114527688Y-76527688D01*
X129975000Y-65137500D02*
X129975000Y-64031249D01*
X113195000Y-80935478D02*
X114716000Y-80935478D01*
X128500000Y-55750001D02*
X128500000Y-53800000D01*
X115376216Y-75679159D02*
X115376217Y-75679159D01*
X115026683Y-76687272D02*
G75*
G03*
X115366095Y-76687272I169706J169704D01*
G01*
X115376217Y-75679159D02*
G75*
G02*
X115715628Y-75679158I169706J-169707D01*
G01*
X114205000Y-79603478D02*
G75*
G02*
X113861022Y-79259478I0J343978D01*
G01*
X113861000Y-82289478D02*
G75*
G03*
X113195000Y-81623500I-666000J-22D01*
G01*
X116139890Y-75254893D02*
G75*
G02*
X116139902Y-74915495I169710J169693D01*
G01*
X116299467Y-75753882D02*
G75*
G03*
X116299443Y-75414494I-169667J169682D01*
G01*
X115875204Y-75838735D02*
G75*
G03*
X116214615Y-75838736I169706J169707D01*
G01*
X115291362Y-76103422D02*
G75*
G02*
X115291346Y-75763994I169738J169722D01*
G01*
X114716000Y-80935478D02*
G75*
G03*
X115381978Y-80269478I0J665978D01*
G01*
X115382000Y-80269478D02*
G75*
G03*
X114716000Y-79603500I-666000J-22D01*
G01*
X112684000Y-81623478D02*
G75*
G02*
X112340022Y-81279478I0J343978D01*
G01*
X115450947Y-76602419D02*
G75*
G03*
X115450960Y-76262994I-169747J169719D01*
G01*
X112340000Y-81279478D02*
G75*
G02*
X112684000Y-80935500I344000J-22D01*
G01*
X114527688Y-76527688D02*
G75*
G02*
X114867099Y-76527688I169705J-169707D01*
G01*
%TO.N,Hdmi_out_clk+*%
X124861000Y-69239000D02*
X118729000Y-75371000D01*
X130625000Y-65137500D02*
X130625000Y-66243751D01*
X130625000Y-65137500D02*
X130625000Y-64031249D01*
X118139000Y-81031000D02*
X118729000Y-81031000D01*
X118729000Y-82160000D02*
X118729000Y-82750000D01*
X129339000Y-56089001D02*
X129000000Y-55750001D01*
X119051000Y-79849000D02*
X118139000Y-79849000D01*
X130789000Y-66407751D02*
X130789000Y-67011000D01*
X119641000Y-81569000D02*
X119320000Y-81569000D01*
X118729000Y-81031000D02*
X119641000Y-81031000D01*
X131178000Y-58478000D02*
X129339000Y-56639000D01*
X118729000Y-79311000D02*
X119641000Y-79311000D01*
X118729000Y-83651000D02*
X117620000Y-84760000D01*
X130625000Y-66243751D02*
X130789000Y-66407751D01*
X128561000Y-69239000D02*
X124861000Y-69239000D01*
X131178000Y-63478249D02*
X131178000Y-58478000D01*
X118729000Y-82750000D02*
X118729000Y-83651000D01*
X129000000Y-55750001D02*
X129000000Y-53800000D01*
X119320000Y-77591000D02*
X119641000Y-77591000D01*
X118729000Y-75371000D02*
X118729000Y-77000000D01*
X119320000Y-78129000D02*
X118139000Y-78129000D01*
X119641000Y-78129000D02*
X119320000Y-78129000D01*
X129339000Y-56639000D02*
X129339000Y-56089001D01*
X130789000Y-67011000D02*
X128561000Y-69239000D01*
X118139000Y-79311000D02*
X118729000Y-79311000D01*
X119641000Y-79849000D02*
X119051000Y-79849000D01*
X130625000Y-64031249D02*
X131178000Y-63478249D01*
X119641000Y-81031000D02*
G75*
G02*
X119910000Y-81300000I0J-269000D01*
G01*
X119320000Y-81569000D02*
G75*
G03*
X118729000Y-82160000I0J-591000D01*
G01*
X119641000Y-77591000D02*
G75*
G02*
X119910000Y-77860000I0J-269000D01*
G01*
X117548000Y-80440000D02*
G75*
G03*
X118139000Y-81031000I591000J0D01*
G01*
X117548000Y-78720000D02*
G75*
G03*
X118139000Y-79311000I591000J0D01*
G01*
X118139000Y-78129000D02*
G75*
G03*
X117548000Y-78720000I0J-591000D01*
G01*
X119910000Y-81300000D02*
G75*
G02*
X119641000Y-81569000I-269000J0D01*
G01*
X119910000Y-79580000D02*
G75*
G02*
X119641000Y-79849000I-269000J0D01*
G01*
X118139000Y-79849000D02*
G75*
G03*
X117548000Y-80440000I0J-591000D01*
G01*
X118729000Y-77000000D02*
G75*
G03*
X119320000Y-77591000I591000J0D01*
G01*
X119641000Y-79311000D02*
G75*
G02*
X119910000Y-79580000I0J-269000D01*
G01*
X119910000Y-77860000D02*
G75*
G02*
X119641000Y-78129000I-269000J0D01*
G01*
D56*
%TO.N,/SignalBuffer/ButtonDown1*%
X79550000Y-116950000D02*
X77000000Y-119500000D01*
X75500000Y-121000000D02*
X77000000Y-119500000D01*
X80650000Y-116950000D02*
X79550000Y-116950000D01*
X69150000Y-121150000D02*
X69000000Y-121000000D01*
X75500000Y-121150000D02*
X75500000Y-121000000D01*
X75500000Y-121150000D02*
X69150000Y-121150000D01*
%TO.N,/SignalBuffer/ButtonUp1*%
X69490000Y-110350000D02*
X69000000Y-110840000D01*
X75500000Y-110500000D02*
X77000000Y-112000000D01*
X75500000Y-110350000D02*
X75500000Y-110500000D01*
X77000000Y-112000000D02*
X80050000Y-115050000D01*
X75500000Y-110350000D02*
X69490000Y-110350000D01*
X80050000Y-115050000D02*
X80650000Y-115050000D01*
%TO.N,/SignalBuffer/ButtonUp2*%
X139950000Y-116950000D02*
X139350000Y-116950000D01*
X144500000Y-121650000D02*
X150510000Y-121650000D01*
X143000000Y-120000000D02*
X139950000Y-116950000D01*
X144500000Y-121500000D02*
X143000000Y-120000000D01*
X144500000Y-121650000D02*
X144500000Y-121500000D01*
X150510000Y-121650000D02*
X151000000Y-121160000D01*
%TO.N,/SignalBuffer/ButtonDown2*%
X144500000Y-110850000D02*
X144500000Y-111000000D01*
X143000000Y-112500000D02*
X140450000Y-115050000D01*
X144500000Y-111000000D02*
X143000000Y-112500000D01*
X144500000Y-110850000D02*
X150850000Y-110850000D01*
X140450000Y-115050000D02*
X139350000Y-115050000D01*
X150850000Y-110850000D02*
X151000000Y-111000000D01*
%TO.N,/SignalBuffer/ControllerSelect*%
X146000000Y-78000000D02*
X150222500Y-78000000D01*
X146000000Y-78000000D02*
X146000000Y-77850000D01*
X144500000Y-76250000D02*
X144500000Y-76350000D01*
X143500000Y-75350000D02*
X143500000Y-69450000D01*
X146000000Y-77850000D02*
X144500000Y-76350000D01*
X146000000Y-78000000D02*
X146080000Y-78080000D01*
X144500000Y-76350000D02*
X143500000Y-75350000D01*
%TO.N,/SignalBuffer/Trigger1_buffered*%
X90150000Y-122230000D02*
X87650000Y-119730000D01*
X90150000Y-133770000D02*
X89840000Y-134080000D01*
X87650000Y-119730000D02*
X85950000Y-119730000D01*
X90150000Y-127580000D02*
X90150000Y-133770000D01*
X90150000Y-127580000D02*
X90150000Y-122230000D01*
%TO.N,/SignalBuffer/Echo1*%
X79500000Y-127580000D02*
X81000000Y-126080000D01*
X81000000Y-126080000D02*
X84050000Y-123030000D01*
X79350000Y-127580000D02*
X79500000Y-127580000D01*
X84050000Y-123030000D02*
X84050000Y-122430000D01*
X79350000Y-133750000D02*
X79680000Y-134080000D01*
X79350000Y-127580000D02*
X79350000Y-133750000D01*
%TO.N,/SignalBuffer/Trigger2_buffered*%
X130150000Y-122650000D02*
X130150000Y-127500000D01*
X130150000Y-133690000D02*
X129840000Y-134000000D01*
X127150000Y-119650000D02*
X130150000Y-122650000D01*
X130150000Y-127500000D02*
X130150000Y-133690000D01*
X125450000Y-119650000D02*
X127150000Y-119650000D01*
%TO.N,/SignalBuffer/Echo2*%
X119350000Y-133670000D02*
X119680000Y-134000000D01*
X119350000Y-127500000D02*
X119500000Y-127500000D01*
X123550000Y-123450000D02*
X123550000Y-122350000D01*
X119350000Y-127500000D02*
X119350000Y-133670000D01*
X121000000Y-126000000D02*
X123550000Y-123450000D01*
X119500000Y-127500000D02*
X121000000Y-126000000D01*
%TO.N,/SignalBuffer/GameReset*%
X143500000Y-65150000D02*
X143500000Y-67550000D01*
X149832500Y-64150000D02*
X150222500Y-64540000D01*
X146000000Y-64150000D02*
X149832500Y-64150000D01*
X144500000Y-64150000D02*
X143500000Y-65150000D01*
X144600000Y-64150000D02*
X146000000Y-64150000D01*
X144500000Y-64250000D02*
X144600000Y-64150000D01*
D59*
%TO.N,/5v-PSU/FB_5V*%
X78900000Y-58750000D02*
X78625000Y-58475000D01*
X78625000Y-58475000D02*
X78625000Y-57935000D01*
X80875000Y-58770000D02*
X80855000Y-58750000D01*
X80855000Y-58750000D02*
X78900000Y-58750000D01*
D56*
X80875000Y-60100000D02*
X80875000Y-58770000D01*
D59*
%TO.N,Net-(U1-BOOT)*%
X77625000Y-59600000D02*
X77625000Y-57935000D01*
%TO.N,/3v3-PSU/FB_3.3v*%
X73545000Y-77040000D02*
X73545000Y-76940000D01*
X73545000Y-76940000D02*
X73920000Y-77315000D01*
X73920000Y-77315000D02*
X73470000Y-77315000D01*
X73370000Y-77215000D02*
X73545000Y-77040000D01*
X73370000Y-77215000D02*
X73245000Y-77090000D01*
X73470000Y-77315000D02*
X73370000Y-77215000D01*
X72967500Y-72717500D02*
X72970000Y-72715000D01*
X73020000Y-77315000D02*
X73245000Y-77090000D01*
X73920000Y-77315000D02*
X72970000Y-77315000D01*
X72970000Y-77315000D02*
X73020000Y-77315000D01*
X73270000Y-72715000D02*
X73470000Y-72915000D01*
X72970000Y-72715000D02*
X73270000Y-72715000D01*
X73470000Y-72915000D02*
X73470000Y-76865000D01*
X73470000Y-76865000D02*
X73545000Y-76940000D01*
X73245000Y-77090000D02*
X73470000Y-76865000D01*
X72690000Y-72717500D02*
X72967500Y-72717500D01*
X72970000Y-77315000D02*
X72495000Y-77315000D01*
D56*
%TO.N,Net-(R11-Pad2)*%
X75500000Y-118150000D02*
X75500000Y-119500000D01*
%TO.N,Net-(R12-Pad2)*%
X75500000Y-113350000D02*
X75500000Y-112000000D01*
%TO.N,Net-(R13-Pad2)*%
X144500000Y-112500000D02*
X144500000Y-113850000D01*
%TO.N,Net-(R14-Pad2)*%
X144500000Y-118650000D02*
X144500000Y-120000000D01*
%TO.N,Net-(R15-Pad2)*%
X146000000Y-76350000D02*
X146000000Y-75000000D01*
%TO.N,Net-(R19-Pad2)*%
X88500000Y-127580000D02*
X87150000Y-127580000D01*
%TO.N,Net-(R20-Pad2)*%
X82350000Y-127580000D02*
X81000000Y-127580000D01*
%TO.N,Net-(R21-Pad2)*%
X128500000Y-127500000D02*
X127150000Y-127500000D01*
%TO.N,Net-(R22-Pad2)*%
X122350000Y-127500000D02*
X121000000Y-127500000D01*
%TO.N,Net-(R23-Pad2)*%
X146000000Y-61150000D02*
X146000000Y-62500000D01*
%TO.N,/FPGA_HDMI/GameReset*%
X134600000Y-87900000D02*
X136700000Y-85800000D01*
X138150000Y-67550000D02*
X140800000Y-67550000D01*
X93200000Y-87900000D02*
X134600000Y-87900000D01*
X136700000Y-85800000D02*
X136700000Y-69000000D01*
X84600000Y-96500000D02*
X93200000Y-87900000D01*
X136700000Y-69000000D02*
X138150000Y-67550000D01*
X84600000Y-100000000D02*
X84600000Y-96500000D01*
%TO.N,Net-(J9-Pin_11)*%
X135400000Y-100000000D02*
X138200000Y-97200000D01*
X147097056Y-97200000D02*
X148107056Y-98210000D01*
X138200000Y-97200000D02*
X147097056Y-97200000D01*
X148107056Y-98210000D02*
X153750000Y-98210000D01*
X153750000Y-98210000D02*
X155000000Y-99460000D01*
%TO.N,Net-(J9-Pin_3)*%
X122680000Y-92400000D02*
X145608832Y-92400000D01*
X149958832Y-88050000D02*
X153750000Y-88050000D01*
X115080000Y-100000000D02*
X122680000Y-92400000D01*
X145608832Y-92400000D02*
X149958832Y-88050000D01*
X153750000Y-88050000D02*
X155000000Y-89300000D01*
%TO.N,/FPGA_HDMI/Sensor_l*%
X102380000Y-109920000D02*
X102380000Y-100000000D01*
X92600000Y-119700000D02*
X102380000Y-109920000D01*
X88900000Y-119700000D02*
X92600000Y-119700000D01*
X84050000Y-119730000D02*
X82930000Y-119730000D01*
X82930000Y-119730000D02*
X82900000Y-119700000D01*
%TO.N,Net-(J9-Pin_12)*%
X148508528Y-99460000D02*
X152460000Y-99460000D01*
X137940000Y-100000000D02*
X140140000Y-97800000D01*
X146848528Y-97800000D02*
X148508528Y-99460000D01*
X140140000Y-97800000D02*
X146848528Y-97800000D01*
%TO.N,Net-(J9-Pin_10)*%
X152140000Y-96600000D02*
X152460000Y-96920000D01*
X132860000Y-100000000D02*
X136260000Y-96600000D01*
X136260000Y-96600000D02*
X152140000Y-96600000D01*
%TO.N,/FPGA_HDMI/Controller_switch*%
X139200000Y-74600000D02*
X140800000Y-73000000D01*
X139200000Y-86200000D02*
X139200000Y-74600000D01*
X94300000Y-89700000D02*
X135700000Y-89700000D01*
X140800000Y-73000000D02*
X140800000Y-69450000D01*
X87140000Y-100000000D02*
X87140000Y-96860000D01*
X135700000Y-89700000D02*
X139200000Y-86200000D01*
X87140000Y-96860000D02*
X94300000Y-89700000D01*
D61*
%TO.N,Hdmi_out_hpd*%
X127375000Y-80000000D02*
X127375000Y-70862500D01*
D56*
%TO.N,/FPGA_HDMI/Trigger_l*%
X90900000Y-118800000D02*
X99840000Y-109860000D01*
X85950000Y-122430000D02*
X87270000Y-122430000D01*
X87270000Y-122430000D02*
X87300000Y-122400000D01*
X99840000Y-109860000D02*
X99840000Y-100000000D01*
%TO.N,/FPGA_HDMI/Sensor_r*%
X107500000Y-102600000D02*
X107500000Y-102400000D01*
X123550000Y-118650000D02*
X107500000Y-102600000D01*
X107500000Y-102400000D02*
X107460000Y-102360000D01*
X123550000Y-119650000D02*
X123550000Y-118650000D01*
X107460000Y-102360000D02*
X107460000Y-100000000D01*
%TO.N,Net-(J9-Pin_6)*%
X148714416Y-91840000D02*
X152460000Y-91840000D01*
X128500000Y-94200000D02*
X146354416Y-94200000D01*
X146354416Y-94200000D02*
X148714416Y-91840000D01*
X122700000Y-100000000D02*
X128500000Y-94200000D01*
%TO.N,/FPGA_HDMI/BTN_up_r*%
X84550000Y-115050000D02*
X83350000Y-115050000D01*
X94760000Y-104840000D02*
X84550000Y-115050000D01*
X94760000Y-100000000D02*
X94760000Y-104840000D01*
%TO.N,Net-(J9-Pin_9)*%
X147100000Y-96000000D02*
X147430000Y-95670000D01*
X147430000Y-95670000D02*
X153750000Y-95670000D01*
X130320000Y-100000000D02*
X134320000Y-96000000D01*
X134320000Y-96000000D02*
X147100000Y-96000000D01*
X153750000Y-95670000D02*
X155000000Y-96920000D01*
%TO.N,Net-(J9-Pin_1)*%
X110000000Y-100000000D02*
X118800000Y-91200000D01*
X150801776Y-85510000D02*
X153750000Y-85510000D01*
X153750000Y-85510000D02*
X155000000Y-86760000D01*
X145111776Y-91200000D02*
X150801776Y-85510000D01*
X118800000Y-91200000D02*
X145111776Y-91200000D01*
D61*
%TO.N,Hdmi_DDC_dlk*%
X126075000Y-83055000D02*
X127780000Y-84760000D01*
X126075000Y-70862500D02*
X126075000Y-83055000D01*
D56*
%TO.N,Net-(J9-Pin_13)*%
X153710000Y-100710000D02*
X155000000Y-102000000D01*
X140480000Y-100000000D02*
X142080000Y-98400000D01*
X146600000Y-98400000D02*
X148910000Y-100710000D01*
X142080000Y-98400000D02*
X146600000Y-98400000D01*
X148910000Y-100710000D02*
X153710000Y-100710000D01*
%TO.N,/FPGA_HDMI/BTN_down_l*%
X122600000Y-103100000D02*
X134550000Y-115050000D01*
X110300000Y-103100000D02*
X122600000Y-103100000D01*
X134550000Y-115050000D02*
X136650000Y-115050000D01*
%TO.N,Net-(J9-Pin_2)*%
X145360304Y-91800000D02*
X150400304Y-86760000D01*
X112540000Y-100000000D02*
X120740000Y-91800000D01*
X150400304Y-86760000D02*
X152460000Y-86760000D01*
X120740000Y-91800000D02*
X145360304Y-91800000D01*
D61*
%TO.N,Hdmi_CEC*%
X125425000Y-70862500D02*
X125425000Y-84575000D01*
X125425000Y-84575000D02*
X125240000Y-84760000D01*
D56*
%TO.N,Net-(J9-Pin_4)*%
X149557360Y-89300000D02*
X152460000Y-89300000D01*
X117620000Y-100000000D02*
X124620000Y-93000000D01*
X145857360Y-93000000D02*
X149557360Y-89300000D01*
X124620000Y-93000000D02*
X145857360Y-93000000D01*
%TO.N,Net-(J9-Pin_7)*%
X125240000Y-100000000D02*
X130440000Y-94800000D01*
X146602944Y-94800000D02*
X148272944Y-93130000D01*
X153750000Y-93130000D02*
X155000000Y-94380000D01*
X148272944Y-93130000D02*
X153750000Y-93130000D01*
X130440000Y-94800000D02*
X146602944Y-94800000D01*
%TO.N,Net-(J9-Pin_8)*%
X127780000Y-100000000D02*
X132380000Y-95400000D01*
X146851472Y-95400000D02*
X147871472Y-94380000D01*
X132380000Y-95400000D02*
X146851472Y-95400000D01*
X147871472Y-94380000D02*
X152460000Y-94380000D01*
%TO.N,Net-(J9-Pin_5)*%
X149115888Y-90590000D02*
X153750000Y-90590000D01*
X120160000Y-100000000D02*
X126560000Y-93600000D01*
X126560000Y-93600000D02*
X146105888Y-93600000D01*
X153750000Y-90590000D02*
X155000000Y-91840000D01*
X146105888Y-93600000D02*
X149115888Y-90590000D01*
%TO.N,Net-(J11-Pin_7)*%
X97300000Y-84760000D02*
X92750000Y-80210000D01*
X92750000Y-77750000D02*
X94000000Y-76500000D01*
X92750000Y-80210000D02*
X92750000Y-77750000D01*
%TO.N,Net-(J11-Pin_2)*%
X86380000Y-82980000D02*
X86380000Y-79040000D01*
X84600000Y-84760000D02*
X86380000Y-82980000D01*
%TO.N,Net-(J11-Pin_3)*%
X87630000Y-77790000D02*
X88920000Y-76500000D01*
X87140000Y-84760000D02*
X87630000Y-84270000D01*
X87630000Y-84270000D02*
X87630000Y-77790000D01*
%TO.N,Net-(J11-Pin_4)*%
X89680000Y-84760000D02*
X89680000Y-82580000D01*
X89680000Y-82580000D02*
X88900000Y-81800000D01*
X88900000Y-79060000D02*
X88920000Y-79040000D01*
X88900000Y-81800000D02*
X88900000Y-79060000D01*
%TO.N,Net-(J11-Pin_5)*%
X90210000Y-81610000D02*
X90210000Y-77750000D01*
X92220000Y-84760000D02*
X92220000Y-83620000D01*
X90210000Y-77750000D02*
X91460000Y-76500000D01*
X92220000Y-83620000D02*
X90210000Y-81610000D01*
D61*
%TO.N,Hdmil_DDC_data*%
X126725000Y-70862500D02*
X126725000Y-81165000D01*
X126725000Y-81165000D02*
X130320000Y-84760000D01*
D56*
%TO.N,/FPGA_HDMI/Trigger_r*%
X125450000Y-122350000D02*
X125450000Y-123850000D01*
X125450000Y-123850000D02*
X125500000Y-123900000D01*
X121200000Y-119600000D02*
X104920000Y-103320000D01*
X104920000Y-103320000D02*
X104920000Y-100000000D01*
%TO.N,Net-(J11-Pin_6)*%
X91460000Y-79040000D02*
X91460000Y-81460000D01*
X91460000Y-81460000D02*
X94760000Y-84760000D01*
%TO.N,Net-(J11-Pin_8)*%
X94000000Y-79040000D02*
X99720000Y-84760000D01*
X99720000Y-84760000D02*
X99840000Y-84760000D01*
%TO.N,/FPGA_HDMI/BTN_down_r*%
X97300000Y-104200000D02*
X97300000Y-100000000D01*
X87050000Y-114450000D02*
X97300000Y-104200000D01*
X83350000Y-118050000D02*
X83400000Y-118100000D01*
X83350000Y-116950000D02*
X83350000Y-118050000D01*
%TO.N,/FPGA_HDMI/BTN_up_l*%
X119100000Y-104700000D02*
X112200000Y-104700000D01*
X131350000Y-116950000D02*
X119100000Y-104700000D01*
X136650000Y-116950000D02*
X131350000Y-116950000D01*
D59*
%TO.N,/3v3-PSU/P_GOOD_3v3*%
X72690000Y-73760000D02*
X72845000Y-73915000D01*
X72690000Y-73217500D02*
X72690000Y-73760000D01*
%TD*%
%TA.AperFunction,Conductor*%
%TO.N,/power_fused*%
G36*
X98265677Y-62869685D02*
G01*
X98286319Y-62886319D01*
X99213681Y-63813681D01*
X99247166Y-63875004D01*
X99250000Y-63901362D01*
X99250000Y-71298638D01*
X99230315Y-71365677D01*
X99213681Y-71386319D01*
X98286319Y-72313681D01*
X98224996Y-72347166D01*
X98198638Y-72350000D01*
X95801362Y-72350000D01*
X95734323Y-72330315D01*
X95713681Y-72313681D01*
X94786319Y-71386319D01*
X94752834Y-71324996D01*
X94750000Y-71298638D01*
X94750000Y-63901362D01*
X94769685Y-63834323D01*
X94786319Y-63813681D01*
X95713681Y-62886319D01*
X95775004Y-62852834D01*
X95801362Y-62850000D01*
X98198638Y-62850000D01*
X98265677Y-62869685D01*
G37*
%TD.AperFunction*%
%TD*%
%TA.AperFunction,Conductor*%
%TO.N,/5v-PSU/V-in_filtered*%
G36*
X79240677Y-51919685D02*
G01*
X79261319Y-51936319D01*
X79488681Y-52163681D01*
X79522166Y-52225004D01*
X79525000Y-52251362D01*
X79525000Y-53378928D01*
X79518038Y-53419891D01*
X79151738Y-54466463D01*
X79111013Y-54523236D01*
X79046058Y-54548979D01*
X79034700Y-54549500D01*
X78975323Y-54549500D01*
X78902264Y-54564032D01*
X78902260Y-54564033D01*
X78819399Y-54619399D01*
X78764033Y-54702260D01*
X78764032Y-54702264D01*
X78749500Y-54775321D01*
X78749500Y-55275500D01*
X78729815Y-55342539D01*
X78677011Y-55388294D01*
X78625500Y-55399500D01*
X77624500Y-55399500D01*
X77557461Y-55379815D01*
X77511706Y-55327011D01*
X77500500Y-55275500D01*
X77500500Y-54775323D01*
X77500499Y-54775321D01*
X77485967Y-54702264D01*
X77485966Y-54702260D01*
X77477440Y-54689500D01*
X77430601Y-54619399D01*
X77347740Y-54564034D01*
X77347739Y-54564033D01*
X77347735Y-54564032D01*
X77274677Y-54549500D01*
X77274674Y-54549500D01*
X76975326Y-54549500D01*
X76899190Y-54564644D01*
X76850810Y-54564644D01*
X76774674Y-54549500D01*
X76475326Y-54549500D01*
X76453146Y-54553912D01*
X76421835Y-54560140D01*
X76352243Y-54553912D01*
X76321222Y-54536173D01*
X75172578Y-53637234D01*
X75131916Y-53580415D01*
X75125000Y-53539583D01*
X75125000Y-52251362D01*
X75144685Y-52184323D01*
X75161319Y-52163681D01*
X75388681Y-51936319D01*
X75450004Y-51902834D01*
X75476362Y-51900000D01*
X79173638Y-51900000D01*
X79240677Y-51919685D01*
G37*
%TD.AperFunction*%
%TD*%
%TA.AperFunction,Conductor*%
%TO.N,/5v-PSU/SW_5V*%
G36*
X76413536Y-57513976D02*
G01*
X76439093Y-57527055D01*
X76444398Y-57530599D01*
X76444399Y-57530601D01*
X76527260Y-57585966D01*
X76527264Y-57585967D01*
X76600321Y-57600499D01*
X76600324Y-57600500D01*
X76600326Y-57600500D01*
X77125500Y-57600500D01*
X77192539Y-57620185D01*
X77238294Y-57672989D01*
X77249500Y-57724500D01*
X77249500Y-58869899D01*
X77229815Y-58936938D01*
X77177011Y-58982693D01*
X77166458Y-58986939D01*
X77137121Y-58997204D01*
X77137118Y-58997206D01*
X77027850Y-59077850D01*
X77027846Y-59077854D01*
X76965639Y-59162140D01*
X76943336Y-59185329D01*
X76925001Y-59199997D01*
X76925000Y-59200001D01*
X76925000Y-59229512D01*
X76918042Y-59270466D01*
X76902353Y-59315301D01*
X76899500Y-59345730D01*
X76899500Y-59854269D01*
X76902352Y-59884689D01*
X76902355Y-59884703D01*
X76918041Y-59929529D01*
X76925000Y-59970484D01*
X76925000Y-60879512D01*
X76918042Y-60920466D01*
X76902353Y-60965301D01*
X76899500Y-60995730D01*
X76899500Y-61504269D01*
X76902352Y-61534689D01*
X76902355Y-61534703D01*
X76918041Y-61579529D01*
X76925000Y-61620484D01*
X76925000Y-62296214D01*
X76917182Y-62339547D01*
X76905750Y-62370197D01*
X76905748Y-62370204D01*
X76899500Y-62428309D01*
X76899500Y-63121690D01*
X76905748Y-63179799D01*
X76917182Y-63210452D01*
X76925000Y-63253786D01*
X76925000Y-63300000D01*
X76965877Y-63332702D01*
X76987680Y-63355217D01*
X77038883Y-63423615D01*
X77038884Y-63423616D01*
X77151222Y-63507712D01*
X77195216Y-63524121D01*
X77229341Y-63543473D01*
X77425000Y-63700000D01*
X78058637Y-63700000D01*
X78125676Y-63719685D01*
X78161811Y-63755217D01*
X78304174Y-63968761D01*
X78324982Y-64035460D01*
X78325000Y-64037544D01*
X78325000Y-64858666D01*
X78305315Y-64925705D01*
X78300200Y-64933066D01*
X78062200Y-65250400D01*
X78006229Y-65292221D01*
X77963000Y-65300000D01*
X75376362Y-65300000D01*
X75309323Y-65280315D01*
X75288681Y-65263681D01*
X74361319Y-64336319D01*
X74327834Y-64274996D01*
X74325000Y-64248638D01*
X74325000Y-60151362D01*
X74344685Y-60084323D01*
X74361319Y-60063681D01*
X75154534Y-59270466D01*
X76025000Y-58400000D01*
X76025000Y-57851362D01*
X76044685Y-57784323D01*
X76061319Y-57763681D01*
X76152011Y-57672989D01*
X76282524Y-57542475D01*
X76343845Y-57508992D01*
X76413536Y-57513976D01*
G37*
%TD.AperFunction*%
%TD*%
%TA.AperFunction,Conductor*%
%TO.N,/3v3-PSU/LX_3.3v*%
G36*
X76399495Y-70234685D02*
G01*
X76401239Y-70235826D01*
X76614784Y-70378189D01*
X76659644Y-70431753D01*
X76670000Y-70481362D01*
X76670000Y-71552999D01*
X76650315Y-71620038D01*
X76620400Y-71652199D01*
X76443733Y-71784700D01*
X76378291Y-71809176D01*
X76369333Y-71809500D01*
X73107116Y-71809500D01*
X73094087Y-71810139D01*
X73086975Y-71810489D01*
X73074995Y-71811668D01*
X73072617Y-71811903D01*
X73060470Y-71812500D01*
X72414500Y-71812500D01*
X72347461Y-71792815D01*
X72301706Y-71740011D01*
X72290500Y-71688500D01*
X72290500Y-71472907D01*
X72310185Y-71405868D01*
X72350703Y-71366578D01*
X73936667Y-70415000D01*
X74240548Y-70232670D01*
X74304345Y-70215000D01*
X76332456Y-70215000D01*
X76399495Y-70234685D01*
G37*
%TD.AperFunction*%
%TD*%
%TA.AperFunction,Conductor*%
%TO.N,/power_in*%
G36*
X98265677Y-50969685D02*
G01*
X98286319Y-50986319D01*
X99213681Y-51913681D01*
X99247166Y-51975004D01*
X99250000Y-52001362D01*
X99250000Y-61298638D01*
X99230315Y-61365677D01*
X99213681Y-61386319D01*
X98286319Y-62313681D01*
X98224996Y-62347166D01*
X98198638Y-62350000D01*
X95801362Y-62350000D01*
X95734323Y-62330315D01*
X95713681Y-62313681D01*
X94786319Y-61386319D01*
X94752834Y-61324996D01*
X94750000Y-61298638D01*
X94750000Y-52001362D01*
X94769685Y-51934323D01*
X94786319Y-51913681D01*
X95713681Y-50986319D01*
X95775004Y-50952834D01*
X95801362Y-50950000D01*
X98198638Y-50950000D01*
X98265677Y-50969685D01*
G37*
%TD.AperFunction*%
%TD*%
%TA.AperFunction,Conductor*%
%TO.N,/3v3-PSU/3.3v_unfilterd*%
G36*
X76463183Y-72034685D02*
G01*
X76505176Y-72079941D01*
X76869344Y-72752250D01*
X77553333Y-74015000D01*
X77755032Y-74387366D01*
X77770000Y-74446425D01*
X77770000Y-75655402D01*
X77750315Y-75722441D01*
X77723462Y-75752230D01*
X77303965Y-76087828D01*
X77239319Y-76114336D01*
X77226503Y-76115000D01*
X74521362Y-76115000D01*
X74454323Y-76095315D01*
X74433681Y-76078681D01*
X74306319Y-75951319D01*
X74272834Y-75889996D01*
X74270000Y-75863638D01*
X74270000Y-74014999D01*
X73819506Y-73400689D01*
X73795735Y-73334987D01*
X73795500Y-73327360D01*
X73795500Y-72967855D01*
X73795501Y-72967842D01*
X73795501Y-72872148D01*
X73795501Y-72872147D01*
X73773318Y-72789361D01*
X73751891Y-72752250D01*
X73730465Y-72715138D01*
X73669862Y-72654535D01*
X73669860Y-72654533D01*
X73469862Y-72454535D01*
X73432750Y-72433108D01*
X73395640Y-72411682D01*
X73354246Y-72400591D01*
X73312853Y-72389500D01*
X73312852Y-72389500D01*
X73020465Y-72389500D01*
X73020449Y-72389499D01*
X73012853Y-72389499D01*
X72927148Y-72389499D01*
X72927146Y-72389499D01*
X72919092Y-72390560D01*
X72918978Y-72389698D01*
X72901490Y-72392000D01*
X72647147Y-72392000D01*
X72569612Y-72412775D01*
X72537521Y-72417000D01*
X72414500Y-72417000D01*
X72347461Y-72397315D01*
X72301706Y-72344511D01*
X72290500Y-72293000D01*
X72290500Y-72142000D01*
X72310185Y-72074961D01*
X72362989Y-72029206D01*
X72414500Y-72018000D01*
X73079820Y-72018000D01*
X73082922Y-72017382D01*
X73107116Y-72015000D01*
X76396144Y-72015000D01*
X76463183Y-72034685D01*
G37*
%TD.AperFunction*%
%TD*%
%TA.AperFunction,Conductor*%
%TO.N,+5V*%
G36*
X71017183Y-71018907D02*
G01*
X71028996Y-71028996D01*
X71060504Y-71060504D01*
X71088281Y-71115021D01*
X71089500Y-71130508D01*
X71089500Y-71793000D01*
X71070593Y-71851191D01*
X71021093Y-71887155D01*
X70990500Y-71892000D01*
X70647147Y-71892000D01*
X70566430Y-71913627D01*
X70540813Y-71917000D01*
X70300172Y-71917000D01*
X70256279Y-71925732D01*
X70256275Y-71925734D01*
X70206498Y-71958994D01*
X70206494Y-71958998D01*
X70173234Y-72008775D01*
X70173232Y-72008779D01*
X70164500Y-72052672D01*
X70164500Y-72140477D01*
X70145593Y-72198668D01*
X70096807Y-72234397D01*
X69615240Y-72394920D01*
X69583933Y-72400000D01*
X68841008Y-72400000D01*
X68782817Y-72381093D01*
X68771004Y-72371004D01*
X68628996Y-72228996D01*
X68601219Y-72174479D01*
X68600000Y-72158992D01*
X68600000Y-71241008D01*
X68618907Y-71182817D01*
X68628996Y-71171004D01*
X68771004Y-71028996D01*
X68825521Y-71001219D01*
X68841008Y-71000000D01*
X70958992Y-71000000D01*
X71017183Y-71018907D01*
G37*
%TD.AperFunction*%
%TD*%
M02*
