%TF.GenerationSoftware,KiCad,Pcbnew,8.0.4*%
%TF.CreationDate,2024-09-25T08:20:50+02:00*%
%TF.ProjectId,pong_pcb,706f6e67-5f70-4636-922e-6b696361645f,rev?*%
%TF.SameCoordinates,Original*%
%TF.FileFunction,Soldermask,Top*%
%TF.FilePolarity,Negative*%
%FSLAX46Y46*%
G04 Gerber Fmt 4.6, Leading zero omitted, Abs format (unit mm)*
G04 Created by KiCad (PCBNEW 8.0.4) date 2024-09-25 08:20:50*
%MOMM*%
%LPD*%
G01*
G04 APERTURE LIST*
G04 Aperture macros list*
%AMRoundRect*
0 Rectangle with rounded corners*
0 $1 Rounding radius*
0 $2 $3 $4 $5 $6 $7 $8 $9 X,Y pos of 4 corners*
0 Add a 4 corners polygon primitive as box body*
4,1,4,$2,$3,$4,$5,$6,$7,$8,$9,$2,$3,0*
0 Add four circle primitives for the rounded corners*
1,1,$1+$1,$2,$3*
1,1,$1+$1,$4,$5*
1,1,$1+$1,$6,$7*
1,1,$1+$1,$8,$9*
0 Add four rect primitives between the rounded corners*
20,1,$1+$1,$2,$3,$4,$5,0*
20,1,$1+$1,$4,$5,$6,$7,0*
20,1,$1+$1,$6,$7,$8,$9,0*
20,1,$1+$1,$8,$9,$2,$3,0*%
G04 Aperture macros list end*
%ADD10RoundRect,0.200000X-0.200000X-0.275000X0.200000X-0.275000X0.200000X0.275000X-0.200000X0.275000X0*%
%ADD11RoundRect,0.225000X0.250000X-0.225000X0.250000X0.225000X-0.250000X0.225000X-0.250000X-0.225000X0*%
%ADD12RoundRect,0.250000X0.650000X-1.000000X0.650000X1.000000X-0.650000X1.000000X-0.650000X-1.000000X0*%
%ADD13RoundRect,0.225000X0.225000X0.250000X-0.225000X0.250000X-0.225000X-0.250000X0.225000X-0.250000X0*%
%ADD14RoundRect,0.200000X0.200000X0.275000X-0.200000X0.275000X-0.200000X-0.275000X0.200000X-0.275000X0*%
%ADD15RoundRect,0.225000X-0.250000X0.225000X-0.250000X-0.225000X0.250000X-0.225000X0.250000X0.225000X0*%
%ADD16RoundRect,0.200000X-0.275000X0.200000X-0.275000X-0.200000X0.275000X-0.200000X0.275000X0.200000X0*%
%ADD17C,0.800000*%
%ADD18C,6.400000*%
%ADD19R,0.280000X2.600000*%
%ADD20O,1.500000X3.300000*%
%ADD21O,1.500000X2.890000*%
%ADD22RoundRect,0.250000X0.475000X-0.337500X0.475000X0.337500X-0.475000X0.337500X-0.475000X-0.337500X0*%
%ADD23R,1.850000X3.400000*%
%ADD24R,2.950000X1.680000*%
%ADD25RoundRect,0.200000X0.275000X-0.200000X0.275000X0.200000X-0.275000X0.200000X-0.275000X-0.200000X0*%
%ADD26R,1.700000X1.700000*%
%ADD27O,1.700000X1.700000*%
%ADD28RoundRect,0.225000X-0.225000X-0.250000X0.225000X-0.250000X0.225000X0.250000X-0.225000X0.250000X0*%
%ADD29RoundRect,0.250000X0.412500X0.650000X-0.412500X0.650000X-0.412500X-0.650000X0.412500X-0.650000X0*%
%ADD30RoundRect,0.250000X0.325000X0.450000X-0.325000X0.450000X-0.325000X-0.450000X0.325000X-0.450000X0*%
%ADD31RoundRect,0.162500X-0.617500X-0.162500X0.617500X-0.162500X0.617500X0.162500X-0.617500X0.162500X0*%
%ADD32RoundRect,0.237500X0.237500X-0.300000X0.237500X0.300000X-0.237500X0.300000X-0.237500X-0.300000X0*%
%ADD33RoundRect,0.250000X0.650000X-0.412500X0.650000X0.412500X-0.650000X0.412500X-0.650000X-0.412500X0*%
%ADD34RoundRect,0.162500X0.617500X0.162500X-0.617500X0.162500X-0.617500X-0.162500X0.617500X-0.162500X0*%
%ADD35RoundRect,0.249999X1.550001X-0.790001X1.550001X0.790001X-1.550001X0.790001X-1.550001X-0.790001X0*%
%ADD36O,3.600000X2.080000*%
%ADD37RoundRect,0.249999X-0.790001X-1.550001X0.790001X-1.550001X0.790001X1.550001X-0.790001X1.550001X0*%
%ADD38O,2.080000X3.600000*%
%ADD39RoundRect,0.162500X0.162500X-0.617500X0.162500X0.617500X-0.162500X0.617500X-0.162500X-0.617500X0*%
%ADD40R,0.250000X0.530000*%
%ADD41R,2.500000X1.700000*%
%ADD42C,1.524000*%
%ADD43RoundRect,0.250000X-0.325000X-0.450000X0.325000X-0.450000X0.325000X0.450000X-0.325000X0.450000X0*%
%ADD44RoundRect,0.250000X-1.500000X-0.900000X1.500000X-0.900000X1.500000X0.900000X-1.500000X0.900000X0*%
%ADD45RoundRect,0.237500X-0.237500X0.300000X-0.237500X-0.300000X0.237500X-0.300000X0.237500X0.300000X0*%
%ADD46RoundRect,0.249999X-1.550001X0.790001X-1.550001X-0.790001X1.550001X-0.790001X1.550001X0.790001X0*%
%ADD47RoundRect,0.250000X-0.650000X0.412500X-0.650000X-0.412500X0.650000X-0.412500X0.650000X0.412500X0*%
%ADD48R,0.750000X0.300000*%
%ADD49R,0.900000X1.300000*%
%ADD50RoundRect,0.250000X-0.850000X0.375000X-0.850000X-0.375000X0.850000X-0.375000X0.850000X0.375000X0*%
%ADD51RoundRect,0.250000X0.450000X-0.325000X0.450000X0.325000X-0.450000X0.325000X-0.450000X-0.325000X0*%
%ADD52RoundRect,0.250000X0.900000X-1.500000X0.900000X1.500000X-0.900000X1.500000X-0.900000X-1.500000X0*%
%ADD53RoundRect,0.249999X0.790001X1.550001X-0.790001X1.550001X-0.790001X-1.550001X0.790001X-1.550001X0*%
%ADD54RoundRect,0.100000X0.100000X-0.637500X0.100000X0.637500X-0.100000X0.637500X-0.100000X-0.637500X0*%
G04 APERTURE END LIST*
D10*
%TO.C,R17*%
X119350000Y-126000000D03*
X121000000Y-126000000D03*
%TD*%
D11*
%TO.C,C23*%
X103000000Y-127775000D03*
X103000000Y-126225000D03*
%TD*%
D12*
%TO.C,D5*%
X135000000Y-127000000D03*
X135000000Y-123000000D03*
%TD*%
D13*
%TO.C,C11*%
X124700000Y-63200000D03*
X123150000Y-63200000D03*
%TD*%
D14*
%TO.C,R5*%
X72495000Y-77315000D03*
X70845000Y-77315000D03*
%TD*%
D15*
%TO.C,C20*%
X79000000Y-76950000D03*
X79000000Y-78500000D03*
%TD*%
D16*
%TO.C,RV2*%
X75500000Y-113350000D03*
X75500000Y-115000000D03*
%TD*%
D12*
%TO.C,D4*%
X100000000Y-127080000D03*
X100000000Y-123080000D03*
%TD*%
D17*
%TO.C,H4*%
X152600000Y-139000000D03*
X153302944Y-137302944D03*
X153302944Y-140697056D03*
X155000000Y-136600000D03*
D18*
X155000000Y-139000000D03*
D17*
X155000000Y-141400000D03*
X156697056Y-137302944D03*
X156697056Y-140697056D03*
X157400000Y-139000000D03*
%TD*%
D12*
%TO.C,D3*%
X95000000Y-127080000D03*
X95000000Y-123080000D03*
%TD*%
D19*
%TO.C,J2*%
X124502956Y-53800000D03*
X125000000Y-53800000D03*
X125500000Y-53800000D03*
X126000000Y-53800000D03*
X126500000Y-53800000D03*
X127002956Y-53800000D03*
X127500000Y-53800000D03*
X128000000Y-53800000D03*
X128500000Y-53800000D03*
X129000000Y-53800000D03*
X129502956Y-53800000D03*
X130000000Y-53800000D03*
X130500000Y-53800000D03*
X131000000Y-53800000D03*
X131500000Y-53800000D03*
X132002956Y-53800000D03*
X132500000Y-53800000D03*
X133000000Y-53800000D03*
X133500000Y-53800000D03*
D20*
X136250000Y-53000000D03*
D21*
X136250000Y-47000000D03*
D20*
X121750000Y-53000000D03*
D21*
X121750000Y-47000000D03*
%TD*%
D22*
%TO.C,C2*%
X82875000Y-52750000D03*
X82875000Y-50675000D03*
%TD*%
D16*
%TO.C,R2*%
X77625000Y-59600000D03*
X77625000Y-61250000D03*
%TD*%
D10*
%TO.C,RV7*%
X82350000Y-127580000D03*
X84000000Y-127580000D03*
%TD*%
D11*
%TO.C,C22*%
X92000000Y-127775000D03*
X92000000Y-126225000D03*
%TD*%
%TO.C,C24*%
X132000000Y-127775000D03*
X132000000Y-126225000D03*
%TD*%
D23*
%TO.C,L1*%
X75625000Y-62250000D03*
X70075000Y-62250000D03*
%TD*%
D24*
%TO.C,F1*%
X97000000Y-60170000D03*
X97000000Y-64950000D03*
%TD*%
D25*
%TO.C,R15*%
X146000000Y-78000000D03*
X146000000Y-76350000D03*
%TD*%
D26*
%TO.C,J11*%
X86380000Y-76500000D03*
D27*
X86380000Y-79040000D03*
X88920000Y-76500000D03*
X88920000Y-79040000D03*
X91460000Y-76500000D03*
X91460000Y-79040000D03*
X94000000Y-76500000D03*
X94000000Y-79040000D03*
%TD*%
D11*
%TO.C,C30*%
X124450000Y-117400000D03*
X124450000Y-115850000D03*
%TD*%
D28*
%TO.C,C27*%
X85225000Y-116000000D03*
X86775000Y-116000000D03*
%TD*%
D29*
%TO.C,C13*%
X141000000Y-109000000D03*
X137875000Y-109000000D03*
%TD*%
D30*
%TO.C,L2*%
X82957500Y-54605000D03*
X80907500Y-54605000D03*
%TD*%
D25*
%TO.C,RV5*%
X146000000Y-75000000D03*
X146000000Y-73350000D03*
%TD*%
D31*
%TO.C,U5*%
X80650000Y-115050000D03*
X80650000Y-116000000D03*
X80650000Y-116950000D03*
X83350000Y-116950000D03*
X83350000Y-116000000D03*
X83350000Y-115050000D03*
%TD*%
D16*
%TO.C,R7*%
X77000000Y-110350000D03*
X77000000Y-112000000D03*
%TD*%
D32*
%TO.C,C1*%
X77625000Y-64500000D03*
X77625000Y-62775000D03*
%TD*%
D28*
%TO.C,C15*%
X143150000Y-102570000D03*
X144700000Y-102570000D03*
%TD*%
D33*
%TO.C,C8*%
X73125000Y-58000000D03*
X73125000Y-54875000D03*
%TD*%
D14*
%TO.C,R21*%
X130150000Y-127500000D03*
X128500000Y-127500000D03*
%TD*%
D34*
%TO.C,U9*%
X143500000Y-69450000D03*
X143500000Y-68500000D03*
X143500000Y-67550000D03*
X140800000Y-67550000D03*
X140800000Y-68500000D03*
X140800000Y-69450000D03*
%TD*%
D28*
%TO.C,C29*%
X85250000Y-117750000D03*
X86800000Y-117750000D03*
%TD*%
D35*
%TO.C,J4*%
X149822500Y-121080000D03*
D36*
X149822500Y-116000000D03*
X149822500Y-110920000D03*
%TD*%
D10*
%TO.C,R22*%
X119350000Y-127500000D03*
X121000000Y-127500000D03*
%TD*%
D37*
%TO.C,J7*%
X119640000Y-133822500D03*
D38*
X124720000Y-133822500D03*
X129800000Y-133822500D03*
X134880000Y-133822500D03*
X139960000Y-133822500D03*
%TD*%
D22*
%TO.C,C5*%
X78375000Y-52750000D03*
X78375000Y-50675000D03*
%TD*%
D25*
%TO.C,R6*%
X77000000Y-121150000D03*
X77000000Y-119500000D03*
%TD*%
D28*
%TO.C,C14*%
X143150000Y-106600000D03*
X144700000Y-106600000D03*
%TD*%
D15*
%TO.C,C31*%
X138800000Y-68850000D03*
X138800000Y-70400000D03*
%TD*%
D35*
%TO.C,J5*%
X149972500Y-78000000D03*
D36*
X149972500Y-72920000D03*
%TD*%
D16*
%TO.C,R3*%
X80855000Y-57100000D03*
X80855000Y-58750000D03*
%TD*%
D33*
%TO.C,C26*%
X110000000Y-138625000D03*
X110000000Y-135500000D03*
%TD*%
D10*
%TO.C,R20*%
X79350000Y-127580000D03*
X81000000Y-127580000D03*
%TD*%
D28*
%TO.C,C16*%
X143150000Y-104570000D03*
X144700000Y-104570000D03*
%TD*%
D14*
%TO.C,R4*%
X75570000Y-77315000D03*
X73920000Y-77315000D03*
%TD*%
D15*
%TO.C,C19*%
X77220000Y-76950000D03*
X77220000Y-78500000D03*
%TD*%
D16*
%TO.C,R13*%
X144500000Y-110850000D03*
X144500000Y-112500000D03*
%TD*%
D14*
%TO.C,RV8*%
X127150000Y-127500000D03*
X125500000Y-127500000D03*
%TD*%
D16*
%TO.C,R12*%
X75500000Y-110350000D03*
X75500000Y-112000000D03*
%TD*%
D14*
%TO.C,R19*%
X90150000Y-127580000D03*
X88500000Y-127580000D03*
%TD*%
D13*
%TO.C,C28*%
X134400000Y-116050000D03*
X132850000Y-116050000D03*
%TD*%
D39*
%TO.C,U8*%
X123550000Y-122350000D03*
X124500000Y-122350000D03*
X125450000Y-122350000D03*
X125450000Y-119650000D03*
X124500000Y-119650000D03*
X123550000Y-119650000D03*
%TD*%
D25*
%TO.C,RV10*%
X146000000Y-61150000D03*
X146000000Y-59500000D03*
%TD*%
D22*
%TO.C,C4*%
X76125000Y-52750000D03*
X76125000Y-50675000D03*
%TD*%
D11*
%TO.C,C12*%
X133400000Y-62900000D03*
X133400000Y-61350000D03*
%TD*%
D33*
%TO.C,C7*%
X70625000Y-58000000D03*
X70625000Y-54875000D03*
%TD*%
D25*
%TO.C,RV4*%
X144500000Y-118650000D03*
X144500000Y-117000000D03*
%TD*%
D17*
%TO.C,H2*%
X152600000Y-49000000D03*
X153302944Y-47302944D03*
X153302944Y-50697056D03*
X155000000Y-46600000D03*
D18*
X155000000Y-49000000D03*
D17*
X155000000Y-51400000D03*
X156697056Y-47302944D03*
X156697056Y-50697056D03*
X157400000Y-49000000D03*
%TD*%
D25*
%TO.C,RV1*%
X75500000Y-118150000D03*
X75500000Y-116500000D03*
%TD*%
D29*
%TO.C,C18*%
X75065000Y-75217500D03*
X71940000Y-75217500D03*
%TD*%
D26*
%TO.C,J9*%
X155000000Y-86760000D03*
D27*
X152460000Y-86760000D03*
X155000000Y-89300000D03*
X152460000Y-89300000D03*
X155000000Y-91840000D03*
X152460000Y-91840000D03*
X155000000Y-94380000D03*
X152460000Y-94380000D03*
X155000000Y-96920000D03*
X152460000Y-96920000D03*
X155000000Y-99460000D03*
X152460000Y-99460000D03*
X155000000Y-102000000D03*
X152460000Y-102000000D03*
%TD*%
D40*
%TO.C,U1*%
X76625000Y-57935000D03*
X77125000Y-57935000D03*
X77625000Y-57935000D03*
X78125000Y-57935000D03*
X78625000Y-57935000D03*
X79125000Y-57935000D03*
X79125000Y-55065000D03*
X78625000Y-55065000D03*
X78125000Y-55065000D03*
X77625000Y-55065000D03*
X77125000Y-55065000D03*
X76625000Y-55065000D03*
D41*
X77875000Y-56500000D03*
%TD*%
D42*
%TO.C,U2*%
X84600000Y-100000000D03*
X87140000Y-100000000D03*
X89680000Y-100000000D03*
X92220000Y-100000000D03*
X94760000Y-100000000D03*
X97300000Y-100000000D03*
X99840000Y-100000000D03*
X102380000Y-100000000D03*
X104920000Y-100000000D03*
X107460000Y-100000000D03*
X110000000Y-100000000D03*
X112540000Y-100000000D03*
X115080000Y-100000000D03*
X117620000Y-100000000D03*
X120160000Y-100000000D03*
X122700000Y-100000000D03*
X125240000Y-100000000D03*
X127780000Y-100000000D03*
X130320000Y-100000000D03*
X132860000Y-100000000D03*
X135400000Y-100000000D03*
X137940000Y-100000000D03*
X140480000Y-100000000D03*
X143020000Y-100000000D03*
X143020000Y-84760000D03*
X140480000Y-84760000D03*
X137940000Y-84760000D03*
X135400000Y-84760000D03*
X132860000Y-84760000D03*
X130320000Y-84760000D03*
X127780000Y-84760000D03*
X125240000Y-84760000D03*
X122700000Y-84760000D03*
X120160000Y-84760000D03*
X117620000Y-84760000D03*
X115080000Y-84760000D03*
X112540000Y-84760000D03*
X110000000Y-84760000D03*
X107460000Y-84760000D03*
X104920000Y-84760000D03*
X102380000Y-84760000D03*
X99840000Y-84760000D03*
X97300000Y-84760000D03*
X94760000Y-84760000D03*
X92220000Y-84760000D03*
X89680000Y-84760000D03*
X87140000Y-84760000D03*
X84600000Y-84760000D03*
%TD*%
D14*
%TO.C,RV6*%
X87150000Y-127580000D03*
X85500000Y-127580000D03*
%TD*%
D43*
%TO.C,L5*%
X76970000Y-75115000D03*
X79020000Y-75115000D03*
%TD*%
D16*
%TO.C,R18*%
X144500000Y-62500000D03*
X144500000Y-64150000D03*
%TD*%
D44*
%TO.C,D1*%
X91600000Y-69950000D03*
X97000000Y-69950000D03*
%TD*%
D12*
%TO.C,D6*%
X140000000Y-127000000D03*
X140000000Y-123000000D03*
%TD*%
D11*
%TO.C,C9*%
X75125000Y-58000000D03*
X75125000Y-56450000D03*
%TD*%
D35*
%TO.C,J8*%
X149972500Y-64540000D03*
D36*
X149972500Y-59460000D03*
%TD*%
D25*
%TO.C,R11*%
X75500000Y-121150000D03*
X75500000Y-119500000D03*
%TD*%
D45*
%TO.C,C6*%
X79225000Y-60000000D03*
X79225000Y-61725000D03*
%TD*%
D22*
%TO.C,C3*%
X80625000Y-52750000D03*
X80625000Y-50675000D03*
%TD*%
D34*
%TO.C,U6*%
X139350000Y-116950000D03*
X139350000Y-116000000D03*
X139350000Y-115050000D03*
X136650000Y-115050000D03*
X136650000Y-116000000D03*
X136650000Y-116950000D03*
%TD*%
D10*
%TO.C,RV9*%
X122350000Y-127500000D03*
X124000000Y-127500000D03*
%TD*%
D16*
%TO.C,R1*%
X80875000Y-60100000D03*
X80875000Y-61750000D03*
%TD*%
D15*
%TO.C,C17*%
X69200000Y-71833750D03*
X69200000Y-73383750D03*
%TD*%
D25*
%TO.C,R23*%
X146000000Y-64150000D03*
X146000000Y-62500000D03*
%TD*%
D37*
%TO.C,J6*%
X79680000Y-133822500D03*
D38*
X84760000Y-133822500D03*
X89840000Y-133822500D03*
X94920000Y-133822500D03*
X100000000Y-133822500D03*
%TD*%
D46*
%TO.C,J3*%
X70177500Y-111000000D03*
D36*
X70177500Y-116080000D03*
X70177500Y-121160000D03*
%TD*%
D17*
%TO.C,H3*%
X62600000Y-139000000D03*
X63302944Y-137302944D03*
X63302944Y-140697056D03*
X65000000Y-136600000D03*
D18*
X65000000Y-139000000D03*
D17*
X65000000Y-141400000D03*
X66697056Y-137302944D03*
X66697056Y-140697056D03*
X67400000Y-139000000D03*
%TD*%
D11*
%TO.C,C25*%
X143000000Y-127775000D03*
X143000000Y-126225000D03*
%TD*%
D25*
%TO.C,R9*%
X143000000Y-121650000D03*
X143000000Y-120000000D03*
%TD*%
D15*
%TO.C,C10*%
X131995000Y-74312500D03*
X131995000Y-75862500D03*
%TD*%
D47*
%TO.C,C21*%
X81000000Y-77000000D03*
X81000000Y-80125000D03*
%TD*%
D48*
%TO.C,U4*%
X70690000Y-71717500D03*
X70690000Y-72217500D03*
X70690000Y-72717500D03*
X70690000Y-73217500D03*
X72690000Y-73217500D03*
X72690000Y-72717500D03*
X72690000Y-72217500D03*
X72690000Y-71717500D03*
D49*
X71690000Y-72467500D03*
%TD*%
D16*
%TO.C,R8*%
X143000000Y-110850000D03*
X143000000Y-112500000D03*
%TD*%
D25*
%TO.C,R14*%
X144500000Y-121650000D03*
X144500000Y-120000000D03*
%TD*%
D50*
%TO.C,L4*%
X75440000Y-70967500D03*
X75440000Y-73117500D03*
%TD*%
D39*
%TO.C,U7*%
X84050000Y-122430000D03*
X85000000Y-122430000D03*
X85950000Y-122430000D03*
X85950000Y-119730000D03*
X85000000Y-119730000D03*
X84050000Y-119730000D03*
%TD*%
D25*
%TO.C,R10*%
X144500000Y-78000000D03*
X144500000Y-76350000D03*
%TD*%
D10*
%TO.C,R16*%
X79350000Y-126080000D03*
X81000000Y-126080000D03*
%TD*%
D17*
%TO.C,H1*%
X62600000Y-49000000D03*
X63302944Y-47302944D03*
X63302944Y-50697056D03*
X65000000Y-46600000D03*
D18*
X65000000Y-49000000D03*
D17*
X65000000Y-51400000D03*
X66697056Y-47302944D03*
X66697056Y-50697056D03*
X67400000Y-49000000D03*
%TD*%
D51*
%TO.C,L3*%
X141150000Y-106650000D03*
X141150000Y-104600000D03*
%TD*%
D16*
%TO.C,RV3*%
X144500000Y-113850000D03*
X144500000Y-115500000D03*
%TD*%
D52*
%TO.C,D2*%
X92000000Y-65350000D03*
X92000000Y-59950000D03*
%TD*%
D53*
%TO.C,J1*%
X97000000Y-54027500D03*
D38*
X91920000Y-54027500D03*
%TD*%
D54*
%TO.C,U3*%
X125425000Y-70862500D03*
X126075000Y-70862500D03*
X126725000Y-70862500D03*
X127375000Y-70862500D03*
X128025000Y-70862500D03*
X128675000Y-70862500D03*
X129325000Y-70862500D03*
X129975000Y-70862500D03*
X130625000Y-70862500D03*
X131275000Y-70862500D03*
X131925000Y-70862500D03*
X132575000Y-70862500D03*
X132575000Y-65137500D03*
X131925000Y-65137500D03*
X131275000Y-65137500D03*
X130625000Y-65137500D03*
X129975000Y-65137500D03*
X129325000Y-65137500D03*
X128675000Y-65137500D03*
X128025000Y-65137500D03*
X127375000Y-65137500D03*
X126725000Y-65137500D03*
X126075000Y-65137500D03*
X125425000Y-65137500D03*
%TD*%
M02*
